<svg width="237" height="199" viewBox="0 0 237 199" fill="none" xmlns="http://www.w3.org/2000/svg">
<path d="M175.528 72.3531C175.528 87.2224 167.686 101.623 153.158 112.741C138.617 123.869 117.94 131.14 94.5473 131.14C71.1549 131.14 50.4781 123.869 35.9368 112.741C21.4083 101.623 13.5662 87.2224 13.5662 72.3531C13.5662 57.4838 21.4083 43.0834 35.9368 31.9653C50.4781 20.8374 71.1549 13.5662 94.5473 13.5662C117.94 13.5662 138.617 20.8374 153.158 31.9653C167.686 43.0834 175.528 57.4838 175.528 72.3531Z" stroke="#7839EE" stroke-width="27.1324"/>
<path d="M222.798 126.618C222.798 141.487 214.956 155.888 200.427 167.006C185.886 178.133 165.209 185.405 141.817 185.405C118.424 185.405 97.7477 178.133 83.2064 167.006C68.6778 155.888 60.8357 141.487 60.8357 126.618C60.8357 111.748 68.6778 97.348 83.2064 86.2299C97.7477 75.1021 118.424 67.8309 141.817 67.8309C165.209 67.8309 185.886 75.1021 200.427 86.2299C214.956 97.348 222.798 111.748 222.798 126.618Z" stroke="#7839EE" stroke-width="27.1324"/>
</svg>
