<svg width="180" height="40" viewBox="0 0 180 40" fill="none" xmlns="http://www.w3.org/2000/svg">
<g id="Company logo">
<path id="Union" fill-rule="evenodd" clip-rule="evenodd" d="M52.7287 15.199L52.7286 15.0494V14.4392C50.6919 14.4392 48.5404 14.8751 48.5404 17.2763C48.5404 18.4927 49.1704 19.3169 50.2521 19.3169C51.0446 19.3169 51.7538 18.8295 52.2016 18.037C52.7309 17.1069 52.7299 16.2309 52.7287 15.199ZM54.9039 21.9835C55.1139 22.0944 55.3833 22.0826 55.5696 21.9161L55.5775 21.9241C56.1401 21.4248 57.1624 20.5333 57.737 20.0538C57.9668 19.8637 57.9272 19.5586 57.7449 19.305C57.6897 19.2285 57.6341 19.1536 57.5788 19.0792C57.1188 18.4592 56.683 17.8718 56.683 16.6938V12.3035C56.683 12.1536 56.6838 12.0046 56.6847 11.8567C56.6943 10.1723 56.7031 8.63414 55.4428 7.4576C54.3611 6.41947 52.5701 6.05493 51.1991 6.05493C48.5206 6.05493 45.529 7.05344 44.899 10.3659C44.8356 10.7186 45.0892 10.9048 45.319 10.9563L48.053 11.2495C48.3066 11.2377 48.4928 10.988 48.5404 10.7344C48.7742 9.59329 49.7331 9.04253 50.8068 9.04253C51.3853 9.04253 52.0431 9.25649 52.3878 9.77556C52.7398 10.2947 52.7345 10.9861 52.7297 11.6065V11.6065V11.6065C52.7291 11.6775 52.7286 11.7475 52.7286 11.8162V12.1807C52.4648 12.2108 52.1879 12.2391 51.9026 12.2683C50.4218 12.4198 48.7133 12.5946 47.4309 13.1594C45.6677 13.9202 44.4275 15.4774 44.4275 17.7636C44.4275 20.6918 46.2739 22.1539 48.6434 22.1539C50.6484 22.1539 51.742 21.6824 53.2873 20.1054C53.3688 20.2226 53.4416 20.3304 53.5101 20.4318C53.8743 20.9709 54.1168 21.3298 54.9039 21.9835ZM89.6616 15.0494L89.6617 15.1991V15.1991C89.6629 16.2309 89.6639 17.1069 89.1346 18.037C88.6868 18.8295 87.9736 19.3169 87.1851 19.3169C86.1034 19.3169 85.4694 18.4927 85.4694 17.2763C85.4694 14.8751 87.621 14.4392 89.6616 14.4392V15.0494ZM92.5026 21.9162C92.3163 22.0826 92.0469 22.0945 91.8369 21.9835C91.041 21.3226 90.7991 20.963 90.4296 20.4138C90.365 20.3176 90.2964 20.2157 90.2203 20.1054C88.6749 21.6824 87.5774 22.1539 85.5764 22.1539C83.203 22.1539 81.3605 20.6918 81.3605 17.7636C81.3605 15.4774 82.5967 13.9202 84.3639 13.1594C85.6463 12.5946 87.3548 12.4198 88.8356 12.2683C89.1209 12.2391 89.3978 12.2108 89.6616 12.1807V11.8162C89.6616 11.748 89.6621 11.6785 89.6626 11.6082C89.6674 10.9874 89.6727 10.2952 89.3168 9.77557C88.9761 9.2565 88.3183 9.04253 87.7359 9.04253C86.6621 9.04253 85.7072 9.5933 85.4734 10.7344C85.4258 10.988 85.2396 11.2377 84.9821 11.2496L82.252 10.9563C82.0222 10.9048 81.7646 10.7186 81.832 10.366C82.458 7.05344 85.4536 6.05493 88.1321 6.05493C89.5031 6.05493 91.294 6.41947 92.3758 7.4576C93.6361 8.63415 93.6273 10.1723 93.6177 11.8567L93.6177 11.8583C93.6168 12.0056 93.616 12.1541 93.616 12.3035V16.6938C93.616 17.8718 94.0518 18.4592 94.5118 19.0792C94.5671 19.1536 94.6227 19.2285 94.6779 19.305C94.8562 19.5586 94.8958 19.8637 94.666 20.0539C94.0914 20.5333 93.0692 21.4248 92.5065 21.9241L92.5026 21.9162ZM60.4472 21.9558H63.2645C63.5656 21.9558 63.8073 21.722 63.8073 21.4328V13.7696L63.8071 13.5873C63.8043 11.9344 63.8007 9.78351 65.7528 9.78351C67.5496 9.78351 67.5189 11.6972 67.4939 13.2554C67.4911 13.4325 67.4883 13.605 67.4883 13.7696L67.4923 21.4328C67.4923 21.7101 67.7142 21.936 67.9994 21.9558H70.8127C71.1138 21.9558 71.3555 21.722 71.3555 21.4328V13.7696C71.3555 13.7056 71.3554 13.6392 71.3552 13.5707C71.3531 12.762 71.3504 11.6721 71.6171 11C71.9063 10.2709 72.6195 9.81521 73.301 9.81521C74.1173 9.81521 74.7473 10.0886 74.9573 11.0594C75.0657 11.525 75.051 12.6017 75.0411 13.3222L75.0411 13.3228C75.0387 13.4972 75.0366 13.6507 75.0366 13.7696V21.4328C75.0366 21.7101 75.2624 21.936 75.5437 21.9558H78.357C78.6581 21.9558 78.8998 21.722 78.8998 21.4328L78.9038 12.3075C78.9038 12.085 78.9075 11.858 78.9113 11.6288L78.9114 11.6284C78.934 10.2618 78.9579 8.81626 78.1945 7.77461C77.406 6.68101 76.1143 6.19364 74.9335 6.19364C73.2733 6.19364 71.724 7.04554 71.0425 8.87218C70.25 7.04554 69.1485 6.19364 67.3853 6.19364C65.6498 6.19364 64.362 7.04554 63.6765 8.87218H63.625V6.98215C63.6052 6.72063 63.3873 6.51062 63.1139 6.49874H60.4869C60.1857 6.49874 59.944 6.72856 59.944 7.01781V21.4764C59.9638 21.7339 60.1778 21.936 60.4472 21.9558ZM97.0434 6.98212V9.05046C97.0434 9.35952 97.2811 9.56952 97.5783 9.56952H102.416L96.8571 17.5417C96.5203 18.0529 96.5164 18.6274 96.5164 18.9642V21.0603C96.5164 21.3614 96.8532 21.7101 97.1741 21.5358C100.324 19.8637 104.108 20.0261 106.957 21.5199C107.306 21.7022 107.639 21.3495 107.639 21.0484V18.8414C107.611 18.5442 107.512 18.2431 107.147 18.037C105.531 17.1257 103.649 16.8602 101.866 16.9038L106.664 10.0529C107.108 9.43876 107.357 9.05046 107.361 8.75328V6.98212C107.361 6.67306 107.124 6.45909 106.826 6.45909H97.5664C97.2811 6.45909 97.0434 6.66909 97.0434 6.98212ZM115.333 6.19364C119.514 6.19364 121.776 9.78351 121.776 14.3481C121.776 18.7582 119.276 22.2569 115.333 22.2569C111.228 22.2569 108.994 18.6671 108.994 14.1936C108.994 9.69238 111.256 6.19364 115.333 6.19364ZM115.357 9.14558C113.281 9.14558 113.15 11.9747 113.15 13.7379L113.15 13.8028C113.15 15.5957 113.149 19.2773 115.333 19.2773C117.517 19.2773 117.62 16.2342 117.62 14.3798C117.62 13.1594 117.568 11.7013 117.2 10.5443C116.883 9.53785 116.253 9.14558 115.357 9.14558ZM124.391 21.9558H127.197C127.498 21.9558 127.744 21.722 127.747 21.4328V13.6468C127.747 12.6721 127.799 11.7924 128.195 10.9088C128.508 10.2114 129.138 9.75182 129.824 9.75182C131.619 9.75182 131.602 11.723 131.589 13.2697C131.588 13.3988 131.587 13.525 131.587 13.6468V21.5001C131.615 21.7458 131.829 21.936 132.086 21.9558H134.911C135.189 21.9558 135.423 21.7537 135.454 21.5001V12.3987C135.454 11 135.454 9.05445 134.717 7.89744C133.925 6.64931 132.692 6.19364 131.428 6.19364C129.483 6.19364 128.378 7.13668 127.589 9.11388H127.537V6.9029C127.482 6.67705 127.28 6.51062 127.034 6.49874H124.423C124.138 6.49874 123.904 6.70478 123.88 6.97026L123.884 21.4328C123.884 21.7101 124.11 21.936 124.391 21.9558ZM96.9535 24.7813C98.671 24.5776 102.428 24.1319 103.098 24.9908C103.775 25.8581 102.346 29.4245 101.708 31.0187L101.707 31.0215C101.513 31.5049 101.929 31.6991 102.365 31.3345C105.206 28.9611 105.935 23.9884 105.356 23.2712C104.778 22.558 99.8168 21.9438 96.7935 24.0716C96.326 24.3965 96.4052 24.8482 96.9243 24.7848L96.9535 24.7813ZM81.3403 33.486C87.9416 33.486 95.6087 31.4058 100.898 27.5069C101.774 26.8571 101.025 25.8902 100.13 26.2706C94.2021 28.7867 87.7553 29.9992 81.8951 29.9992C73.2057 29.9992 64.7936 27.6178 57.9903 23.6595C57.3959 23.3108 56.9522 23.921 57.4474 24.3687C63.7515 30.0626 72.0843 33.486 81.3403 33.486Z" fill="#7A7493" style="fill:#7A7493;fill:color(display-p3 0.4800 0.4552 0.5750);fill-opacity:1;"/>
</g>
</svg>
