<svg width="25" height="25" viewBox="0 0 25 25" fill="none" xmlns="http://www.w3.org/2000/svg">
<g id="ArrowRight">
<path id="Vector" d="M21.0345 12.7699L14.2845 19.5199C14.1438 19.6607 13.9529 19.7397 13.7539 19.7397C13.5549 19.7397 13.364 19.6607 13.2233 19.5199C13.0826 19.3792 13.0035 19.1883 13.0035 18.9893C13.0035 18.7903 13.0826 18.5994 13.2233 18.4587L18.6936 12.9893H4.00391C3.80499 12.9893 3.61423 12.9103 3.47358 12.7696C3.33292 12.629 3.25391 12.4382 3.25391 12.2393C3.25391 12.0404 3.33292 11.8496 3.47358 11.709C3.61423 11.5683 3.80499 11.4893 4.00391 11.4893H18.6936L13.2233 6.01993C13.0826 5.8792 13.0035 5.68833 13.0035 5.48931C13.0035 5.29029 13.0826 5.09941 13.2233 4.95868C13.364 4.81795 13.5549 4.73889 13.7539 4.73889C13.9529 4.73889 14.1438 4.81795 14.2845 4.95868L21.0345 11.7087C21.1043 11.7783 21.1596 11.8611 21.1973 11.9521C21.2351 12.0432 21.2545 12.1407 21.2545 12.2393C21.2545 12.3379 21.2351 12.4355 21.1973 12.5265C21.1596 12.6176 21.1043 12.7003 21.0345 12.7699Z" fill="#343330" style="fill:#343330;fill:color(display-p3 0.2039 0.2000 0.1882);fill-opacity:1;"/>
</g>
</svg>
