<svg width="647" height="400" viewBox="0 0 647 400" fill="none" xmlns="http://www.w3.org/2000/svg">
<g filter="url(#filter0_bd_12_22017)">
<g clip-path="url(#clip0_12_22017)">
<path d="M210.776 23.1415C224.462 15.2408 246.651 15.2408 260.337 23.1415L602.303 220.558C615.988 228.459 615.988 241.269 602.303 249.17L416.452 356.461C402.766 364.362 380.577 364.362 366.891 356.461L24.9254 159.044C11.2397 151.144 11.2398 138.334 24.9255 130.433L210.776 23.1415Z" fill="url(#paint0_linear_12_22017)" style=""/>
<g filter="url(#filter1_f_12_22017)">
<path opacity="0.3" d="M136.436 43.1693C191.179 11.5663 279.934 11.5663 334.677 43.1693L235.557 100.392L136.436 43.1693Z" fill="#EE46BC" style="fill:#EE46BC;fill:color(display-p3 0.9327 0.2752 0.7354);fill-opacity:1;"/>
<path opacity="0.3" d="M334.677 43.1692C389.42 74.7722 389.42 126.011 334.677 157.614L235.556 100.391L334.677 43.1692Z" fill="#EF6820" style="fill:#EF6820;fill:color(display-p3 0.9391 0.4091 0.1237);fill-opacity:1;"/>
<path opacity="0.3" d="M136.436 43.1692L235.557 100.391L136.436 157.614C81.6935 126.011 81.6935 74.7722 136.436 43.1692Z" fill="#2E90FA" style="fill:#2E90FA;fill:color(display-p3 0.1804 0.5647 0.9804);fill-opacity:1;"/>
<path opacity="0.3" d="M235.557 100.392L334.677 157.614C279.934 189.217 191.179 189.217 136.436 157.614L235.557 100.392Z" fill="#17B26A" style="fill:#17B26A;fill:color(display-p3 0.0906 0.6976 0.4143);fill-opacity:1;"/>
</g>
<path d="M370.608 295.663C373.346 294.083 377.783 294.083 380.52 295.663L426.777 322.367C429.514 323.947 429.514 326.509 426.777 328.089L397.041 345.256C394.303 346.836 389.866 346.836 387.129 345.256L340.872 318.552C338.135 316.972 338.135 314.41 340.872 312.83L370.608 295.663Z" fill="white" fill-opacity="0.1" style="fill:white;fill-opacity:0.1;"/>
<path fill-rule="evenodd" clip-rule="evenodd" d="M376.44 322.925L381.288 320.126L383.79 321.571C384.815 322.163 386.024 322.464 387.407 322.48L387.748 322.479C390.44 322.413 392.541 321.102 392.465 319.56C392.466 318.767 391.897 318.009 390.909 317.461L386.893 315.142L374.925 322.051L376.44 322.925ZM382.758 319.278L386.938 316.865L389.478 318.331C390.024 318.646 390.331 319.066 390.335 319.509C390.352 320.445 389.035 321.227 387.414 321.25C386.618 321.264 385.843 321.081 385.298 320.744L382.758 319.278ZM396.32 325.686C396.273 324.965 395.694 324.278 394.574 323.632C393.135 322.801 391.519 322.485 389.745 322.684L390.231 323.945C391.446 323.809 392.476 323.985 393.323 324.474C393.859 324.783 394.176 325.198 394.218 325.641C394.269 326.067 393.999 326.484 393.474 326.787L393.121 326.991C392.862 326.467 392.3 325.944 391.397 325.423C390.343 324.814 389.249 324.469 388.113 324.397C386.977 324.325 385.989 324.526 385.139 325.017C384.348 325.452 383.942 326.066 384.029 326.689C384.087 327.34 384.572 327.929 385.457 328.439C386.501 329.042 387.796 329.25 389.362 329.074L389.428 329.112L388.292 329.767L389.74 330.604L394.789 327.689C395.848 327.078 396.368 326.408 396.32 325.686ZM386.169 326.801C386.088 326.489 386.272 326.166 386.672 325.935C387.121 325.676 387.7 325.58 388.401 325.643C389.11 325.711 389.78 325.922 390.392 326.275C391.248 326.758 391.716 327.248 391.805 327.74C391.156 328.115 390.339 328.293 389.363 328.281C388.453 328.285 387.584 328.081 386.944 327.711C386.511 327.472 386.24 327.151 386.169 326.801ZM389.398 334.56L406.245 330.677L404.598 329.727L396.377 331.769L396.349 331.752L399.829 326.974L398.183 326.024L393.84 332.365L387.836 333.659L389.398 334.56Z" fill="#3C4043" style="fill:#3C4043;fill:color(display-p3 0.2353 0.2510 0.2627);fill-opacity:1;"/>
<path d="M377.109 316.502C377.577 316.232 378.007 315.94 378.39 315.632L372.003 311.945L369.359 313.471L373.018 315.584C372.018 315.987 370.766 316.145 369.574 316.008L367.856 317L370.038 318.26C372.511 318.31 375.01 317.714 377.109 316.502Z" fill="#4285F4" style="fill:#4285F4;fill:color(display-p3 0.2588 0.5216 0.9569);fill-opacity:1;"/>
<path d="M363.891 316.628C365.716 317.682 367.869 318.22 370.038 318.26L369.574 316.008C368.543 315.898 367.523 315.585 366.611 315.058C364.842 314.037 364.559 312.474 365.645 311.228L363.397 309.93L361.622 310.955C360.45 312.956 361.332 315.151 363.891 316.628Z" fill="#34A853" style="fill:#34A853;fill:color(display-p3 0.2039 0.6588 0.3255);fill-opacity:1;"/>
<path d="M365.645 311.228C366.212 310.575 367.138 310.041 368.279 309.708L370.044 308.688L367.796 307.39C364.89 307.949 362.599 309.272 361.631 310.949L365.645 311.228Z" fill="#FBBC04" style="fill:#FBBC04;fill:color(display-p3 0.9843 0.7373 0.0157);fill-opacity:1;"/>
<path d="M374.913 310.265C375.901 310.813 376.46 311.566 376.479 312.359L380.383 312.342C380.315 310.959 379.336 309.656 377.633 308.695C375.075 307.218 371.263 306.714 367.796 307.39L368.269 309.713C370.437 309.08 373.145 309.244 374.913 310.265Z" fill="#EA4335" style="fill:#EA4335;fill:color(display-p3 0.9176 0.2627 0.2078);fill-opacity:1;"/>
<path d="M50.1423 143.24L62.1359 136.316L57.8142 135.709L60.1238 134.376L64.4157 135L66.5269 136.218L52.2536 144.458L50.1423 143.24ZM58.6047 148.113L60.4583 147.055L72.2437 147.427C73.1887 147.461 73.9519 147.413 74.5334 147.284C75.1215 147.158 75.6171 146.979 76.0202 146.746C76.529 146.452 76.8726 146.124 77.0511 145.762C77.2361 145.395 77.2493 145.029 77.0907 144.663C76.9321 144.297 76.5951 143.965 76.0797 143.667C75.551 143.362 74.953 143.162 74.2856 143.066C73.6314 142.971 72.9838 142.975 72.3428 143.078C71.7019 143.181 71.1468 143.372 70.6776 143.65L68.5564 142.426C69.4816 141.891 70.4992 141.544 71.6093 141.384C72.7327 141.224 73.8561 141.243 74.9794 141.441C76.1094 141.636 77.1469 142.006 78.0918 142.551C78.9905 143.07 79.5919 143.654 79.8958 144.302C80.2064 144.947 80.213 145.592 79.9156 146.237C79.6249 146.885 79.0269 147.471 78.1216 147.993C77.4674 148.371 76.8264 148.642 76.1986 148.806C75.5709 148.97 74.8902 149.065 74.1567 149.092C73.4233 149.119 72.5708 149.115 71.5994 149.081L62.52 148.783L62.8867 148.308L70.2316 152.548L68.2591 153.687L58.6047 148.113ZM77.3269 159.242C76.6198 158.834 76.0879 158.374 75.7311 157.863C75.3808 157.348 75.2255 156.816 75.2652 156.267C75.3114 155.721 75.5692 155.195 76.0383 154.687L78.5956 155.523C78.1727 155.988 78.034 156.454 78.1793 156.919C78.3313 157.381 78.7014 157.777 79.2895 158.109C79.8181 158.407 80.3996 158.601 81.034 158.693C81.6684 158.784 82.2994 158.779 82.9272 158.676C83.5616 158.569 84.1431 158.363 84.6717 158.058C85.4647 157.6 85.8711 157.079 85.8909 156.496C85.9173 155.916 85.5341 155.397 84.7411 154.939C84.5164 154.809 84.2521 154.695 83.9482 154.596C83.6508 154.5 83.3468 154.424 83.0362 154.367L83.7004 152.862L93.1862 153.2L92.8095 153.669L85.8711 149.663L87.8436 148.524L96.4274 153.48L94.4549 154.619L86.2477 154.527L86.9019 154.127C87.8006 154.645 88.3788 155.212 88.6366 155.826C88.9009 156.436 88.8678 157.043 88.5374 157.646C88.2202 158.248 87.6387 158.794 86.7929 159.282C85.881 159.809 84.8568 160.152 83.7202 160.312C82.5902 160.476 81.4635 160.467 80.3402 160.284C79.2234 160.104 78.219 159.757 77.3269 159.242ZM93.9646 168.538L96.4525 167.102L90.0097 163.382L91.9723 162.249L106.434 159.257L108.803 160.624L94.3413 163.617L98.4151 165.969L102.281 163.737L104.382 164.95L100.516 167.182L101.934 168L99.9713 169.133L98.5539 168.315L96.0659 169.751L93.9646 168.538ZM112.267 179.104L124.26 172.18L119.939 171.574L122.248 170.24L126.54 170.864L128.652 172.083L114.378 180.323L112.267 179.104ZM120.729 183.978L122.583 182.919L134.368 183.291C135.313 183.326 136.076 183.278 136.658 183.148C137.246 183.022 137.742 182.843 138.145 182.61C138.654 182.317 138.997 181.989 139.176 181.626C139.361 181.26 139.374 180.894 139.215 180.527C139.057 180.161 138.72 179.829 138.204 179.532C137.676 179.227 137.078 179.026 136.41 178.931C135.756 178.836 135.108 178.839 134.467 178.942C133.826 179.045 133.271 179.236 132.802 179.515L130.681 178.29C131.606 177.756 132.624 177.409 133.734 177.249C134.857 177.088 135.981 177.107 137.104 177.306C138.234 177.5 139.271 177.87 140.216 178.416C141.115 178.935 141.716 179.518 142.02 180.167C142.331 180.812 142.338 181.456 142.04 182.101C141.749 182.75 141.151 183.335 140.246 183.858C139.592 184.235 138.951 184.506 138.323 184.67C137.695 184.834 137.015 184.93 136.281 184.956C135.548 184.983 134.695 184.979 133.724 184.945L124.645 184.647L125.011 184.173L132.356 188.413L130.384 189.551L120.729 183.978ZM139.451 195.107C138.744 194.699 138.212 194.239 137.856 193.728C137.505 193.213 137.35 192.68 137.39 192.131C137.436 191.586 137.694 191.059 138.163 190.552L140.72 191.387C140.297 191.853 140.159 192.318 140.304 192.783C140.456 193.245 140.826 193.642 141.414 193.974C141.943 194.271 142.524 194.466 143.159 194.557C143.793 194.649 144.424 194.643 145.052 194.54C145.686 194.433 146.268 194.227 146.796 193.922C147.589 193.464 147.996 192.944 148.016 192.36C148.042 191.78 147.659 191.261 146.866 190.804C146.641 190.674 146.377 190.559 146.073 190.46C145.775 190.365 145.471 190.289 145.161 190.231L145.825 188.726L155.311 189.064L154.934 189.533L147.996 185.528L149.968 184.389L158.552 189.344L156.58 190.483L148.372 190.392L149.027 189.991C149.925 190.51 150.503 191.076 150.761 191.691C151.025 192.301 150.992 192.907 150.662 193.51C150.345 194.113 149.763 194.658 148.917 195.147C148.006 195.673 146.981 196.017 145.845 196.177C144.715 196.341 143.588 196.331 142.465 196.148C141.348 195.969 140.344 195.622 139.451 195.107ZM156.089 204.403L158.577 202.966L152.134 199.247L154.097 198.114L168.559 195.121L170.928 196.489L156.466 199.482L160.54 201.833L164.405 199.602L166.507 200.815L162.641 203.046L164.058 203.865L162.096 204.998L160.678 204.179L158.191 205.616L156.089 204.403ZM174.391 214.969L186.385 208.045L182.063 207.438L184.373 206.105L188.665 206.729L190.776 207.947L176.503 216.187L174.391 214.969ZM182.854 219.842L184.707 218.784L196.493 219.156C197.438 219.19 198.201 219.142 198.783 219.013C199.371 218.887 199.866 218.708 200.269 218.475C200.778 218.181 201.122 217.853 201.3 217.491C201.485 217.124 201.498 216.758 201.34 216.392C201.181 216.026 200.844 215.694 200.329 215.396C199.8 215.091 199.202 214.891 198.535 214.795C197.881 214.7 197.233 214.704 196.592 214.807C195.951 214.91 195.396 215.101 194.927 215.379L192.806 214.155C193.731 213.621 194.748 213.273 195.859 213.113C196.982 212.953 198.105 212.972 199.229 213.17C200.359 213.365 201.396 213.735 202.341 214.28C203.24 214.799 203.841 215.383 204.145 216.031C204.456 216.676 204.462 217.321 204.165 217.966C203.874 218.614 203.276 219.2 202.371 219.722C201.717 220.1 201.076 220.371 200.448 220.535C199.82 220.699 199.139 220.794 198.406 220.821C197.672 220.848 196.82 220.844 195.849 220.81L186.769 220.512L187.136 220.037L194.481 224.277L192.508 225.416L182.854 219.842ZM201.576 230.971C200.869 230.563 200.337 230.103 199.98 229.592C199.63 229.077 199.475 228.545 199.514 227.996C199.561 227.45 199.818 226.924 200.288 226.416L202.845 227.252C202.422 227.717 202.283 228.183 202.429 228.648C202.58 229.11 202.951 229.506 203.539 229.838C204.067 230.136 204.649 230.33 205.283 230.422C205.918 230.513 206.549 230.508 207.176 230.405C207.811 230.298 208.392 230.092 208.921 229.787C209.714 229.329 210.12 228.808 210.14 228.225C210.167 227.645 209.783 227.126 208.99 226.668C208.766 226.538 208.501 226.424 208.197 226.325C207.9 226.229 207.596 226.153 207.285 226.096L207.95 224.591L217.435 224.929L217.059 225.398L210.12 221.392L212.093 220.254L220.677 225.209L218.704 226.348L210.497 226.256L211.151 225.856C212.05 226.374 212.628 226.941 212.886 227.555C213.15 228.165 213.117 228.772 212.787 229.375C212.469 229.977 211.888 230.523 211.042 231.011C210.13 231.538 209.106 231.881 207.969 232.041C206.839 232.205 205.713 232.196 204.589 232.013C203.473 231.833 202.468 231.486 201.576 230.971ZM218.214 240.267L220.702 238.831L214.259 235.111L216.221 233.978L230.683 230.986L233.052 232.353L218.59 235.346L222.664 237.698L226.53 235.466L228.631 236.679L224.766 238.911L226.183 239.729L224.22 240.862L222.803 240.044L220.315 241.48L218.214 240.267ZM236.516 250.833L248.51 243.909L244.188 243.303L246.498 241.969L250.789 242.593L252.901 243.812L238.627 252.052L236.516 250.833ZM244.978 255.707L246.832 254.648L258.617 255.02C259.562 255.055 260.326 255.007 260.907 254.877C261.495 254.751 261.991 254.572 262.394 254.339C262.903 254.046 263.246 253.718 263.425 253.355C263.61 252.989 263.623 252.623 263.464 252.257C263.306 251.89 262.969 251.558 262.453 251.261C261.925 250.956 261.327 250.755 260.659 250.66C260.005 250.565 259.358 250.568 258.717 250.671C258.076 250.774 257.521 250.965 257.051 251.244L254.93 250.019C255.855 249.485 256.873 249.138 257.983 248.978C259.106 248.817 260.23 248.837 261.353 249.035C262.483 249.229 263.521 249.599 264.466 250.145C265.364 250.664 265.966 251.247 266.27 251.896C266.58 252.541 266.587 253.185 266.289 253.83C265.999 254.479 265.401 255.064 264.495 255.587C263.841 255.965 263.2 256.235 262.572 256.399C261.945 256.563 261.264 256.659 260.531 256.686C259.797 256.712 258.945 256.708 257.973 256.674L248.894 256.377L249.26 255.902L256.605 260.142L254.633 261.28L244.978 255.707ZM263.701 266.836C262.994 266.428 262.462 265.968 262.105 265.457C261.755 264.942 261.599 264.41 261.639 263.86C261.685 263.315 261.943 262.788 262.412 262.281L264.969 263.116C264.546 263.582 264.408 264.047 264.553 264.513C264.705 264.974 265.075 265.371 265.663 265.703C266.192 266 266.773 266.195 267.408 266.286C268.042 266.378 268.673 266.372 269.301 266.269C269.935 266.162 270.517 265.956 271.045 265.651C271.838 265.193 272.245 264.673 272.265 264.089C272.291 263.509 271.908 262.99 271.115 262.533C270.89 262.403 270.626 262.289 270.322 262.189C270.025 262.094 269.721 262.018 269.41 261.96L270.074 260.455L279.56 260.793L279.183 261.262L272.245 257.257L274.217 256.118L282.801 261.073L280.829 262.212L272.622 262.121L273.276 261.72C274.174 262.239 274.753 262.805 275.01 263.42C275.275 264.03 275.242 264.637 274.911 265.239C274.594 265.842 274.012 266.388 273.167 266.876C272.255 267.402 271.231 267.746 270.094 267.906C268.964 268.07 267.837 268.06 266.714 267.877C265.597 267.698 264.593 267.351 263.701 266.836ZM280.338 276.132L282.826 274.695L276.383 270.976L278.346 269.843L292.808 266.85L295.177 268.218L280.715 271.211L284.789 273.562L288.655 271.331L290.756 272.544L286.89 274.776L288.308 275.594L286.345 276.727L284.928 275.909L282.44 277.345L280.338 276.132Z" fill="white" style="fill:white;fill-opacity:1;"/>
<path d="M85.8971 123.805C85.1289 123.362 84.5664 122.886 84.2096 122.376C83.8627 121.867 83.7338 121.355 83.823 120.84C83.9221 120.325 84.2517 119.837 84.8117 119.376L86.6777 120.17C86.187 120.642 86.0185 121.135 86.1722 121.647C86.3308 122.156 86.757 122.611 87.4508 123.011C87.882 123.26 88.3454 123.451 88.841 123.582C89.3416 123.711 89.8272 123.765 90.2981 123.745C90.7788 123.725 91.1976 123.612 91.5544 123.406C91.7477 123.295 91.884 123.176 91.9633 123.05C92.0475 122.927 92.0847 122.8 92.0748 122.668C92.0748 122.537 92.0302 122.399 91.941 122.256C91.8617 122.113 91.7527 121.967 91.6139 121.818L89.681 119.767C89.4927 119.567 89.3217 119.351 89.1681 119.119C89.0194 118.884 88.9302 118.641 88.9005 118.389C88.8806 118.138 88.95 117.883 89.1086 117.625C89.2722 117.365 89.572 117.109 90.0081 116.857C90.6673 116.477 91.3934 116.252 92.1863 116.183C92.9892 116.115 93.797 116.181 94.6098 116.381C95.4276 116.578 96.1957 116.884 96.9144 117.299C97.628 117.723 98.1459 118.17 98.4681 118.643C98.7952 119.117 98.9141 119.598 98.8249 120.085C98.7456 120.571 98.4483 121.046 97.9328 121.509L95.9851 120.711C96.3122 120.436 96.4981 120.146 96.5427 119.84C96.5922 119.531 96.5179 119.231 96.3196 118.939C96.1264 118.644 95.8265 118.376 95.4201 118.136C95.0336 117.902 94.6098 117.726 94.1489 117.608C93.6929 117.494 93.2494 117.447 92.8182 117.467C92.392 117.49 92.0277 117.588 91.7254 117.763C91.428 117.934 91.2744 118.123 91.2645 118.329C91.2546 118.535 91.3215 118.743 91.4652 118.952C91.6189 119.16 91.7874 119.358 91.9707 119.544L93.3906 121.007C93.569 121.19 93.7549 121.406 93.9482 121.655C94.1514 121.904 94.2951 122.173 94.3794 122.462C94.4686 122.754 94.4364 123.056 94.2827 123.368C94.134 123.677 93.7995 123.981 93.2791 124.282C92.7389 124.594 92.1541 124.805 91.5247 124.917C90.9002 125.026 90.2584 125.05 89.5993 124.99C88.95 124.93 88.3082 124.797 87.6739 124.591C87.0395 124.385 86.4472 124.123 85.8971 123.805ZM91.808 126.96L105.992 122.789L108.23 124.081L101.004 132.269L99.3907 131.338L105.955 123.849L106.356 124.081L93.4212 127.892L91.808 126.96ZM96.0305 126.608L97.4876 125.767L103.078 128.995L101.621 129.836L96.0305 126.608ZM103.081 133.468L113.786 127.288L115.191 128.099L111.021 134.987L122.93 132.567L124.35 133.387L113.652 139.562L112.18 138.713L119.503 134.485L108.716 136.721L108.01 136.314L111.875 130.082L104.546 134.314L103.081 133.468ZM120.515 143.79C119.678 143.307 119.108 142.78 118.805 142.211C118.513 141.642 118.496 141.074 118.753 140.507C119.016 139.938 119.569 139.41 120.411 138.924L127.169 135.023L128.752 135.928L122.069 139.786C121.613 140.05 121.288 140.326 121.095 140.615C120.902 140.904 120.817 141.19 120.842 141.473C120.867 141.756 120.979 142.024 121.177 142.275C121.38 142.53 121.648 142.753 121.98 142.945C122.317 143.14 122.703 143.294 123.139 143.408C123.585 143.523 124.054 143.587 124.544 143.602C125.035 143.616 125.528 143.566 126.024 143.451C126.524 143.34 127 143.154 127.451 142.893L134.134 139.035L135.71 139.945L128.945 143.85C128.108 144.334 127.196 144.652 126.21 144.803C125.223 144.955 124.235 144.945 123.243 144.773C122.262 144.602 121.353 144.274 120.515 143.79ZM127.828 147.755L138.533 141.575L145.373 145.523L143.908 146.369L138.622 143.317L135.619 145.051L140.013 147.587L138.548 148.433L134.155 145.896L130.846 147.806L136.132 150.858L134.668 151.703L127.828 147.755ZM137.345 153.249L148.05 147.069L149.604 147.966L140.363 153.3L145.21 156.098L143.746 156.944L137.345 153.249ZM147.987 159.393L162.171 155.221L164.409 156.513L157.183 164.701L155.57 163.77L162.134 156.281L162.536 156.513L149.6 160.324L147.987 159.393ZM152.21 159.041L153.667 158.2L159.257 161.427L157.8 162.268L152.21 159.041ZM159.409 165.986L170.114 159.806L171.668 160.703L162.427 166.038L167.274 168.836L165.81 169.681L159.409 165.986ZM167.815 170.839L178.52 164.659L185.36 168.608L183.895 169.453L178.61 166.402L175.606 168.136L180 170.672L178.535 171.517L174.142 168.981L170.833 170.891L176.119 173.942L174.655 174.788L167.815 170.839ZM176.291 175.732L185.361 174.711L187.093 169.608L188.996 170.707L187.636 174.505L194.2 173.711L196.11 174.814L187.271 175.814L185.495 181.046L183.591 179.947L184.997 176.029L178.202 176.835L176.291 175.732Z" fill="white" style="fill:white;fill-opacity:1;"/>
<path d="M278.712 235.117C277.983 234.697 277.498 234.233 277.255 233.727C277.017 233.217 277.017 232.708 277.255 232.199C277.498 231.692 277.983 231.229 278.712 230.808L282.399 228.68C283.128 228.259 283.931 227.979 284.808 227.838C285.69 227.701 286.57 227.703 287.447 227.843C288.329 227.98 289.134 228.259 289.863 228.68C290.591 229.1 291.075 229.565 291.313 230.074C291.555 230.581 291.555 231.087 291.313 231.594C291.075 232.103 290.591 232.568 289.863 232.988L286.176 235.117C285.447 235.538 284.642 235.817 283.76 235.954C282.882 236.094 282.003 236.096 281.12 235.958C280.243 235.818 279.44 235.538 278.712 235.117ZM280.199 234.259C280.595 234.488 281.049 234.641 281.559 234.718C282.079 234.795 282.597 234.797 283.113 234.722C283.633 234.645 284.094 234.491 284.496 234.259L288.391 232.01C288.787 231.781 289.05 231.518 289.179 231.22C289.313 230.92 289.31 230.621 289.172 230.323C289.043 230.026 288.78 229.763 288.384 229.534C287.987 229.305 287.529 229.152 287.008 229.074C286.498 228.997 285.982 228.997 285.462 229.074C284.947 229.149 284.491 229.3 284.094 229.529L280.199 231.778C279.797 232.01 279.53 232.276 279.396 232.576C279.267 232.874 279.267 233.172 279.396 233.469C279.535 233.767 279.802 234.03 280.199 234.259ZM288.943 241.023C288.249 240.623 287.788 240.168 287.56 239.659C287.337 239.146 287.349 238.63 287.597 238.109C287.85 237.591 288.343 237.121 289.076 236.697L292.489 234.727C293.267 234.278 294.112 233.976 295.024 233.822C295.941 233.67 296.85 233.666 297.752 233.809C298.659 233.955 299.489 234.245 300.242 234.68C300.807 235.006 301.231 235.374 301.514 235.783C301.796 236.192 301.908 236.623 301.848 237.075L299.648 237.032C299.707 236.763 299.66 236.496 299.506 236.23C299.363 235.963 299.117 235.73 298.77 235.53C298.324 235.273 297.826 235.108 297.276 235.036C296.731 234.962 296.191 234.968 295.656 235.054C295.125 235.142 294.664 235.3 294.273 235.526L292.31 236.659L292.347 236.285C293.056 236.231 293.755 236.268 294.444 236.397C295.133 236.526 295.737 236.74 296.258 237.041C296.922 237.424 297.358 237.856 297.566 238.337C297.784 238.817 297.777 239.297 297.544 239.774C297.316 240.255 296.87 240.687 296.206 241.071C295.537 241.457 294.761 241.71 293.879 241.83C293.007 241.95 292.129 241.942 291.247 241.804C290.375 241.667 289.607 241.407 288.943 241.023ZM290.437 240.161C290.823 240.384 291.269 240.533 291.775 240.607C292.28 240.681 292.786 240.681 293.292 240.607C293.797 240.533 294.243 240.384 294.63 240.161C295.016 239.938 295.274 239.68 295.403 239.388C295.537 239.099 295.539 238.809 295.41 238.517C295.281 238.225 295.024 237.968 294.637 237.745C294.251 237.521 293.802 237.371 293.292 237.294C292.786 237.219 292.28 237.219 291.775 237.294C291.269 237.368 290.823 237.517 290.437 237.74C290.055 237.961 289.8 238.217 289.671 238.508C289.542 238.8 289.54 239.094 289.664 239.388C289.793 239.68 290.05 239.938 290.437 240.161ZM308.875 239.913L310.443 240.818L296.884 245.35L295.315 244.445L308.875 239.913ZM302.132 248.371L303.522 247.577L312.361 247.856C313.069 247.882 313.642 247.846 314.078 247.749C314.519 247.655 314.891 247.52 315.193 247.346C315.575 247.125 315.832 246.879 315.966 246.607C316.105 246.333 316.115 246.058 315.996 245.783C315.877 245.509 315.624 245.26 315.238 245.037C314.841 244.808 314.393 244.657 313.892 244.586C313.402 244.514 312.916 244.517 312.435 244.595C311.954 244.672 311.538 244.815 311.186 245.024L309.595 244.105C310.289 243.705 311.052 243.444 311.885 243.324C312.728 243.204 313.57 243.218 314.413 243.367C315.26 243.513 316.038 243.791 316.747 244.2C317.421 244.589 317.872 245.027 318.1 245.513C318.333 245.996 318.338 246.48 318.115 246.964C317.897 247.45 317.448 247.889 316.769 248.281C316.278 248.564 315.798 248.767 315.327 248.891C314.856 249.014 314.346 249.085 313.796 249.105C313.245 249.125 312.606 249.122 311.878 249.097L305.068 248.873L305.343 248.517L310.852 251.697L309.372 252.551L302.132 248.371ZM316.136 256.464L318.001 255.387L313.169 252.598L314.641 251.748L325.488 249.503L327.264 250.529L316.418 252.773L319.473 254.537L322.373 252.864L323.949 253.773L321.049 255.447L322.112 256.061L320.641 256.911L319.577 256.297L317.712 257.374L316.136 256.464Z" fill="white" style="fill:white;fill-opacity:1;"/>
<path d="M241.432 46.191L244.043 47.6988L234.624 53.1365C233.592 53.7326 232.439 54.1159 231.168 54.2866C229.9 54.46 228.607 54.4208 227.289 54.1688C225.975 53.9141 224.731 53.4481 223.558 52.7707C222.38 52.0907 221.57 51.3713 221.129 50.6127C220.692 49.8514 220.624 49.1049 220.925 48.3734C221.225 47.6419 221.891 46.9781 222.924 46.382L232.343 40.9442L234.955 42.452L225.754 47.7638C225.153 48.1106 224.75 48.4953 224.543 48.918C224.341 49.3434 224.348 49.7728 224.564 50.2063C224.785 50.6371 225.226 51.0435 225.888 51.4255C226.549 51.8075 227.253 52.0622 228 52.1896C228.755 52.3169 229.499 52.321 230.231 52.2018C230.963 52.0825 231.63 51.8495 232.231 51.5027L241.432 46.191ZM241.236 55.4093L234.9 59.067L232.352 57.5958L243.165 51.3534L245.601 52.7596L243.764 53.8203L243.89 53.8934C244.744 53.6875 245.622 53.6388 246.523 53.7471C247.429 53.8582 248.285 54.1468 249.093 54.6128C249.839 55.0436 250.329 55.5109 250.564 56.0149C250.803 56.5215 250.773 57.0377 250.473 57.5633C250.177 58.0916 249.595 58.6037 248.727 59.0995L241.842 63.0742L239.293 61.603L245.784 57.8559C246.507 57.4387 246.885 57.0038 246.917 56.5513C246.955 56.1016 246.645 55.6871 245.988 55.3077C245.542 55.0503 245.047 54.8783 244.503 54.7916C243.968 54.7049 243.419 54.7103 242.855 54.8079C242.297 54.9081 241.757 55.1086 241.236 55.4093ZM260.645 61.4445L258.674 62.5824L252.458 58.9939L254.429 57.8559L260.645 61.4445ZM258.554 57.2463L261.103 58.7175L250.951 64.5779C250.609 64.7757 250.397 64.9572 250.318 65.1225C250.247 65.2878 250.266 65.4395 250.374 65.5777C250.482 65.7159 250.641 65.8459 250.853 65.9678C251.012 66.0599 251.169 66.1372 251.324 66.1995C251.484 66.2645 251.608 66.3119 251.697 66.3417L250.135 67.7398C249.952 67.6883 249.705 67.6057 249.395 67.4919C249.09 67.3808 248.752 67.2236 248.382 67.0204C247.725 66.6628 247.246 66.2753 246.946 65.8581C246.65 65.4381 246.577 65.0114 246.727 64.5779C246.882 64.1471 247.3 63.738 247.98 63.3506L258.554 57.2463ZM251.963 68.9173L262.776 62.6749L265.325 64.1461L254.512 70.3885L251.963 68.9173ZM265.592 62.5286C265.189 62.2956 264.975 62.0179 264.952 61.6955C264.933 61.3703 265.114 61.098 265.494 60.8786C265.879 60.6564 266.35 60.5521 266.909 60.5656C267.472 60.5765 267.955 60.6984 268.359 60.9314C268.767 61.1671 268.978 61.4462 268.993 61.7686C269.016 62.091 268.835 62.3633 268.45 62.5855C268.07 62.805 267.599 62.9093 267.035 62.8984C266.482 62.8876 266.001 62.7643 265.592 62.5286ZM273.345 68.7761L271.374 69.9141L265.158 66.3255L267.129 65.1875L273.345 68.7761ZM271.254 64.5779L273.802 66.0491L263.651 71.9095C263.308 72.1073 263.097 72.2888 263.017 72.4541C262.947 72.6194 262.966 72.7711 263.074 72.9093C263.182 73.0475 263.341 73.1775 263.552 73.2994C263.712 73.3916 263.869 73.4688 264.024 73.5311C264.184 73.5961 264.308 73.6435 264.397 73.6733L262.834 75.0714C262.651 75.0199 262.405 74.9373 262.095 74.8235C261.79 74.7124 261.452 74.5552 261.082 74.352C260.424 73.9944 259.946 73.607 259.645 73.1897C259.35 72.7697 259.277 72.343 259.427 71.9095C259.582 71.4787 260 71.0696 260.68 70.6822L271.254 64.5779ZM281.861 69.531L267.444 77.8543L264.895 76.3831L279.313 68.0598L281.861 69.531ZM274.64 82.2526C273.556 81.6267 272.845 80.9562 272.507 80.2409C272.179 79.5256 272.219 78.8063 272.627 78.0829C273.04 77.3567 273.812 76.6672 274.943 76.0142C276.055 75.3721 277.243 74.9305 278.505 74.6894C279.777 74.4482 281.03 74.413 282.264 74.5837C283.503 74.7517 284.639 75.1337 285.672 75.7298C286.338 76.1145 286.859 76.5399 287.234 77.0059C287.619 77.4719 287.816 77.965 287.826 78.4852C287.84 79.0081 287.633 79.5446 287.206 80.0946C286.784 80.6419 286.099 81.1892 285.151 81.7365L284.369 82.1876L275.506 77.0709L277.224 76.0793L283.644 79.7857C284.128 79.5012 284.456 79.1896 284.63 78.851C284.808 78.5096 284.822 78.1682 284.672 77.8268C284.526 77.4882 284.21 77.1779 283.722 76.8961C283.201 76.5954 282.616 76.4044 281.969 76.3231C281.326 76.2391 280.69 76.2513 280.061 76.3597C279.441 76.4681 278.888 76.6604 278.399 76.9368L276.9 77.8024C276.271 78.1655 275.846 78.5435 275.626 78.9363C275.41 79.3265 275.389 79.7099 275.562 80.0865C275.741 80.4604 276.107 80.8072 276.661 81.1269C277.031 81.3409 277.419 81.5048 277.822 81.6186C278.231 81.7297 278.648 81.7893 279.075 81.7974C279.502 81.8056 279.925 81.7541 280.342 81.643L282.454 83.1711C281.675 83.4475 280.84 83.5992 279.948 83.6263C279.066 83.6534 278.169 83.5531 277.259 83.3255C276.353 83.0952 275.48 82.7376 274.64 82.2526ZM285.638 88.5773C284.789 88.0869 284.247 87.522 284.012 86.8826C283.777 86.2432 283.881 85.5713 284.322 84.8668C284.763 84.1624 285.577 83.4674 286.765 82.782C287.966 82.0884 289.177 81.6169 290.397 81.3677C291.627 81.1184 292.791 81.0669 293.889 81.2132C294.992 81.3568 295.959 81.6684 296.789 82.148C297.423 82.5137 297.836 82.8768 298.028 83.2371C298.225 83.5948 298.293 83.9294 298.232 84.241C298.176 84.5498 298.082 84.8181 297.951 85.0457L298.056 85.1066L303.449 81.9935L306.004 83.4688L291.587 91.792L289.081 90.3452L290.784 89.3617L290.629 89.2723C290.235 89.3482 289.766 89.3996 289.221 89.4267C288.682 89.4511 288.104 89.4051 287.49 89.2886C286.875 89.1721 286.258 88.935 285.638 88.5773ZM288.44 87.7808C288.98 88.0924 289.585 88.2739 290.256 88.3254C290.932 88.3741 291.631 88.3037 292.354 88.114C293.077 87.9244 293.788 87.6277 294.487 87.224C295.186 86.8203 295.696 86.4125 296.015 86.0007C296.339 85.5916 296.454 85.1947 296.36 84.8099C296.271 84.4279 295.951 84.0784 295.402 83.7614C294.834 83.4336 294.213 83.2453 293.537 83.1965C292.861 83.1477 292.166 83.2182 291.453 83.4078C290.74 83.5975 290.047 83.886 289.376 84.2735C288.7 84.6636 288.194 85.0673 287.856 85.4846C287.527 85.9018 287.4 86.3082 287.476 86.7038C287.56 87.0994 287.881 87.4584 288.44 87.7808ZM295.717 94.3555C295.29 94.1089 295.074 93.8109 295.07 93.4614C295.065 93.1118 295.281 92.8138 295.717 92.5673C296.135 92.3207 296.647 92.1988 297.252 92.2015C297.858 92.2042 298.374 92.3288 298.801 92.5754C299.214 92.8138 299.423 93.1078 299.427 93.4573C299.437 93.8095 299.233 94.1089 298.815 94.3555C298.524 94.518 298.188 94.625 297.808 94.6765C297.433 94.7307 297.057 94.7307 296.682 94.6765C296.316 94.6223 295.994 94.5153 295.717 94.3555Z" fill="white" style="fill:white;fill-opacity:1;"/>
<g clip-path="url(#clip1_12_22017)">
<path d="M569.838 232.267C568.132 235.942 564.78 239.293 560.12 241.984C555.459 244.675 549.654 246.609 543.287 247.594M561.076 230.581C559.745 233.448 557.131 236.062 553.496 238.16C549.861 240.259 545.333 241.768 540.367 242.536M552.819 228.91C551.833 230.997 549.915 232.903 547.258 234.437C544.602 235.97 541.3 237.077 537.685 237.647M544.349 227.362C543.863 228.736 542.709 229.982 541.02 230.958C539.33 231.933 537.172 232.599 534.791 232.88" stroke="white" style="stroke:white;stroke-opacity:1;" stroke-width="3.67882" stroke-linecap="round"/>
</g>
</g>
<path d="M211.396 23.4992C224.74 15.7959 246.374 15.7959 259.717 23.4992L601.683 220.916C615.027 228.619 615.027 241.109 601.683 248.812L415.832 356.104C402.489 363.807 380.854 363.807 367.511 356.104L25.5449 158.687C12.2014 150.984 12.2014 138.494 25.545 130.791L211.396 23.4992Z" stroke="url(#paint1_linear_12_22017)" stroke-opacity="0.5" style="" stroke-width="1.43065"/>
</g>
<defs>
<filter id="filter0_bd_12_22017" x="-17.0225" y="-8.33187" width="678.441" height="416.296" filterUnits="userSpaceOnUse" color-interpolation-filters="sRGB">
<feFlood flood-opacity="0" result="BackgroundImageFix"/>
<feGaussianBlur in="BackgroundImageFix" stdDeviation="8.58391"/>
<feComposite in2="SourceAlpha" operator="in" result="effect1_backgroundBlur_12_22017"/>
<feColorMatrix in="SourceAlpha" type="matrix" values="0 0 0 0 0 0 0 0 0 0 0 0 0 0 0 0 0 0 127 0" result="hardAlpha"/>
<feOffset dx="11.4452" dy="14.3065"/>
<feGaussianBlur stdDeviation="11.4452"/>
<feColorMatrix type="matrix" values="0 0 0 0 0 0 0 0 0 0 0 0 0 0 0 0 0 0 0.05 0"/>
<feBlend mode="normal" in2="effect1_backgroundBlur_12_22017" result="effect2_dropShadow_12_22017"/>
<feBlend mode="normal" in="SourceGraphic" in2="effect2_dropShadow_12_22017" result="shape"/>
</filter>
<filter id="filter1_f_12_22017" x="-145.808" y="-197.176" width="762.729" height="595.136" filterUnits="userSpaceOnUse" color-interpolation-filters="sRGB">
<feFlood flood-opacity="0" result="BackgroundImageFix"/>
<feBlend mode="normal" in="SourceGraphic" in2="BackgroundImageFix" result="shape"/>
<feGaussianBlur stdDeviation="91.5617" result="effect1_foregroundBlur_12_22017"/>
</filter>
<linearGradient id="paint0_linear_12_22017" x1="255.117" y1="20.1283" x2="295.862" y2="424.63" gradientUnits="userSpaceOnUse">
<stop stop-color="white" stop-opacity="0.51" style="stop-color:white;stop-opacity:0.51;"/>
<stop offset="1" stop-color="white" stop-opacity="0" style="stop-color:none;stop-opacity:0;"/>
</linearGradient>
<linearGradient id="paint1_linear_12_22017" x1="225.616" y1="14.5746" x2="274.865" y2="386.245" gradientUnits="userSpaceOnUse">
<stop stop-color="white" style="stop-color:white;stop-opacity:1;"/>
<stop offset="1" stop-color="white" stop-opacity="0.2" style="stop-color:white;stop-opacity:0.2;"/>
</linearGradient>
<clipPath id="clip0_12_22017">
<path d="M210.776 23.1415C224.462 15.2408 246.651 15.2408 260.337 23.1415L602.303 220.558C615.988 228.459 615.988 241.269 602.303 249.17L416.452 356.461C402.766 364.362 380.577 364.362 366.891 356.461L24.9254 159.044C11.2397 151.144 11.2398 138.334 24.9255 130.433L210.776 23.1415Z" fill="white" style="fill:white;fill-opacity:1;"/>
</clipPath>
<clipPath id="clip1_12_22017">
<rect width="28.613" height="34.3356" fill="white" style="fill:white;fill-opacity:1;" transform="matrix(0.866044 0.499967 -0.866044 0.499967 552.668 220.516)"/>
</clipPath>
</defs>
</svg>
