<svg width="647" height="392" viewBox="0 0 647 392" fill="none" xmlns="http://www.w3.org/2000/svg">
<g filter="url(#filter0_d_12_21959)">
<g clip-path="url(#clip0_12_21959)">
<path d="M210.776 14.7655C224.462 6.86479 246.651 6.86479 260.337 14.7655L602.303 212.182C615.988 220.083 615.988 232.893 602.303 240.794L416.452 348.085C402.766 355.986 380.577 355.986 366.891 348.085L24.9254 150.668C11.2397 142.768 11.2398 129.958 24.9255 122.057L210.776 14.7655Z" fill="url(#paint0_linear_12_21959)" style=""/>
<path d="M370.608 287.287C373.346 285.707 377.783 285.707 380.52 287.287L426.777 313.991C429.514 315.571 429.514 318.133 426.777 319.713L397.041 336.88C394.303 338.46 389.866 338.46 387.129 336.88L340.872 310.176C338.135 308.596 338.135 306.034 340.872 304.454L370.608 287.287Z" fill="white" fill-opacity="0.1" style="fill:white;fill-opacity:0.1;"/>
<path fill-rule="evenodd" clip-rule="evenodd" d="M376.142 316.86C372.537 316.682 369.004 315.792 366.232 314.191C360.045 310.62 359.986 304.864 366.099 301.335C372.211 297.806 382.182 297.84 388.369 301.412C391.141 303.012 392.683 305.052 392.991 307.133C396.595 307.31 400.128 308.201 402.901 309.801C409.087 313.373 409.147 319.129 403.034 322.658C396.921 326.187 386.95 326.152 380.764 322.581C377.991 320.98 376.449 318.941 376.142 316.86Z" fill="#ED0006" style="fill:#ED0006;fill:color(display-p3 0.9294 0.0000 0.0235);fill-opacity:1;"/>
<path fill-rule="evenodd" clip-rule="evenodd" d="M380.764 322.581C386.95 326.152 396.921 326.187 403.034 322.658C409.147 319.129 409.087 313.373 402.901 309.801C400.128 308.2 396.595 307.31 392.99 307.133C393.369 309.695 391.875 312.321 388.502 314.268C385.128 316.216 380.58 317.078 376.142 316.86C376.449 318.941 377.991 320.98 380.764 322.581Z" fill="#F9A000" style="fill:#F9A000;fill:color(display-p3 0.9765 0.6275 0.0000);fill-opacity:1;"/>
<path fill-rule="evenodd" clip-rule="evenodd" d="M376.142 316.86C380.58 317.078 385.129 316.216 388.502 314.268C391.875 312.321 393.369 309.695 392.99 307.133C388.552 306.915 384.004 307.777 380.63 309.724C377.257 311.672 375.763 314.297 376.142 316.86Z" fill="#FF5E00" style="fill:#FF5E00;fill:color(display-p3 1.0000 0.3686 0.0000);fill-opacity:1;"/>
<path d="M50.1423 134.864L62.1359 127.94L57.8142 127.333L60.1238 126L64.4157 126.624L66.5269 127.842L52.2536 136.082L50.1423 134.864ZM58.6047 139.737L60.4583 138.679L72.2437 139.051C73.1887 139.085 73.9519 139.037 74.5334 138.908C75.1215 138.782 75.6171 138.603 76.0202 138.37C76.529 138.076 76.8726 137.748 77.0511 137.386C77.2361 137.019 77.2493 136.653 77.0907 136.287C76.9321 135.921 76.5951 135.589 76.0797 135.291C75.551 134.986 74.953 134.786 74.2856 134.69C73.6314 134.595 72.9838 134.599 72.3428 134.702C71.7019 134.805 71.1468 134.996 70.6776 135.274L68.5564 134.05C69.4816 133.515 70.4992 133.168 71.6093 133.008C72.7327 132.848 73.8561 132.867 74.9794 133.065C76.1094 133.26 77.1469 133.63 78.0918 134.175C78.9905 134.694 79.5919 135.278 79.8958 135.926C80.2064 136.571 80.213 137.216 79.9156 137.861C79.6249 138.509 79.0269 139.095 78.1216 139.617C77.4674 139.995 76.8264 140.266 76.1986 140.43C75.5709 140.594 74.8902 140.689 74.1567 140.716C73.4233 140.743 72.5708 140.739 71.5994 140.705L62.52 140.407L62.8867 139.932L70.2316 144.172L68.2591 145.311L58.6047 139.737ZM77.3269 150.866C76.6198 150.458 76.0879 149.998 75.7311 149.487C75.3808 148.972 75.2255 148.44 75.2652 147.891C75.3114 147.345 75.5692 146.819 76.0383 146.311L78.5956 147.147C78.1727 147.612 78.034 148.078 78.1793 148.543C78.3313 149.005 78.7014 149.401 79.2895 149.733C79.8181 150.031 80.3996 150.225 81.034 150.317C81.6684 150.408 82.2994 150.403 82.9272 150.3C83.5616 150.193 84.1431 149.987 84.6717 149.682C85.4647 149.224 85.8711 148.703 85.8909 148.12C85.9173 147.54 85.5341 147.021 84.7411 146.563C84.5164 146.433 84.2521 146.319 83.9482 146.22C83.6508 146.124 83.3468 146.048 83.0362 145.991L83.7004 144.486L93.1862 144.824L92.8095 145.293L85.8711 141.287L87.8436 140.148L96.4274 145.104L94.4549 146.243L86.2477 146.151L86.9019 145.751C87.8006 146.269 88.3788 146.836 88.6366 147.45C88.9009 148.06 88.8678 148.667 88.5374 149.27C88.2202 149.872 87.6387 150.418 86.7929 150.906C85.881 151.433 84.8568 151.776 83.7202 151.936C82.5902 152.1 81.4635 152.091 80.3402 151.908C79.2234 151.728 78.219 151.381 77.3269 150.866ZM93.9646 160.162L96.4525 158.726L90.0097 155.006L91.9723 153.873L106.434 150.881L108.803 152.248L94.3413 155.241L98.4151 157.593L102.281 155.361L104.382 156.574L100.516 158.806L101.934 159.624L99.9713 160.757L98.5539 159.939L96.0659 161.375L93.9646 160.162ZM112.267 170.728L124.26 163.804L119.939 163.198L122.248 161.864L126.54 162.488L128.652 163.707L114.378 171.947L112.267 170.728ZM120.729 175.602L122.583 174.543L134.368 174.915C135.313 174.95 136.076 174.902 136.658 174.772C137.246 174.646 137.742 174.467 138.145 174.234C138.654 173.941 138.997 173.613 139.176 173.25C139.361 172.884 139.374 172.518 139.215 172.151C139.057 171.785 138.72 171.453 138.204 171.156C137.676 170.851 137.078 170.65 136.41 170.555C135.756 170.46 135.108 170.463 134.467 170.566C133.826 170.669 133.271 170.86 132.802 171.139L130.681 169.914C131.606 169.38 132.624 169.033 133.734 168.873C134.857 168.712 135.981 168.732 137.104 168.93C138.234 169.124 139.271 169.494 140.216 170.04C141.115 170.559 141.716 171.142 142.02 171.791C142.331 172.436 142.338 173.08 142.04 173.725C141.749 174.374 141.151 174.959 140.246 175.482C139.592 175.859 138.951 176.13 138.323 176.294C137.695 176.458 137.015 176.554 136.281 176.58C135.548 176.607 134.695 176.603 133.724 176.569L124.645 176.271L125.011 175.797L132.356 180.037L130.384 181.175L120.729 175.602ZM139.451 186.731C138.744 186.323 138.212 185.863 137.856 185.352C137.505 184.837 137.35 184.305 137.39 183.755C137.436 183.21 137.694 182.683 138.163 182.176L140.72 183.011C140.297 183.477 140.159 183.942 140.304 184.408C140.456 184.869 140.826 185.266 141.414 185.598C141.943 185.895 142.524 186.09 143.159 186.181C143.793 186.273 144.424 186.267 145.052 186.164C145.686 186.057 146.268 185.851 146.796 185.546C147.589 185.088 147.996 184.568 148.016 183.984C148.042 183.404 147.659 182.885 146.866 182.428C146.641 182.298 146.377 182.183 146.073 182.084C145.775 181.989 145.471 181.913 145.161 181.855L145.825 180.35L155.311 180.688L154.934 181.157L147.996 177.152L149.968 176.013L158.552 180.968L156.58 182.107L148.372 182.016L149.027 181.615C149.925 182.134 150.503 182.7 150.761 183.315C151.025 183.925 150.992 184.532 150.662 185.134C150.345 185.737 149.763 186.283 148.917 186.771C148.006 187.297 146.981 187.641 145.845 187.801C144.715 187.965 143.588 187.955 142.465 187.772C141.348 187.593 140.344 187.246 139.451 186.731ZM156.089 196.027L158.577 194.59L152.134 190.871L154.097 189.738L168.559 186.745L170.928 188.113L156.466 191.106L160.54 193.457L164.405 191.226L166.507 192.439L162.641 194.671L164.058 195.489L162.096 196.622L160.678 195.804L158.191 197.24L156.089 196.027ZM174.391 206.593L186.385 199.669L182.063 199.062L184.373 197.729L188.665 198.353L190.776 199.571L176.503 207.811L174.391 206.593ZM182.854 211.467L184.707 210.408L196.493 210.78C197.438 210.814 198.201 210.766 198.783 210.637C199.371 210.511 199.866 210.332 200.269 210.099C200.778 209.805 201.122 209.477 201.3 209.115C201.485 208.748 201.498 208.382 201.34 208.016C201.181 207.65 200.844 207.318 200.329 207.02C199.8 206.715 199.202 206.515 198.535 206.42C197.881 206.324 197.233 206.328 196.592 206.431C195.951 206.534 195.396 206.725 194.927 207.003L192.806 205.779C193.731 205.245 194.748 204.897 195.859 204.737C196.982 204.577 198.105 204.596 199.229 204.794C200.359 204.989 201.396 205.359 202.341 205.905C203.24 206.423 203.841 207.007 204.145 207.656C204.456 208.3 204.462 208.945 204.165 209.59C203.874 210.238 203.276 210.824 202.371 211.346C201.717 211.724 201.076 211.995 200.448 212.159C199.82 212.323 199.139 212.418 198.406 212.445C197.672 212.472 196.82 212.468 195.849 212.434L186.769 212.136L187.136 211.661L194.481 215.901L192.508 217.04L182.854 211.467ZM201.576 222.595C200.869 222.187 200.337 221.727 199.98 221.216C199.63 220.701 199.475 220.169 199.514 219.62C199.561 219.074 199.818 218.548 200.288 218.04L202.845 218.876C202.422 219.341 202.283 219.807 202.429 220.272C202.58 220.734 202.951 221.13 203.539 221.462C204.067 221.76 204.649 221.954 205.283 222.046C205.918 222.137 206.549 222.132 207.176 222.029C207.811 221.922 208.392 221.716 208.921 221.411C209.714 220.953 210.12 220.432 210.14 219.849C210.167 219.269 209.783 218.75 208.99 218.292C208.766 218.162 208.501 218.048 208.197 217.949C207.9 217.853 207.596 217.777 207.285 217.72L207.95 216.215L217.435 216.553L217.059 217.022L210.12 213.016L212.093 211.878L220.677 216.833L218.704 217.972L210.497 217.88L211.151 217.48C212.05 217.998 212.628 218.565 212.886 219.179C213.15 219.789 213.117 220.396 212.787 220.999C212.469 221.602 211.888 222.147 211.042 222.635C210.13 223.162 209.106 223.505 207.969 223.665C206.839 223.829 205.713 223.82 204.589 223.637C203.473 223.457 202.468 223.11 201.576 222.595ZM218.214 231.891L220.702 230.455L214.259 226.735L216.221 225.602L230.683 222.61L233.052 223.977L218.59 226.97L222.664 229.322L226.53 227.09L228.631 228.303L224.766 230.535L226.183 231.353L224.22 232.486L222.803 231.668L220.315 233.104L218.214 231.891ZM236.516 242.457L248.51 235.533L244.188 234.927L246.498 233.593L250.789 234.217L252.901 235.436L238.627 243.676L236.516 242.457ZM244.978 247.331L246.832 246.272L258.617 246.644C259.562 246.679 260.326 246.631 260.907 246.501C261.495 246.375 261.991 246.196 262.394 245.963C262.903 245.67 263.246 245.342 263.425 244.979C263.61 244.613 263.623 244.247 263.464 243.881C263.306 243.514 262.969 243.182 262.453 242.885C261.925 242.58 261.327 242.379 260.659 242.284C260.005 242.189 259.358 242.192 258.717 242.295C258.076 242.398 257.521 242.589 257.051 242.868L254.93 241.643C255.855 241.109 256.873 240.762 257.983 240.602C259.106 240.441 260.23 240.461 261.353 240.659C262.483 240.853 263.521 241.224 264.466 241.769C265.364 242.288 265.966 242.872 266.27 243.52C266.58 244.165 266.587 244.809 266.289 245.454C265.999 246.103 265.401 246.688 264.495 247.211C263.841 247.589 263.2 247.859 262.572 248.023C261.945 248.187 261.264 248.283 260.531 248.31C259.797 248.336 258.945 248.332 257.973 248.298L248.894 248.001L249.26 247.526L256.605 251.766L254.633 252.904L244.978 247.331ZM263.701 258.46C262.994 258.052 262.462 257.592 262.105 257.081C261.755 256.566 261.599 256.034 261.639 255.484C261.685 254.939 261.943 254.412 262.412 253.905L264.969 254.74C264.546 255.206 264.408 255.671 264.553 256.137C264.705 256.598 265.075 256.995 265.663 257.327C266.192 257.624 266.773 257.819 267.408 257.91C268.042 258.002 268.673 257.996 269.301 257.893C269.935 257.786 270.517 257.58 271.045 257.275C271.838 256.818 272.245 256.297 272.265 255.713C272.291 255.133 271.908 254.614 271.115 254.157C270.89 254.027 270.626 253.913 270.322 253.813C270.025 253.718 269.721 253.642 269.41 253.584L270.074 252.08L279.56 252.417L279.183 252.886L272.245 248.881L274.217 247.742L282.801 252.698L280.829 253.836L272.622 253.745L273.276 253.344C274.174 253.863 274.753 254.429 275.01 255.044C275.275 255.654 275.242 256.261 274.911 256.863C274.594 257.466 274.012 258.012 273.167 258.5C272.255 259.026 271.231 259.37 270.094 259.53C268.964 259.694 267.837 259.684 266.714 259.501C265.597 259.322 264.593 258.975 263.701 258.46ZM280.338 267.756L282.826 266.319L276.383 262.6L278.346 261.467L292.808 258.474L295.177 259.842L280.715 262.835L284.789 265.186L288.655 262.955L290.756 264.168L286.89 266.4L288.308 267.218L286.345 268.351L284.928 267.533L282.44 268.969L280.338 267.756Z" fill="white" style="fill:white;fill-opacity:1;"/>
<path d="M82.2396 113.06L92.9446 106.88L94.5206 107.79L91.8369 115.425L99.7913 110.833L101.367 111.743L90.6623 117.923L89.0863 117.013L91.7774 109.374L83.8156 113.97L82.2396 113.06ZM97.5248 122.142C96.6872 121.659 96.1173 121.132 95.8149 120.563C95.5225 119.993 95.5052 119.425 95.7629 118.859C96.0256 118.29 96.5782 117.762 97.4207 117.275L104.178 113.374L105.762 114.28L99.0785 118.138C98.6225 118.401 98.2979 118.677 98.1046 118.966C97.9113 119.255 97.8271 119.541 97.8519 119.825C97.8766 120.108 97.9882 120.375 98.1864 120.627C98.3896 120.882 98.6572 121.105 98.9893 121.297C99.3263 121.491 99.7129 121.646 100.149 121.76C100.595 121.875 101.063 121.939 101.554 121.953C102.045 121.968 102.538 121.918 103.033 121.803C103.534 121.691 104.01 121.506 104.461 121.245L111.144 117.387L112.72 118.297L105.955 122.202C105.117 122.686 104.205 123.003 103.219 123.155C102.233 123.307 101.244 123.297 100.253 123.125C99.2718 122.953 98.3623 122.626 97.5248 122.142ZM104.838 126.106L115.543 119.926L122.382 123.875L120.918 124.72L115.632 121.669L112.629 123.403L117.022 125.939L115.558 126.785L111.164 124.248L107.856 126.158L113.142 129.209L111.677 130.055L104.838 126.106ZM114.355 131.6L125.06 125.42L126.613 126.317L117.373 131.652L122.22 134.45L120.755 135.296L114.355 131.6ZM125.74 138.173L136.445 131.993L138.021 132.903L135.338 140.538L143.292 135.946L144.868 136.856L134.163 143.036L132.587 142.126L135.278 134.487L127.316 139.083L125.74 138.173ZM137.13 144.749L147.835 138.569L149.389 139.466L138.684 145.646L137.13 144.749ZM141.66 147.364L152.365 141.184L159.204 145.132L157.739 145.977L152.454 142.926L149.451 144.66L153.844 147.196L152.38 148.042L147.986 145.505L144.678 147.415L149.963 150.467L148.499 151.312L141.66 147.364ZM151.176 152.858L161.881 146.678L163.435 147.575L154.195 152.909L159.042 155.707L157.577 156.553L151.176 152.858Z" fill="white" style="fill:white;fill-opacity:1;"/>
<path d="M278.712 226.741C277.983 226.321 277.498 225.857 277.255 225.351C277.017 224.841 277.017 224.332 277.255 223.823C277.498 223.316 277.983 222.853 278.712 222.432L282.399 220.304C283.128 219.883 283.931 219.603 284.808 219.462C285.69 219.325 286.57 219.327 287.447 219.467C288.329 219.604 289.134 219.883 289.863 220.304C290.591 220.724 291.075 221.189 291.313 221.698C291.555 222.205 291.555 222.711 291.313 223.218C291.075 223.727 290.591 224.192 289.863 224.612L286.176 226.741C285.447 227.162 284.642 227.441 283.76 227.578C282.882 227.718 282.003 227.72 281.12 227.582C280.243 227.442 279.44 227.162 278.712 226.741ZM280.199 225.883C280.595 226.112 281.049 226.265 281.559 226.342C282.079 226.419 282.597 226.421 283.113 226.346C283.633 226.269 284.094 226.115 284.496 225.883L288.391 223.634C288.787 223.405 289.05 223.142 289.179 222.844C289.313 222.544 289.31 222.245 289.172 221.947C289.043 221.65 288.78 221.387 288.384 221.158C287.987 220.929 287.529 220.776 287.008 220.698C286.498 220.621 285.982 220.621 285.462 220.698C284.947 220.773 284.491 220.925 284.094 221.153L280.199 223.402C279.797 223.634 279.53 223.9 279.396 224.2C279.267 224.498 279.267 224.796 279.396 225.093C279.535 225.391 279.802 225.654 280.199 225.883ZM288.943 232.647C288.249 232.247 287.788 231.792 287.56 231.283C287.337 230.77 287.349 230.254 287.597 229.733C287.85 229.215 288.343 228.745 289.076 228.321L292.489 226.351C293.267 225.902 294.112 225.6 295.024 225.446C295.941 225.294 296.85 225.29 297.752 225.433C298.659 225.579 299.489 225.869 300.242 226.304C300.807 226.63 301.231 226.998 301.514 227.407C301.796 227.816 301.908 228.247 301.848 228.699L299.648 228.656C299.707 228.387 299.66 228.12 299.506 227.854C299.363 227.587 299.117 227.354 298.77 227.154C298.324 226.897 297.826 226.732 297.276 226.66C296.731 226.586 296.191 226.592 295.656 226.678C295.125 226.766 294.664 226.924 294.273 227.15L292.31 228.283L292.347 227.909C293.056 227.855 293.755 227.892 294.444 228.021C295.133 228.15 295.737 228.364 296.258 228.665C296.922 229.048 297.358 229.48 297.566 229.961C297.784 230.441 297.777 230.921 297.544 231.398C297.316 231.879 296.87 232.311 296.206 232.695C295.537 233.081 294.761 233.334 293.879 233.454C293.007 233.574 292.129 233.566 291.247 233.428C290.375 233.291 289.607 233.031 288.943 232.647ZM290.437 231.785C290.823 232.008 291.269 232.157 291.775 232.231C292.28 232.305 292.786 232.305 293.292 232.231C293.797 232.157 294.243 232.008 294.63 231.785C295.016 231.562 295.274 231.304 295.403 231.012C295.537 230.723 295.539 230.433 295.41 230.141C295.281 229.849 295.024 229.592 294.637 229.369C294.251 229.145 293.802 228.995 293.292 228.918C292.786 228.844 292.28 228.844 291.775 228.918C291.269 228.992 290.823 229.141 290.437 229.364C290.055 229.585 289.8 229.841 289.671 230.132C289.542 230.424 289.54 230.718 289.664 231.012C289.793 231.304 290.05 231.562 290.437 231.785ZM308.875 231.537L310.443 232.442L296.884 236.974L295.315 236.069L308.875 231.537ZM302.132 239.995L303.522 239.201L312.361 239.48C313.069 239.506 313.642 239.47 314.078 239.373C314.519 239.279 314.891 239.144 315.193 238.97C315.575 238.749 315.832 238.503 315.966 238.231C316.105 237.957 316.115 237.682 315.996 237.407C315.877 237.133 315.624 236.884 315.238 236.661C314.841 236.432 314.393 236.282 313.892 236.21C313.402 236.138 312.916 236.141 312.435 236.219C311.954 236.296 311.538 236.439 311.186 236.648L309.595 235.729C310.289 235.329 311.052 235.068 311.885 234.948C312.728 234.828 313.57 234.842 314.413 234.991C315.26 235.137 316.038 235.415 316.747 235.824C317.421 236.213 317.872 236.651 318.1 237.137C318.333 237.621 318.338 238.104 318.115 238.588C317.897 239.074 317.448 239.513 316.769 239.905C316.278 240.188 315.798 240.392 315.327 240.515C314.856 240.638 314.346 240.709 313.796 240.729C313.245 240.749 312.606 240.746 311.878 240.721L305.068 240.497L305.343 240.141L310.852 243.321L309.372 244.175L302.132 239.995ZM316.136 248.088L318.001 247.011L313.169 244.222L314.641 243.372L325.488 241.127L327.264 242.153L316.418 244.397L319.473 246.161L322.373 244.488L323.949 245.397L321.049 247.071L322.112 247.685L320.641 248.535L319.577 247.921L317.712 248.998L316.136 248.088Z" fill="white" style="fill:white;fill-opacity:1;"/>
<path d="M241.432 37.815L244.043 39.3228L234.624 44.7605C233.592 45.3566 232.439 45.74 231.168 45.9107C229.9 46.0841 228.607 46.0448 227.289 45.7928C225.975 45.5381 224.731 45.0721 223.558 44.3948C222.38 43.7147 221.57 42.9954 221.129 42.2367C220.692 41.4754 220.624 40.729 220.925 39.9974C221.225 39.2659 221.891 38.6021 222.924 38.006L232.343 32.5683L234.955 34.076L225.754 39.3878C225.153 39.7346 224.75 40.1193 224.543 40.542C224.341 40.9674 224.348 41.3968 224.564 41.8303C224.785 42.2611 225.226 42.6675 225.888 43.0495C226.549 43.4316 227.253 43.6863 228 43.8136C228.755 43.9409 229.499 43.945 230.231 43.8258C230.963 43.7066 231.63 43.4736 232.231 43.1268L241.432 37.815ZM241.236 47.0334L234.9 50.691L232.352 49.2198L243.165 42.9774L245.601 44.3836L243.764 45.4443L243.89 45.5175C244.744 45.3115 245.622 45.2628 246.523 45.3712C247.429 45.4822 248.285 45.7708 249.093 46.2368C249.839 46.6676 250.329 47.135 250.564 47.6389C250.803 48.1456 250.773 48.6617 250.473 49.1873C250.177 49.7157 249.595 50.2277 248.727 50.7235L241.842 54.6982L239.293 53.227L245.784 49.4799C246.507 49.0627 246.885 48.6278 246.917 48.1754C246.955 47.7256 246.645 47.3111 245.988 46.9318C245.542 46.6744 245.047 46.5023 244.503 46.4156C243.968 46.3289 243.419 46.3343 242.855 46.4319C242.297 46.5321 241.757 46.7326 241.236 47.0334ZM260.645 53.0685L258.674 54.2065L252.458 50.6179L254.429 49.4799L260.645 53.0685ZM258.554 48.8703L261.103 50.3415L250.951 56.2019C250.609 56.3997 250.397 56.5812 250.318 56.7465C250.247 56.9118 250.266 57.0635 250.374 57.2017C250.482 57.3399 250.641 57.4699 250.853 57.5919C251.012 57.684 251.169 57.7612 251.324 57.8235C251.484 57.8885 251.608 57.9359 251.697 57.9657L250.135 59.3638C249.952 59.3123 249.705 59.2297 249.395 59.1159C249.09 59.0048 248.752 58.8477 248.382 58.6444C247.725 58.2868 247.246 57.8994 246.946 57.4821C246.65 57.0622 246.577 56.6354 246.727 56.2019C246.882 55.7711 247.3 55.362 247.98 54.9746L258.554 48.8703ZM251.963 60.5414L262.776 54.2989L265.325 55.7701L254.512 62.0126L251.963 60.5414ZM265.592 54.1526C265.189 53.9196 264.975 53.6419 264.952 53.3195C264.933 52.9944 265.114 52.7221 265.494 52.5026C265.879 52.2804 266.35 52.1761 266.909 52.1897C267.472 52.2005 267.955 52.3224 268.359 52.5554C268.767 52.7912 268.978 53.0702 268.993 53.3926C269.016 53.7151 268.835 53.9873 268.45 54.2095C268.07 54.429 267.599 54.5333 267.035 54.5225C266.482 54.5116 266.001 54.3883 265.592 54.1526ZM273.345 60.4001L271.374 61.5381L265.158 57.9495L267.129 56.8115L273.345 60.4001ZM271.254 56.2019L273.802 57.6731L263.651 63.5335C263.308 63.7313 263.097 63.9129 263.017 64.0781C262.947 64.2434 262.966 64.3951 263.074 64.5333C263.182 64.6715 263.341 64.8015 263.552 64.9235C263.712 65.0156 263.869 65.0928 264.024 65.1551C264.184 65.2201 264.308 65.2676 264.397 65.2974L262.834 66.6954C262.651 66.6439 262.405 66.5613 262.095 66.4475C261.79 66.3364 261.452 66.1793 261.082 65.9761C260.424 65.6184 259.946 65.231 259.645 64.8137C259.35 64.3938 259.277 63.967 259.427 63.5335C259.582 63.1027 260 62.6936 260.68 62.3062L271.254 56.2019ZM281.861 61.155L267.444 69.4783L264.895 68.0071L279.313 59.6838L281.861 61.155ZM274.64 73.8766C273.556 73.2508 272.845 72.5802 272.507 71.8649C272.179 71.1496 272.219 70.4303 272.627 69.7069C273.04 68.9808 273.812 68.2912 274.943 67.6383C276.055 66.9961 277.243 66.5545 278.505 66.3134C279.777 66.0722 281.03 66.037 282.264 66.2077C283.503 66.3757 284.639 66.7577 285.672 67.3538C286.338 67.7385 286.859 68.1639 287.234 68.6299C287.619 69.0959 287.816 69.589 287.826 70.1092C287.84 70.6321 287.633 71.1686 287.206 71.7186C286.784 72.2659 286.099 72.8132 285.151 73.3605L284.369 73.8116L275.506 68.6949L277.224 67.7033L283.644 71.4097C284.128 71.1253 284.456 70.8137 284.63 70.475C284.808 70.1336 284.822 69.7922 284.672 69.4508C284.526 69.1122 284.21 68.8019 283.722 68.5202C283.201 68.2194 282.616 68.0284 281.969 67.9471C281.326 67.8631 280.69 67.8753 280.061 67.9837C279.441 68.0921 278.888 68.2845 278.399 68.5608L276.9 69.4265C276.271 69.7895 275.846 70.1675 275.626 70.5603C275.41 70.9505 275.389 71.3339 275.562 71.7105C275.741 72.0844 276.107 72.4312 276.661 72.7509C277.031 72.9649 277.419 73.1288 277.822 73.2426C278.231 73.3537 278.648 73.4133 279.075 73.4215C279.502 73.4296 279.925 73.3781 280.342 73.267L282.454 74.7951C281.675 75.0715 280.84 75.2232 279.948 75.2503C279.066 75.2774 278.169 75.1771 277.259 74.9496C276.353 74.7193 275.48 74.3616 274.64 73.8766ZM285.638 80.2014C284.789 79.711 284.247 79.1461 284.012 78.5066C283.777 77.8672 283.881 77.1953 284.322 76.4909C284.763 75.7864 285.577 75.0915 286.765 74.406C287.966 73.7124 289.177 73.2409 290.397 72.9917C291.627 72.7424 292.791 72.6909 293.889 72.8372C294.992 72.9808 295.959 73.2924 296.789 73.772C297.423 74.1378 297.836 74.5008 298.028 74.8612C298.225 75.2188 298.293 75.5534 298.232 75.865C298.176 76.1739 298.082 76.4421 297.951 76.6697L298.056 76.7306L303.449 73.6175L306.004 75.0928L291.587 83.4161L289.081 81.9692L290.784 80.9857L290.629 80.8963C290.235 80.9722 289.766 81.0237 289.221 81.0508C288.682 81.0751 288.104 81.0291 287.49 80.9126C286.875 80.7961 286.258 80.559 285.638 80.2014ZM288.44 79.4048C288.98 79.7164 289.585 79.8979 290.256 79.9494C290.932 79.9982 291.631 79.9277 292.354 79.7381C293.077 79.5484 293.788 79.2517 294.487 78.848C295.186 78.4443 295.696 78.0366 296.015 77.6247C296.339 77.2156 296.454 76.8187 296.36 76.434C296.271 76.0519 295.951 75.7024 295.402 75.3854C294.834 75.0576 294.213 74.8693 293.537 74.8205C292.861 74.7717 292.166 74.8422 291.453 75.0319C290.74 75.2215 290.047 75.5101 289.376 75.8975C288.7 76.2877 288.194 76.6914 287.856 77.1086C287.527 77.5258 287.4 77.9323 287.476 78.3278C287.56 78.7234 287.881 79.0824 288.44 79.4048ZM295.717 85.9795C295.29 85.7329 295.074 85.4349 295.07 85.0854C295.065 84.7359 295.281 84.4378 295.717 84.1913C296.135 83.9447 296.647 83.8228 297.252 83.8255C297.858 83.8282 298.374 83.9529 298.801 84.1994C299.214 84.4378 299.423 84.7318 299.427 85.0813C299.437 85.4335 299.233 85.7329 298.815 85.9795C298.524 86.142 298.188 86.2491 297.808 86.3005C297.433 86.3547 297.057 86.3547 296.682 86.3005C296.316 86.2464 295.994 86.1393 295.717 85.9795Z" fill="white" style="fill:white;fill-opacity:1;"/>
<g clip-path="url(#clip1_12_21959)">
<path d="M569.838 223.891C568.132 227.566 564.78 230.917 560.12 233.608C555.459 236.299 549.654 238.233 543.287 239.218M561.076 222.205C559.745 225.072 557.131 227.686 553.496 229.784C549.861 231.883 545.333 233.392 540.367 234.16M552.819 220.534C551.833 222.621 549.915 224.527 547.258 226.061C544.602 227.594 541.3 228.701 537.685 229.271M544.349 218.986C543.863 220.36 542.709 221.606 541.02 222.582C539.33 223.557 537.172 224.223 534.791 224.504" stroke="white" style="stroke:white;stroke-opacity:1;" stroke-width="3.67882" stroke-linecap="round"/>
</g>
</g>
<path d="M211.396 15.1232C224.74 7.41995 246.374 7.41994 259.717 15.1232L601.683 212.54C615.027 220.243 615.027 232.733 601.683 240.436L415.832 347.728C402.489 355.431 380.854 355.431 367.511 347.728L25.5449 150.311C12.2014 142.608 12.2014 130.118 25.545 122.415L211.396 15.1232Z" stroke="url(#paint1_linear_12_21959)" stroke-opacity="0.3" style="" stroke-width="1.43065"/>
</g>
<defs>
<filter id="filter0_d_12_21959" x="-11.2999" y="-8.12395" width="672.718" height="407.712" filterUnits="userSpaceOnUse" color-interpolation-filters="sRGB">
<feFlood flood-opacity="0" result="BackgroundImageFix"/>
<feColorMatrix in="SourceAlpha" type="matrix" values="0 0 0 0 0 0 0 0 0 0 0 0 0 0 0 0 0 0 127 0" result="hardAlpha"/>
<feOffset dx="11.4452" dy="14.3065"/>
<feGaussianBlur stdDeviation="11.4452"/>
<feColorMatrix type="matrix" values="0 0 0 0 0 0 0 0 0 0 0 0 0 0 0 0 0 0 0.05 0"/>
<feBlend mode="normal" in2="BackgroundImageFix" result="effect1_dropShadow_12_21959"/>
<feBlend mode="normal" in="SourceGraphic" in2="effect1_dropShadow_12_21959" result="shape"/>
</filter>
<linearGradient id="paint0_linear_12_21959" x1="0.140674" y1="136.359" x2="495.957" y2="-77.5074" gradientUnits="userSpaceOnUse">
<stop stop-color="#101828" style="stop-color:#101828;stop-color:color(display-p3 0.0626 0.0926 0.1570);stop-opacity:1;"/>
<stop offset="1" stop-color="#475467" style="stop-color:#475467;stop-color:color(display-p3 0.2798 0.3309 0.4026);stop-opacity:1;"/>
</linearGradient>
<linearGradient id="paint1_linear_12_21959" x1="225.616" y1="6.19866" x2="274.865" y2="377.869" gradientUnits="userSpaceOnUse">
<stop stop-color="white" style="stop-color:white;stop-opacity:1;"/>
<stop offset="1" stop-color="white" stop-opacity="0.2" style="stop-color:white;stop-opacity:0.2;"/>
</linearGradient>
<clipPath id="clip0_12_21959">
<path d="M210.776 14.7655C224.462 6.86479 246.651 6.86479 260.337 14.7655L602.303 212.182C615.988 220.083 615.988 232.893 602.303 240.794L416.452 348.085C402.766 355.986 380.577 355.986 366.891 348.085L24.9254 150.668C11.2397 142.768 11.2398 129.958 24.9255 122.057L210.776 14.7655Z" fill="white" style="fill:white;fill-opacity:1;"/>
</clipPath>
<clipPath id="clip1_12_21959">
<rect width="28.613" height="34.3356" fill="white" style="fill:white;fill-opacity:1;" transform="matrix(0.866044 0.499967 -0.866044 0.499967 552.668 212.14)"/>
</clipPath>
</defs>
</svg>
