<svg width="647" height="401" viewBox="0 0 647 401" fill="none" xmlns="http://www.w3.org/2000/svg">
<g filter="url(#filter0_bd_12_22061)">
<g clip-path="url(#clip0_12_22061)">
<path d="M210.776 23.83C224.462 15.9292 246.651 15.9292 260.337 23.83L602.303 221.247C615.988 229.148 615.988 241.957 602.303 249.858L416.452 357.15C402.766 365.051 380.577 365.051 366.891 357.15L24.9254 159.733C11.2397 151.832 11.2398 139.023 24.9255 131.122L210.776 23.83Z" fill="url(#paint0_linear_12_22061)" style=""/>
<g filter="url(#filter1_f_12_22061)">
<path opacity="0.3" d="M136.436 43.8578C191.179 12.2548 279.934 12.2548 334.677 43.8578L235.557 101.08L136.436 43.8578Z" fill="#EE46BC" style="fill:#EE46BC;fill:color(display-p3 0.9327 0.2752 0.7354);fill-opacity:1;"/>
<path opacity="0.3" d="M334.677 43.8577C389.42 75.4607 389.42 126.699 334.677 158.302L235.556 101.08L334.677 43.8577Z" fill="#EF6820" style="fill:#EF6820;fill:color(display-p3 0.9391 0.4091 0.1237);fill-opacity:1;"/>
<path opacity="0.3" d="M136.436 43.8577L235.557 101.08L136.436 158.302C81.6935 126.699 81.6935 75.4607 136.436 43.8577Z" fill="#2E90FA" style="fill:#2E90FA;fill:color(display-p3 0.1804 0.5647 0.9804);fill-opacity:1;"/>
<path opacity="0.3" d="M235.557 101.08L334.677 158.302C279.934 189.905 191.179 189.905 136.436 158.302L235.557 101.08Z" fill="#17B26A" style="fill:#17B26A;fill:color(display-p3 0.0906 0.6976 0.4143);fill-opacity:1;"/>
</g>
<path d="M370.608 296.351C373.346 294.771 377.783 294.771 380.52 296.351L426.777 323.055C429.514 324.635 429.514 327.197 426.777 328.777L397.041 345.944C394.303 347.524 389.866 347.524 387.129 345.944L340.872 319.24C338.135 317.66 338.135 315.098 340.872 313.518L370.608 296.351Z" fill="white" fill-opacity="0.1" style="fill:white;fill-opacity:0.1;"/>
<path fill-rule="evenodd" clip-rule="evenodd" d="M367.126 318.867L363.724 316.903L371.193 309.645C371.533 309.308 371.683 308.925 371.497 308.596C371.035 307.772 370.379 306.95 369.438 306.183L369.824 305.96L375.306 309.124C376.062 309.561 376.05 310.223 375.471 310.666L369.567 315.604L381.449 312.671L384.757 314.581L367.126 318.867ZM374.121 322.905L370.907 321.05L386.081 315.345L389.295 317.2L374.121 322.905ZM389.982 321.604C390.751 321.269 391.704 321.374 392.366 321.756C393.504 322.3 394.443 323.066 394.908 323.89L398.172 322.66C397.612 321.892 396.766 321.179 395.822 320.634C392.703 318.834 388.698 318.525 386.29 319.916C384.458 320.973 385.103 322.457 385.658 323.447C386.308 324.489 386.395 324.985 385.723 325.264C384.856 325.764 383.525 325.441 382.581 324.896C381.446 324.241 380.6 323.419 380.044 322.541L376.778 323.771C377.431 324.704 378.465 325.525 379.6 326.18C383.002 328.254 386.909 328.507 389.511 327.005C392.788 325.114 388.537 322.438 389.982 321.604ZM396.614 335.89L406.591 327.185L403.85 325.603C403.282 325.275 402.329 325.17 401.562 325.395L385.273 329.343L388.581 331.253L391.072 330.577L395.137 332.924L393.685 334.199L396.614 335.89ZM400.949 327.823L397.171 331.094L394.525 329.566L400.949 327.823Z" fill="#172B85" style="fill:#172B85;fill:color(display-p3 0.0902 0.1686 0.5216);fill-opacity:1;"/>
<path d="M50.1423 143.928L62.1359 137.004L57.8142 136.398L60.1238 135.064L64.4157 135.688L66.5269 136.907L52.2536 145.147L50.1423 143.928ZM58.6047 148.802L60.4583 147.743L72.2437 148.115C73.1887 148.15 73.9519 148.102 74.5334 147.972C75.1215 147.846 75.6171 147.667 76.0202 147.434C76.529 147.141 76.8726 146.812 77.0511 146.45C77.2361 146.084 77.2493 145.718 77.0907 145.351C76.9321 144.985 76.5951 144.653 76.0797 144.356C75.551 144.051 74.953 143.85 74.2856 143.755C73.6314 143.66 72.9838 143.663 72.3428 143.766C71.7019 143.869 71.1468 144.06 70.6776 144.339L68.5564 143.114C69.4816 142.58 70.4992 142.233 71.6093 142.073C72.7327 141.912 73.8561 141.931 74.9794 142.13C76.1094 142.324 77.1469 142.694 78.0918 143.24C78.9905 143.759 79.5919 144.342 79.8958 144.991C80.2064 145.636 80.213 146.28 79.9156 146.925C79.6249 147.574 79.0269 148.159 78.1216 148.682C77.4674 149.059 76.8264 149.33 76.1986 149.494C75.5709 149.658 74.8902 149.754 74.1567 149.78C73.4233 149.807 72.5708 149.803 71.5994 149.769L62.52 149.471L62.8867 148.996L70.2316 153.237L68.2591 154.375L58.6047 148.802ZM77.3269 159.931C76.6198 159.522 76.0879 159.063 75.7311 158.552C75.3808 158.037 75.2255 157.504 75.2652 156.955C75.3114 156.41 75.5692 155.883 76.0383 155.376L78.5956 156.211C78.1727 156.677 78.034 157.142 78.1793 157.607C78.3313 158.069 78.7014 158.466 79.2895 158.798C79.8181 159.095 80.3996 159.29 81.034 159.381C81.6684 159.473 82.2994 159.467 82.9272 159.364C83.5616 159.257 84.1431 159.051 84.6717 158.746C85.4647 158.288 85.8711 157.768 85.8909 157.184C85.9173 156.604 85.5341 156.085 84.7411 155.628C84.5164 155.498 84.2521 155.383 83.9482 155.284C83.6508 155.189 83.3468 155.113 83.0362 155.055L83.7004 153.55L93.1862 153.888L92.8095 154.357L85.8711 150.352L87.8436 149.213L96.4274 154.168L94.4549 155.307L86.2477 155.216L86.9019 154.815C87.8006 155.334 88.3788 155.9 88.6366 156.515C88.9009 157.125 88.8678 157.731 88.5374 158.334C88.2202 158.937 87.6387 159.482 86.7929 159.971C85.881 160.497 84.8568 160.841 83.7202 161.001C82.5902 161.165 81.4635 161.155 80.3402 160.972C79.2234 160.793 78.219 160.446 77.3269 159.931ZM93.9646 169.227L96.4525 167.79L90.0097 164.071L91.9723 162.938L106.434 159.945L108.803 161.313L94.3413 164.306L98.4151 166.657L102.281 164.426L104.382 165.639L100.516 167.87L101.934 168.689L99.9713 169.822L98.5539 169.003L96.0659 170.44L93.9646 169.227ZM112.267 179.793L124.26 172.869L119.939 172.262L122.248 170.929L126.54 171.553L128.652 172.771L114.378 181.011L112.267 179.793ZM120.729 184.666L122.583 183.608L134.368 183.98C135.313 184.014 136.076 183.966 136.658 183.837C137.246 183.711 137.742 183.532 138.145 183.299C138.654 183.005 138.997 182.677 139.176 182.315C139.361 181.948 139.374 181.582 139.215 181.216C139.057 180.85 138.72 180.518 138.204 180.22C137.676 179.915 137.078 179.715 136.41 179.619C135.756 179.524 135.108 179.528 134.467 179.631C133.826 179.734 133.271 179.925 132.802 180.203L130.681 178.979C131.606 178.444 132.624 178.097 133.734 177.937C134.857 177.777 135.981 177.796 137.104 177.994C138.234 178.189 139.271 178.559 140.216 179.104C141.115 179.623 141.716 180.207 142.02 180.855C142.331 181.5 142.338 182.145 142.04 182.79C141.749 183.438 141.151 184.024 140.246 184.546C139.592 184.924 138.951 185.195 138.323 185.359C137.695 185.523 137.015 185.618 136.281 185.645C135.548 185.672 134.695 185.668 133.724 185.634L124.645 185.336L125.011 184.861L132.356 189.101L130.384 190.24L120.729 184.666ZM139.451 195.795C138.744 195.387 138.212 194.927 137.856 194.416C137.505 193.901 137.35 193.369 137.39 192.82C137.436 192.274 137.694 191.748 138.163 191.24L140.72 192.076C140.297 192.541 140.159 193.007 140.304 193.472C140.456 193.934 140.826 194.33 141.414 194.662C141.943 194.96 142.524 195.154 143.159 195.246C143.793 195.337 144.424 195.332 145.052 195.229C145.686 195.122 146.268 194.916 146.796 194.611C147.589 194.153 147.996 193.632 148.016 193.049C148.042 192.469 147.659 191.95 146.866 191.492C146.641 191.362 146.377 191.248 146.073 191.149C145.775 191.053 145.471 190.977 145.161 190.92L145.825 189.415L155.311 189.753L154.934 190.222L147.996 186.216L149.968 185.077L158.552 190.033L156.58 191.172L148.372 191.08L149.027 190.68C149.925 191.198 150.503 191.765 150.761 192.379C151.025 192.989 150.992 193.596 150.662 194.199C150.345 194.801 149.763 195.347 148.917 195.835C148.006 196.362 146.981 196.705 145.845 196.865C144.715 197.029 143.588 197.02 142.465 196.837C141.348 196.657 140.344 196.31 139.451 195.795ZM156.089 205.091L158.577 203.655L152.134 199.935L154.097 198.802L168.559 195.81L170.928 197.177L156.466 200.17L160.54 202.522L164.405 200.29L166.507 201.503L162.641 203.735L164.058 204.553L162.096 205.686L160.678 204.868L158.191 206.304L156.089 205.091ZM174.391 215.657L186.385 208.733L182.063 208.127L184.373 206.793L188.665 207.417L190.776 208.636L176.503 216.876L174.391 215.657ZM182.854 220.531L184.707 219.472L196.493 219.844C197.438 219.879 198.201 219.831 198.783 219.701C199.371 219.575 199.866 219.396 200.269 219.163C200.778 218.87 201.122 218.542 201.3 218.179C201.485 217.813 201.498 217.447 201.34 217.08C201.181 216.714 200.844 216.382 200.329 216.085C199.8 215.78 199.202 215.579 198.535 215.484C197.881 215.389 197.233 215.392 196.592 215.495C195.951 215.598 195.396 215.789 194.927 216.068L192.806 214.843C193.731 214.309 194.748 213.962 195.859 213.802C196.982 213.641 198.105 213.66 199.229 213.859C200.359 214.053 201.396 214.423 202.341 214.969C203.24 215.488 203.841 216.071 204.145 216.72C204.456 217.365 204.462 218.009 204.165 218.654C203.874 219.303 203.276 219.888 202.371 220.411C201.717 220.788 201.076 221.059 200.448 221.223C199.82 221.387 199.139 221.483 198.406 221.509C197.672 221.536 196.82 221.532 195.849 221.498L186.769 221.2L187.136 220.726L194.481 224.966L192.508 226.104L182.854 220.531ZM201.576 231.66C200.869 231.252 200.337 230.792 199.98 230.281C199.63 229.766 199.475 229.233 199.514 228.684C199.561 228.139 199.818 227.612 200.288 227.105L202.845 227.94C202.422 228.406 202.283 228.871 202.429 229.337C202.58 229.798 202.951 230.195 203.539 230.527C204.067 230.824 204.649 231.019 205.283 231.11C205.918 231.202 206.549 231.196 207.176 231.093C207.811 230.986 208.392 230.78 208.921 230.475C209.714 230.017 210.12 229.497 210.14 228.913C210.167 228.333 209.783 227.814 208.99 227.357C208.766 227.227 208.501 227.112 208.197 227.013C207.9 226.918 207.596 226.842 207.285 226.784L207.95 225.279L217.435 225.617L217.059 226.086L210.12 222.081L212.093 220.942L220.677 225.897L218.704 227.036L210.497 226.945L211.151 226.544C212.05 227.063 212.628 227.629 212.886 228.244C213.15 228.854 213.117 229.46 212.787 230.063C212.469 230.666 211.888 231.211 211.042 231.7C210.13 232.226 209.106 232.57 207.969 232.73C206.839 232.894 205.713 232.884 204.589 232.701C203.473 232.522 202.468 232.175 201.576 231.66ZM218.214 240.956L220.702 239.519L214.259 235.8L216.221 234.667L230.683 231.674L233.052 233.042L218.59 236.035L222.664 238.386L226.53 236.155L228.631 237.368L224.766 239.599L226.183 240.418L224.22 241.551L222.803 240.732L220.315 242.169L218.214 240.956ZM236.516 251.522L248.51 244.598L244.188 243.991L246.498 242.658L250.789 243.282L252.901 244.5L238.627 252.74L236.516 251.522ZM244.978 256.395L246.832 255.337L258.617 255.709C259.562 255.743 260.326 255.695 260.907 255.566C261.495 255.44 261.991 255.261 262.394 255.028C262.903 254.734 263.246 254.406 263.425 254.044C263.61 253.677 263.623 253.311 263.464 252.945C263.306 252.579 262.969 252.247 262.453 251.949C261.925 251.644 261.327 251.444 260.659 251.348C260.005 251.253 259.358 251.257 258.717 251.36C258.076 251.463 257.521 251.654 257.051 251.932L254.93 250.708C255.855 250.174 256.873 249.826 257.983 249.666C259.106 249.506 260.23 249.525 261.353 249.723C262.483 249.918 263.521 250.288 264.466 250.833C265.364 251.352 265.966 251.936 266.27 252.584C266.58 253.229 266.587 253.874 266.289 254.519C265.999 255.167 265.401 255.753 264.495 256.275C263.841 256.653 263.2 256.924 262.572 257.088C261.945 257.252 261.264 257.347 260.531 257.374C259.797 257.401 258.945 257.397 257.973 257.363L248.894 257.065L249.26 256.59L256.605 260.83L254.633 261.969L244.978 256.395ZM263.701 267.524C262.994 267.116 262.462 266.656 262.105 266.145C261.755 265.63 261.599 265.098 261.639 264.549C261.685 264.003 261.943 263.477 262.412 262.969L264.969 263.805C264.546 264.27 264.408 264.736 264.553 265.201C264.705 265.663 265.075 266.059 265.663 266.391C266.192 266.689 266.773 266.883 267.408 266.975C268.042 267.066 268.673 267.061 269.301 266.958C269.935 266.851 270.517 266.645 271.045 266.34C271.838 265.882 272.245 265.361 272.265 264.778C272.291 264.198 271.908 263.679 271.115 263.221C270.89 263.091 270.626 262.977 270.322 262.878C270.025 262.782 269.721 262.706 269.41 262.649L270.074 261.144L279.56 261.482L279.183 261.951L272.245 257.945L274.217 256.807L282.801 261.762L280.829 262.901L272.622 262.809L273.276 262.409C274.174 262.927 274.753 263.494 275.01 264.108C275.275 264.718 275.242 265.325 274.911 265.928C274.594 266.53 274.012 267.076 273.167 267.564C272.255 268.091 271.231 268.434 270.094 268.594C268.964 268.758 267.837 268.749 266.714 268.566C265.597 268.386 264.593 268.039 263.701 267.524ZM280.338 276.82L282.826 275.384L276.383 271.664L278.346 270.531L292.808 267.539L295.177 268.906L280.715 271.899L284.789 274.251L288.655 272.019L290.756 273.232L286.89 275.464L288.308 276.282L286.345 277.415L284.928 276.597L282.44 278.033L280.338 276.82Z" fill="white" style="fill:white;fill-opacity:1;"/>
<path d="M85.8971 124.494C85.1289 124.05 84.5664 123.574 84.2096 123.065C83.8627 122.556 83.7338 122.043 83.823 121.528C83.9221 121.013 84.2517 120.526 84.8117 120.065L86.6777 120.859C86.187 121.331 86.0185 121.823 86.1722 122.335C86.3308 122.844 86.757 123.299 87.4508 123.7C87.882 123.949 88.3454 124.139 88.841 124.271C89.3416 124.399 89.8272 124.454 90.2981 124.434C90.7788 124.414 91.1976 124.301 91.5544 124.095C91.7477 123.983 91.884 123.864 91.9633 123.739C92.0475 123.616 92.0847 123.488 92.0748 123.357C92.0748 123.225 92.0302 123.088 91.941 122.945C91.8617 122.802 91.7527 122.656 91.6139 122.507L89.681 120.455C89.4927 120.255 89.3217 120.039 89.1681 119.807C89.0194 119.573 88.9302 119.33 88.9005 119.078C88.8806 118.826 88.95 118.571 89.1086 118.314C89.2722 118.054 89.572 117.797 90.0081 117.546C90.6673 117.165 91.3934 116.941 92.1863 116.872C92.9892 116.803 93.797 116.869 94.6098 117.069C95.4276 117.267 96.1957 117.573 96.9144 117.988C97.628 118.411 98.1459 118.859 98.4681 119.331C98.7952 119.806 98.9141 120.287 98.8249 120.773C98.7456 121.259 98.4483 121.734 97.9328 122.198L95.9851 121.4C96.3122 121.125 96.4981 120.835 96.5427 120.528C96.5922 120.219 96.5179 119.919 96.3196 119.627C96.1264 119.332 95.8265 119.065 95.4201 118.825C95.0336 118.59 94.6098 118.414 94.1489 118.297C93.6929 118.182 93.2494 118.135 92.8182 118.155C92.392 118.178 92.0277 118.277 91.7254 118.451C91.428 118.623 91.2744 118.812 91.2645 119.018C91.2546 119.224 91.3215 119.431 91.4652 119.64C91.6189 119.849 91.7874 120.046 91.9707 120.232L93.3906 121.696C93.569 121.879 93.7549 122.095 93.9482 122.344C94.1514 122.593 94.2951 122.862 94.3794 123.151C94.4686 123.442 94.4364 123.744 94.2827 124.056C94.134 124.365 93.7995 124.67 93.2791 124.97C92.7389 125.282 92.1541 125.494 91.5247 125.605C90.9002 125.714 90.2584 125.738 89.5993 125.678C88.95 125.618 88.3082 125.485 87.6739 125.279C87.0395 125.073 86.4472 124.811 85.8971 124.494ZM91.808 127.649L105.992 123.477L108.23 124.769L101.004 132.958L99.3907 132.026L105.955 124.537L106.356 124.769L93.4212 128.58L91.808 127.649ZM96.0305 127.297L97.4876 126.456L103.078 129.683L101.621 130.524L96.0305 127.297ZM106.946 136.646C106.228 136.231 105.69 135.777 105.333 135.285C104.981 134.79 104.823 134.275 104.857 133.74C104.892 133.205 105.13 132.667 105.571 132.126C106.012 131.586 106.671 131.062 107.548 130.556C108.703 129.889 109.905 129.438 111.154 129.204C112.408 128.966 113.632 128.935 114.826 129.109C116.026 129.281 117.114 129.649 118.09 130.212C119.349 130.939 120.06 131.687 120.223 132.457C120.392 133.229 120.097 133.992 119.339 134.744L117.48 133.998C117.902 133.503 118.06 133.005 117.956 132.504C117.852 132.003 117.436 131.54 116.707 131.114C115.954 130.673 115.153 130.405 114.306 130.311C113.463 130.22 112.606 130.28 111.734 130.491C110.866 130.7 110.021 131.039 109.199 131.508C108.376 131.978 107.784 132.463 107.422 132.963C107.065 133.461 106.969 133.955 107.132 134.444C107.301 134.936 107.762 135.402 108.515 135.843C109.115 136.201 109.749 136.438 110.418 136.555C111.097 136.673 111.793 136.674 112.507 136.56C113.221 136.445 113.947 136.218 114.685 135.877L112.604 134.676L113.852 133.955L117.584 136.109C117.505 136.166 117.394 136.239 117.25 136.328C117.111 136.414 117.022 136.468 116.982 136.491C115.991 137.063 114.916 137.464 113.756 137.693C112.596 137.922 111.429 137.955 110.254 137.791C109.085 137.626 107.982 137.244 106.946 136.646ZM114.279 140.621L124.984 134.441L131.823 138.389L130.358 139.235L125.073 136.183L122.069 137.917L126.463 140.454L124.998 141.299L120.605 138.763L117.297 140.673L122.582 143.724L121.118 144.569L114.279 140.621Z" fill="white" style="fill:white;fill-opacity:1;"/>
<path d="M278.712 235.806C277.983 235.385 277.498 234.922 277.255 234.415C277.017 233.906 277.017 233.397 277.255 232.887C277.498 232.381 277.983 231.917 278.712 231.497L282.399 229.368C283.128 228.948 283.931 228.667 284.808 228.527C285.69 228.39 286.57 228.391 287.447 228.531C288.329 228.669 289.134 228.948 289.863 229.368C290.591 229.789 291.075 230.254 291.313 230.763C291.555 231.269 291.555 231.776 291.313 232.282C291.075 232.791 290.591 233.256 289.863 233.677L286.176 235.806C285.447 236.226 284.642 236.505 283.76 236.642C282.882 236.783 282.003 236.784 281.12 236.647C280.243 236.507 279.44 236.226 278.712 235.806ZM280.199 234.947C280.595 235.176 281.049 235.329 281.559 235.406C282.079 235.484 282.597 235.485 283.113 235.411C283.633 235.334 284.094 235.179 284.496 234.947L288.391 232.698C288.787 232.47 289.05 232.206 289.179 231.909C289.313 231.608 289.31 231.309 289.172 231.012C289.043 230.714 288.78 230.451 288.384 230.222C287.987 229.993 287.529 229.84 287.008 229.763C286.498 229.686 285.982 229.686 285.462 229.763C284.947 229.837 284.491 229.989 284.094 230.218L280.199 232.467C279.797 232.698 279.53 232.965 279.396 233.265C279.267 233.562 279.267 233.86 279.396 234.158C279.535 234.455 279.802 234.718 280.199 234.947ZM288.943 241.712C288.249 241.311 287.788 240.856 287.56 240.347C287.337 239.835 287.349 239.318 287.597 238.798C287.85 238.28 288.343 237.809 289.076 237.386L292.489 235.416C293.267 234.967 294.112 234.665 295.024 234.51C295.941 234.359 296.85 234.354 297.752 234.498C298.659 234.643 299.489 234.934 300.242 235.369C300.807 235.695 301.231 236.063 301.514 236.472C301.796 236.881 301.908 237.311 301.848 237.763L299.648 237.721C299.707 237.452 299.66 237.184 299.506 236.918C299.363 236.652 299.117 236.419 298.77 236.218C298.324 235.961 297.826 235.796 297.276 235.725C296.731 235.651 296.191 235.656 295.656 235.742C295.125 235.831 294.664 235.988 294.273 236.214L292.31 237.347L292.347 236.974C293.056 236.919 293.755 236.957 294.444 237.085C295.133 237.214 295.737 237.429 296.258 237.729C296.922 238.113 297.358 238.545 297.566 239.025C297.784 239.506 297.777 239.985 297.544 240.463C297.316 240.944 296.87 241.376 296.206 241.759C295.537 242.145 294.761 242.398 293.879 242.519C293.007 242.639 292.129 242.63 291.247 242.493C290.375 242.356 289.607 242.095 288.943 241.712ZM290.437 240.849C290.823 241.072 291.269 241.221 291.775 241.296C292.28 241.37 292.786 241.37 293.292 241.296C293.797 241.221 294.243 241.072 294.63 240.849C295.016 240.626 295.274 240.369 295.403 240.077C295.537 239.788 295.539 239.497 295.41 239.205C295.281 238.914 295.024 238.656 294.637 238.433C294.251 238.21 293.802 238.06 293.292 237.982C292.786 237.908 292.28 237.908 291.775 237.982C291.269 238.057 290.823 238.206 290.437 238.429C290.055 238.649 289.8 238.905 289.671 239.197C289.542 239.489 289.54 239.782 289.664 240.077C289.793 240.369 290.05 240.626 290.437 240.849ZM308.875 240.601L310.443 241.507L296.884 246.039L295.315 245.133L308.875 240.601ZM302.132 249.06L303.522 248.266L312.361 248.545C313.069 248.57 313.642 248.535 314.078 248.437C314.519 248.343 314.891 248.209 315.193 248.034C315.575 247.814 315.832 247.568 315.966 247.296C316.105 247.021 316.115 246.746 315.996 246.472C315.877 246.197 315.624 245.948 315.238 245.725C314.841 245.496 314.393 245.346 313.892 245.274C313.402 245.203 312.916 245.206 312.435 245.283C311.954 245.36 311.538 245.503 311.186 245.712L309.595 244.794C310.289 244.393 311.052 244.133 311.885 244.013C312.728 243.893 313.57 243.907 314.413 244.056C315.26 244.202 316.038 244.479 316.747 244.888C317.421 245.277 317.872 245.715 318.1 246.201C318.333 246.685 318.338 247.169 318.115 247.652C317.897 248.138 317.448 248.578 316.769 248.97C316.278 249.253 315.798 249.456 315.327 249.579C314.856 249.702 314.346 249.774 313.796 249.794C313.245 249.814 312.606 249.811 311.878 249.785L305.068 249.562L305.343 249.206L310.852 252.386L309.372 253.24L302.132 249.06ZM316.136 257.153L318.001 256.076L313.169 253.286L314.641 252.436L325.488 250.192L327.264 251.217L316.418 253.462L319.473 255.226L322.373 253.552L323.949 254.462L321.049 256.136L322.112 256.749L320.641 257.599L319.577 256.985L317.712 258.063L316.136 257.153Z" fill="white" style="fill:white;fill-opacity:1;"/>
<path d="M219.777 51.0248L216.989 49.4154L236.483 44.0224L239.707 45.8838L230.372 57.1413L227.584 55.5319L235.194 46.6925L235.082 46.6275L219.777 51.0248ZM225.522 47.8142L233.125 52.2034L231.027 53.4145L223.424 49.0253L225.522 47.8142ZM248.313 55.0137L246.342 56.1517L239.95 52.4615L241.921 51.3235L248.313 55.0137ZM232.706 58.4885L244.54 51.6568C245.267 51.2368 246.023 50.974 246.807 50.8684C247.595 50.7654 248.365 50.7925 249.116 50.9496C249.867 51.1068 250.554 51.3655 251.178 51.7259C251.619 51.9806 251.976 52.2271 252.248 52.4655C252.521 52.704 252.711 52.8869 252.819 53.0142L250.341 53.8595C250.265 53.7782 250.162 53.6807 250.031 53.5669C249.904 53.4504 249.74 53.3339 249.538 53.2174C249.064 52.9437 248.613 52.8164 248.186 52.8354C247.769 52.8543 247.349 52.9857 246.926 53.2296L235.261 59.9638L232.706 58.4885ZM239.496 62.4083L250.309 56.1659L252.78 57.5924L250.978 58.6328L251.09 58.6978C251.912 58.4513 252.731 58.3686 253.547 58.4499C254.373 58.5312 255.096 58.7506 255.715 59.1083C255.856 59.1896 256.006 59.2844 256.166 59.3928C256.335 59.5011 256.466 59.596 256.56 59.6773L254.216 61.0306C254.146 60.9466 254.007 60.8287 253.801 60.677C253.603 60.5253 253.397 60.3871 253.181 60.2625C252.716 59.9943 252.198 59.8114 251.625 59.7138C251.062 59.6163 250.499 59.6082 249.936 59.6894C249.373 59.7707 248.861 59.9441 248.401 60.2097L242.044 63.8795L239.496 62.4083ZM247.356 66.9459L258.169 60.7034L260.717 62.1746L249.904 68.4171L247.356 66.9459ZM260.985 60.5571C260.581 60.3241 260.368 60.0464 260.344 59.724C260.325 59.3989 260.506 59.1266 260.886 58.9071C261.271 58.6849 261.743 58.5806 262.301 58.5942C262.864 58.605 263.348 58.7269 263.751 58.9599C264.16 59.1957 264.371 59.4747 264.385 59.7971C264.408 60.1196 264.228 60.3919 263.843 60.614C263.463 60.8335 262.991 60.9378 262.428 60.927C261.874 60.9161 261.393 60.7928 260.985 60.5571ZM248.47 72.2708L263.338 63.6875L265.844 65.1343L264.056 66.1666L264.204 66.2519C264.598 66.1761 265.063 66.1219 265.598 66.0894C266.137 66.0541 266.717 66.0934 267.336 66.2072C267.961 66.3183 268.589 66.5567 269.223 66.9225C270.058 67.4048 270.598 67.9629 270.842 68.5969C271.096 69.2309 271.004 69.9015 270.568 70.6086C270.141 71.3158 269.326 72.0162 268.125 72.7098C266.937 73.3952 265.734 73.8653 264.513 74.12C263.293 74.3747 262.129 74.4343 261.022 74.2988C259.914 74.1633 258.936 73.8504 258.086 73.36C257.467 73.0024 257.056 72.6461 256.854 72.2912C256.652 71.9362 256.573 71.603 256.615 71.2914C256.666 70.9798 256.756 70.7089 256.882 70.4786L256.777 70.4176L251.018 73.742L248.47 72.2708ZM260.43 68.2515C259.731 68.6552 259.217 69.0656 258.889 69.4829C258.565 69.9028 258.443 70.3065 258.523 70.694C258.612 71.0814 258.926 71.4309 259.466 71.7425C260.029 72.0676 260.651 72.2532 261.331 72.2993C262.017 72.3426 262.718 72.2681 263.436 72.0758C264.164 71.8834 264.865 71.5921 265.541 71.202C266.212 70.8145 266.712 70.4149 267.041 70.0031C267.369 69.5913 267.491 69.1903 267.407 68.8001C267.322 68.41 266.996 68.051 266.428 67.7231C265.884 67.4088 265.278 67.2246 264.612 67.1704C263.946 67.1162 263.256 67.1812 262.542 67.3655C261.834 67.5524 261.13 67.8478 260.43 68.2515ZM267.808 79.005C267.123 78.6095 266.628 78.1827 266.323 77.7248C266.027 77.2669 265.961 76.8064 266.126 76.343C266.295 75.8825 266.733 75.4476 267.442 75.0385C268.052 74.6863 268.669 74.46 269.293 74.3598C269.918 74.2595 270.544 74.2528 271.173 74.3395C271.802 74.4262 272.421 74.5752 273.032 74.7865C273.651 74.9978 274.252 75.239 274.834 75.5099C275.533 75.8377 276.106 76.1006 276.552 76.2983C277.002 76.4934 277.373 76.6099 277.664 76.6479C277.964 76.6858 278.236 76.6343 278.48 76.4934L278.523 76.469C279.053 76.1629 279.306 75.835 279.283 75.4855C279.259 75.136 278.952 74.7906 278.361 74.4492C277.737 74.0888 277.105 73.8816 276.467 73.8274C275.833 73.7759 275.268 73.8206 274.77 73.9615L272.729 72.3928C273.574 72.1218 274.433 71.9836 275.305 71.9782C276.183 71.9701 277.044 72.0825 277.889 72.3155C278.739 72.5458 279.541 72.8791 280.297 73.3153C280.818 73.616 281.275 73.9507 281.669 74.3191C282.064 74.6876 282.334 75.0764 282.479 75.4855C282.629 75.8919 282.594 76.3078 282.373 76.7332C282.158 77.1613 281.691 77.5826 280.973 77.9971L273.736 82.175L271.286 80.7607L272.771 79.9032L272.687 79.8544C272.231 79.9384 271.732 79.975 271.187 79.9641C270.652 79.9533 270.094 79.872 269.512 79.7203C268.939 79.5686 268.371 79.3301 267.808 79.005ZM270.342 78.306C270.854 78.6013 271.398 78.7991 271.976 78.8994C272.558 78.9969 273.118 79.0064 273.658 78.9278C274.203 78.8519 274.674 78.6989 275.073 78.4686L276.347 77.733C276.202 77.7248 276.005 77.6815 275.756 77.6029C275.512 77.5271 275.251 77.4336 274.975 77.3225C274.698 77.2114 274.428 77.099 274.165 76.9852C273.902 76.8714 273.675 76.7725 273.482 76.6885C273.05 76.4988 272.626 76.3512 272.208 76.2455C271.79 76.1398 271.389 76.0978 271.004 76.1195C270.624 76.1385 270.27 76.2428 269.941 76.4325C269.472 76.7034 269.289 77.0068 269.392 77.3428C269.495 77.6788 269.812 77.9998 270.342 78.306ZM273.44 86.6861C273.093 86.4856 272.799 86.2838 272.56 86.0806C272.321 85.8828 272.149 85.7135 272.046 85.5726L274.623 84.7679C274.885 85.0443 275.165 85.2651 275.46 85.4303C275.756 85.5956 276.103 85.6904 276.502 85.7148C276.901 85.7446 277.382 85.6864 277.945 85.5401L278.748 85.3287L285.865 76.6926L288.568 78.2532L282.894 84.4062L283.007 84.4712L293.672 81.1996L296.383 82.7643L279.931 87.2632C279.156 87.4773 278.398 87.606 277.657 87.6493C276.911 87.6954 276.188 87.6412 275.488 87.4868C274.789 87.3377 274.106 87.0709 273.44 86.6861Z" fill="white" style="fill:white;fill-opacity:1;"/>
<g clip-path="url(#clip1_12_22061)">
<path d="M569.838 232.955C568.132 236.631 564.78 239.982 560.12 242.672C555.459 245.363 549.654 247.298 543.287 248.283M561.076 231.269C559.745 234.136 557.131 236.75 553.496 238.849C549.861 240.947 545.333 242.457 540.367 243.225M552.819 229.599C551.833 231.685 549.915 233.591 547.258 235.125C544.602 236.659 541.3 237.766 537.685 238.335M544.349 228.051C543.863 229.425 542.709 230.671 541.02 231.646C539.33 232.622 537.172 233.288 534.791 233.568" stroke="white" style="stroke:white;stroke-opacity:1;" stroke-width="3.67882" stroke-linecap="round"/>
</g>
</g>
<path d="M211.396 24.1876C224.74 16.4844 246.374 16.4844 259.717 24.1876L601.683 221.605C615.027 229.308 615.027 241.797 601.683 249.5L415.832 356.792C402.489 364.495 380.854 364.495 367.511 356.792L25.5449 159.375C12.2014 151.672 12.2014 139.183 25.545 131.479L211.396 24.1876Z" stroke="url(#paint1_linear_12_22061)" stroke-opacity="0.5" style="" stroke-width="1.43065"/>
</g>
<defs>
<filter id="filter0_bd_12_22061" x="-17.0225" y="-7.6434" width="678.441" height="416.296" filterUnits="userSpaceOnUse" color-interpolation-filters="sRGB">
<feFlood flood-opacity="0" result="BackgroundImageFix"/>
<feGaussianBlur in="BackgroundImageFix" stdDeviation="8.58391"/>
<feComposite in2="SourceAlpha" operator="in" result="effect1_backgroundBlur_12_22061"/>
<feColorMatrix in="SourceAlpha" type="matrix" values="0 0 0 0 0 0 0 0 0 0 0 0 0 0 0 0 0 0 127 0" result="hardAlpha"/>
<feOffset dx="11.4452" dy="14.3065"/>
<feGaussianBlur stdDeviation="11.4452"/>
<feColorMatrix type="matrix" values="0 0 0 0 0 0 0 0 0 0 0 0 0 0 0 0 0 0 0.05 0"/>
<feBlend mode="normal" in2="effect1_backgroundBlur_12_22061" result="effect2_dropShadow_12_22061"/>
<feBlend mode="normal" in="SourceGraphic" in2="effect2_dropShadow_12_22061" result="shape"/>
</filter>
<filter id="filter1_f_12_22061" x="-145.808" y="-196.488" width="762.729" height="595.136" filterUnits="userSpaceOnUse" color-interpolation-filters="sRGB">
<feFlood flood-opacity="0" result="BackgroundImageFix"/>
<feBlend mode="normal" in="SourceGraphic" in2="BackgroundImageFix" result="shape"/>
<feGaussianBlur stdDeviation="91.5617" result="effect1_foregroundBlur_12_22061"/>
</filter>
<linearGradient id="paint0_linear_12_22061" x1="0.140674" y1="145.423" x2="495.957" y2="-68.4429" gradientUnits="userSpaceOnUse">
<stop stop-color="#39A0FF" style="stop-color:#39A0FF;stop-color:color(display-p3 0.2235 0.6275 1.0000);stop-opacity:1;"/>
<stop offset="1" stop-color="#8FFF85" style="stop-color:#8FFF85;stop-color:color(display-p3 0.5608 1.0000 0.5216);stop-opacity:1;"/>
</linearGradient>
<linearGradient id="paint1_linear_12_22061" x1="225.616" y1="15.2631" x2="274.865" y2="386.933" gradientUnits="userSpaceOnUse">
<stop stop-color="white" style="stop-color:white;stop-opacity:1;"/>
<stop offset="1" stop-color="white" stop-opacity="0.2" style="stop-color:white;stop-opacity:0.2;"/>
</linearGradient>
<clipPath id="clip0_12_22061">
<path d="M210.776 23.83C224.462 15.9292 246.651 15.9292 260.337 23.83L602.303 221.247C615.988 229.148 615.988 241.957 602.303 249.858L416.452 357.15C402.766 365.051 380.577 365.051 366.891 357.15L24.9254 159.733C11.2397 151.832 11.2398 139.023 24.9255 131.122L210.776 23.83Z" fill="white" style="fill:white;fill-opacity:1;"/>
</clipPath>
<clipPath id="clip1_12_22061">
<rect width="28.613" height="34.3356" fill="white" style="fill:white;fill-opacity:1;" transform="matrix(0.866044 0.499967 -0.866044 0.499967 552.668 221.204)"/>
</clipPath>
</defs>
</svg>
