<svg width="180" height="40" viewBox="0 0 180 40" fill="none" xmlns="http://www.w3.org/2000/svg">
<g id="Company logo">
<path id="Union" fill-rule="evenodd" clip-rule="evenodd" d="M54.9823 15.1414V18.4021L62.7753 18.3986C62.5362 20.197 61.9298 21.5137 61.0081 22.4355C59.8715 23.572 58.0974 24.8229 54.9823 24.8229C50.1796 24.8229 46.4235 20.9524 46.4235 16.1498C46.4235 11.3471 50.1796 7.47661 54.9823 7.47661C57.5742 7.47661 59.4661 8.49535 60.8626 9.80516L63.1634 7.50433C61.216 5.64357 58.6241 4.21594 54.9857 4.21594C48.409 4.21594 42.8787 9.57299 42.8787 16.1498C42.8787 22.7265 48.409 28.0836 54.9857 28.0836C58.534 28.0836 61.2125 26.9193 63.3089 24.7363C65.4642 22.581 66.133 19.556 66.133 17.1096C66.133 16.3819 66.0775 15.7097 65.9701 15.1414H54.9823ZM120.719 27.616V5.09285H117.427V27.616H120.719ZM75.1526 28.0872C79.4008 28.0872 82.8625 24.8265 82.8625 20.4016C82.8625 15.9454 79.4008 12.716 75.1526 12.716C70.9044 12.716 67.4427 15.9454 67.4427 20.4016C67.4427 24.8265 70.9044 28.0872 75.1526 28.0872ZM75.1526 15.7445C77.4812 15.7445 79.4875 17.6364 79.4875 20.4016C79.4875 23.1355 77.4812 25.0587 75.1526 25.0587C72.8241 25.0587 70.8178 23.139 70.8178 20.4016C70.8178 17.6364 72.8241 15.7445 75.1526 15.7445ZM91.7853 28.0872C96.0335 28.0872 99.4952 24.8265 99.4952 20.4016C99.4952 15.9454 96.0335 12.716 91.7853 12.716C87.5371 12.716 84.0755 15.9489 84.0755 20.4016C84.0755 24.8265 87.5371 28.0872 91.7853 28.0872ZM91.7853 15.7445C94.1139 15.7445 96.1202 17.6364 96.1202 20.4016C96.1202 23.1355 94.1139 25.0587 91.7853 25.0587C89.4568 25.0587 87.4505 23.139 87.4505 20.4016C87.4505 17.6364 89.4568 15.7445 91.7853 15.7445ZM115.435 13.1838V26.9783C115.435 32.6542 112.088 34.9723 108.13 34.9723C104.405 34.9723 102.164 32.4809 101.318 30.4434L104.256 29.2203C104.78 30.4712 106.062 31.9473 108.127 31.9473C110.66 31.9473 112.23 30.3845 112.23 27.4427V26.3373H112.112C111.356 27.2694 109.901 28.0837 108.065 28.0837C104.222 28.0837 100.701 24.7364 100.701 20.4293C100.701 16.091 104.222 12.716 108.065 12.716C109.898 12.716 111.353 13.5303 112.112 14.4347H112.23V13.1838H115.435ZM112.469 20.4293C112.469 17.723 110.663 15.7445 108.366 15.7445C106.038 15.7445 104.087 17.723 104.087 20.4293C104.087 23.1078 106.038 25.0587 108.366 25.0587C110.663 25.0587 112.469 23.1078 112.469 20.4293ZM133.547 22.9311L136.167 24.6775C135.321 25.9284 133.284 28.0837 129.763 28.0837C125.397 28.0837 122.136 24.7087 122.136 20.3981C122.136 15.8276 125.425 12.7125 129.385 12.7125C133.374 12.7125 135.325 15.8865 135.962 17.6018L136.312 18.475L126.038 22.7301C126.825 24.2721 128.048 25.0587 129.763 25.0587C131.482 25.0587 132.674 24.2132 133.547 22.9311ZM125.484 20.166L132.352 17.3142C131.974 16.3543 130.837 15.6856 129.5 15.6856C127.785 15.6856 125.397 17.1998 125.484 20.166Z" fill="#7A7493" style="fill:#7A7493;fill:color(display-p3 0.4800 0.4552 0.5750);fill-opacity:1;"/>
</g>
</svg>
