<svg width="66" height="66" viewBox="0 0 66 66" fill="none" xmlns="http://www.w3.org/2000/svg">
<g id="Icon placeholder">
<path id="Base" d="M2.29839 9.50916C1.38454 11.3027 0.940161 13.3516 0.719648 16.0505C0.499999 18.7389 0.499999 22.1159 0.5 26.5764V26.6V39.4V39.4236C0.499999 43.8841 0.499999 47.2611 0.719648 49.9495C0.940161 52.6484 1.38454 54.6973 2.29839 56.4908C3.8803 59.5955 6.40448 62.1197 9.50916 63.7016C11.3027 64.6155 13.3516 65.0598 16.0505 65.2803C18.7389 65.5 22.1159 65.5 26.5764 65.5H26.6H39.4H39.4236C43.8841 65.5 47.2611 65.5 49.9495 65.2803C52.6484 65.0598 54.6973 64.6155 56.4908 63.7016C59.5955 62.1197 62.1197 59.5955 63.7016 56.4908C64.6155 54.6973 65.0598 52.6484 65.2803 49.9495C65.5 47.2611 65.5 43.8841 65.5 39.4236V39.4V26.6V26.5764C65.5 22.1159 65.5 18.7389 65.2803 16.0505C65.0598 13.3516 64.6155 11.3027 63.7016 9.50916C62.1197 6.40448 59.5955 3.8803 56.4908 2.29839C54.6973 1.38454 52.6484 0.940161 49.9495 0.719648C47.2611 0.499999 43.8841 0.499999 39.4236 0.5H39.4H26.6H26.5764C22.1159 0.499999 18.7389 0.499999 16.0505 0.719648C13.3516 0.940161 11.3027 1.38454 9.50916 2.29839C6.40448 3.8803 3.8803 6.40448 2.29839 9.50916Z" fill="#EAECF0" stroke="url(#paint0_linear_12_21881)" style="fill:#EAECF0;fill:color(display-p3 0.9181 0.9260 0.9419);fill-opacity:1;"/>
<g id="&#244;&#128;&#170;&#143;" filter="url(#filter0_d_12_21881)">
<path d="M19.4557 30.0139L23.4986 27.5452L19.4557 25.1123C19.086 24.8857 18.8713 24.6055 18.8117 24.2715C18.7521 23.9376 18.8057 23.6335 18.9727 23.3592C19.1516 23.073 19.402 22.8822 19.724 22.7867C20.046 22.6913 20.4098 22.7689 20.8153 23.0193L25.8063 26.132C26.1403 26.3586 26.3669 26.6508 26.4861 27.0086C26.6054 27.3664 26.6113 27.7301 26.504 28.0998C26.3967 28.4695 26.1641 28.7617 25.8063 28.9764L20.8153 32.107C20.4098 32.3574 20.046 32.4349 19.724 32.3395C19.402 32.2441 19.1516 32.0533 18.9727 31.7671C18.8057 31.4808 18.7521 31.1767 18.8117 30.8547C18.8713 30.5208 19.086 30.2405 19.4557 30.0139ZM26.826 32.0354C26.826 31.7015 26.9393 31.4212 27.1659 31.1946C27.4044 30.9561 27.6906 30.8368 28.0246 30.8368H34.6257C34.9715 30.8368 35.2577 30.9561 35.4843 31.1946C35.7229 31.4212 35.8421 31.7015 35.8421 32.0354C35.8421 32.3693 35.7229 32.6556 35.4843 32.8941C35.2577 33.1326 34.9715 33.2519 34.6257 33.2519H28.0246C27.6906 33.2519 27.4044 33.1326 27.1659 32.8941C26.9393 32.6556 26.826 32.3693 26.826 32.0354ZM17.6668 48.1177H46.7902C48.603 48.1177 49.9626 47.6645 50.8689 46.7581C51.7753 45.8637 52.2285 44.5279 52.2285 42.751V22.107C52.2285 20.33 51.7753 18.9943 50.8689 18.0998C49.9626 17.1934 48.603 16.7402 46.7902 16.7402H17.6668C15.8779 16.7402 14.5243 17.1934 13.606 18.0998C12.6877 18.9943 12.2285 20.33 12.2285 22.107V42.751C12.2285 44.5279 12.6877 45.8637 13.606 46.7581C14.5243 47.6645 15.8779 48.1177 17.6668 48.1177Z" fill="url(#paint1_linear_12_21881)" style=""/>
<path d="M19.8661 23.2661C20.0021 23.2259 20.2156 23.2368 20.5516 23.4442C20.5519 23.4443 20.5522 23.4445 20.5525 23.4447L25.533 26.5508C25.7785 26.7194 25.9306 26.923 26.0118 27.1667C26.0982 27.4261 26.1035 27.686 26.0238 27.9604C25.9547 28.1984 25.8086 28.3919 25.5491 28.5476L25.549 28.5475L25.5407 28.5528L20.5525 31.6816C20.552 31.6819 20.5515 31.6822 20.5511 31.6825C20.2153 31.8895 20.002 31.9004 19.8661 31.8601C19.6641 31.8003 19.5148 31.6881 19.4008 31.5085C19.2965 31.3267 19.2663 31.146 19.3034 30.9458L19.3039 30.9426C19.3318 30.7863 19.4328 30.6145 19.7167 30.4404C19.7168 30.4403 19.7169 30.4403 19.717 30.4402L23.7592 27.972L24.4632 27.5421L23.7564 27.1168L19.7154 24.685C19.4325 24.5112 19.3318 24.3397 19.3039 24.1836C19.2646 23.9635 19.2997 23.7849 19.3983 23.6217C19.5127 23.4398 19.6627 23.3264 19.8661 23.2661ZM35.1218 31.539L35.1307 31.5483L35.14 31.5571C35.2774 31.6877 35.3421 31.8362 35.3421 32.0354C35.3421 32.2352 35.2766 32.3947 35.1308 32.5405L35.1307 32.5404L35.1218 32.5497C34.9949 32.6833 34.8423 32.7519 34.6257 32.7519H28.0246C27.8268 32.7519 27.6686 32.6877 27.524 32.5451C27.3902 32.4022 27.326 32.2411 27.326 32.0354C27.326 31.8279 27.3909 31.6767 27.5195 31.5482C27.6653 31.4023 27.8248 31.3368 28.0246 31.3368H34.6257C34.8423 31.3368 34.9949 31.4054 35.1218 31.539ZM17.6668 48.6177H46.7902C48.6794 48.6177 50.1881 48.1453 51.2213 47.1128C52.2546 46.0924 52.7285 44.6071 52.7285 42.751V22.107C52.7285 20.2509 52.2546 18.7656 51.2215 17.7452C50.1883 16.7127 48.6794 16.2402 46.7902 16.2402H17.6668C15.7988 16.2402 14.299 16.714 13.2559 17.7428C12.2093 18.7629 11.7285 20.2491 11.7285 22.107V42.751C11.7285 44.6089 12.2093 46.095 13.2559 47.1151C14.299 48.1439 15.7988 48.6177 17.6668 48.6177Z" stroke="url(#paint2_radial_12_21881)" style=""/>
</g>
</g>
<defs>
<filter id="filter0_d_12_21881" x="10.7285" y="15.4902" width="43" height="34.3774" filterUnits="userSpaceOnUse" color-interpolation-filters="sRGB">
<feFlood flood-opacity="0" result="BackgroundImageFix"/>
<feColorMatrix in="SourceAlpha" type="matrix" values="0 0 0 0 0 0 0 0 0 0 0 0 0 0 0 0 0 0 127 0" result="hardAlpha"/>
<feOffset dy="0.25"/>
<feGaussianBlur stdDeviation="0.25"/>
<feComposite in2="hardAlpha" operator="out"/>
<feColorMatrix type="matrix" values="0 0 0 0 0 0 0 0 0 0 0 0 0 0 0 0 0 0 0.2 0"/>
<feBlend mode="normal" in2="BackgroundImageFix" result="effect1_dropShadow_12_21881"/>
<feBlend mode="normal" in="SourceGraphic" in2="effect1_dropShadow_12_21881" result="shape"/>
</filter>
<linearGradient id="paint0_linear_12_21881" x1="1" y1="1" x2="65" y2="65" gradientUnits="userSpaceOnUse">
<stop stop-color="#FCCB90" style="stop-color:#FCCB90;stop-color:color(display-p3 0.9882 0.7961 0.5647);stop-opacity:1;"/>
<stop offset="1" stop-color="#D57EEB" style="stop-color:#D57EEB;stop-color:color(display-p3 0.8353 0.4941 0.9216);stop-opacity:1;"/>
</linearGradient>
<linearGradient id="paint1_linear_12_21881" x1="52.2285" y1="16.7402" x2="21.7539" y2="55.5897" gradientUnits="userSpaceOnUse">
<stop stop-color="#FAD0C4" style="stop-color:#FAD0C4;stop-color:color(display-p3 0.9804 0.8157 0.7686);stop-opacity:1;"/>
<stop offset="1" stop-color="#FF9A9E" style="stop-color:#FF9A9E;stop-color:color(display-p3 1.0000 0.6039 0.6196);stop-opacity:1;"/>
</linearGradient>
<radialGradient id="paint2_radial_12_21881" cx="0" cy="0" r="1" gradientUnits="userSpaceOnUse" gradientTransform="translate(32.2285 48.1177) rotate(-90) scale(31.3775 54.8198)">
<stop offset="0.0559059" stop-color="#FFF9C7" style="stop-color:#FFF9C7;stop-color:color(display-p3 1.0000 0.9765 0.7804);stop-opacity:1;"/>
<stop offset="0.546875" stop-color="#FFE4F8" style="stop-color:#FFE4F8;stop-color:color(display-p3 1.0000 0.8941 0.9725);stop-opacity:1;"/>
<stop offset="1" stop-color="white" style="stop-color:white;stop-opacity:1;"/>
</radialGradient>
</defs>
</svg>
