<svg width="180" height="40" viewBox="0 0 180 40" fill="none" xmlns="http://www.w3.org/2000/svg">
<g id="Company logo">
<path id="Union" fill-rule="evenodd" clip-rule="evenodd" d="M44.4161 4.40503C39.6241 4.40503 35.3302 6.53764 32.4317 9.90555L54.7208 32.1946C58.0887 29.2961 60.2213 25.0022 60.2213 20.2102C60.2213 11.4812 53.1451 4.40503 44.4161 4.40503ZM29.8855 13.982L50.6444 34.7409C51.4005 34.4164 52.1261 34.0346 52.8159 33.601L31.0254 11.8105C30.5918 12.5003 30.21 13.2259 29.8855 13.982ZM45.2731 35.9925L28.6338 19.3532C28.6867 18.3636 28.8306 17.3983 29.0573 16.4653L48.161 35.5691C47.2281 35.7957 46.2627 35.9397 45.2731 35.9925ZM28.8327 22.8635L41.7628 35.7936C35.1598 34.6775 29.9488 29.4665 28.8327 22.8635ZM88.2691 29.675H76.6884V11.5839H80.5133V26.5214H88.2691V29.675ZM94.4946 29.675H90.7314V16.1067H94.4946V29.675ZM94.6624 12.591C94.6624 13.6687 93.7172 14.499 92.6218 14.499C91.5353 14.499 90.5902 13.6687 90.5902 12.591C90.5902 11.5221 91.5353 10.6918 92.6218 10.6918C93.7172 10.6918 94.6624 11.5221 94.6624 12.591ZM103.843 19.0571C102.323 19.0571 101.281 20.0818 101.272 21.8308V29.675H97.5089V16.1067H101.095V18.5006H101.254C101.864 16.9194 103.321 15.93 105.335 15.93C108.162 15.93 110.017 17.8734 110.017 21.0358V29.675H106.254V21.7072C106.263 20.0464 105.353 19.0571 103.843 19.0571ZM125.35 25.7882C124.82 28.3057 122.567 29.94 119.202 29.94C115.032 29.94 112.48 27.2546 112.48 22.9527C112.48 18.7656 115.068 15.93 119.06 15.93C122.647 15.93 125.438 18.2091 125.438 22.8202V23.8537H116.198V23.8625C116.198 25.8854 117.391 27.1309 119.272 27.1309C120.518 27.1309 121.499 26.5921 121.878 25.5586L125.35 25.7882ZM119.122 18.7391C117.453 18.7391 116.269 19.9758 116.198 21.5216H121.896C121.878 19.9051 120.748 18.7391 119.122 18.7391ZM135.782 27.7934C135.12 29.0567 133.821 29.9312 131.816 29.9312C129.228 29.9312 127.311 28.5708 127.311 25.8854C127.311 22.8555 129.723 21.9545 132.408 21.7072C134.767 21.4775 135.703 21.345 135.694 20.4528C135.685 19.3133 134.979 18.6773 133.68 18.6773C132.328 18.6773 131.525 19.3398 131.268 20.2408L127.788 19.9581C128.309 17.4847 130.42 15.93 133.759 15.93C136.692 15.93 139.457 17.2904 139.457 20.5235V29.675H135.888V27.7934H135.782ZM130.906 25.7617C130.906 26.7953 131.737 27.3341 132.894 27.3341C134.546 27.3341 135.72 26.2476 135.72 24.8254V23.3855C135.27 23.6859 133.927 23.8802 133.106 23.995C131.781 24.1805 130.906 24.7017 130.906 25.7617ZM146.14 29.675H142.377V16.1067H146.025V18.4741H146.166C146.661 16.7957 147.898 15.9124 149.426 15.9124C150.15 15.9124 150.786 16.1067 151.281 16.407L150.15 19.5164C149.797 19.3398 149.381 19.1984 148.869 19.1984C147.35 19.1984 146.148 20.338 146.14 21.9987V29.675Z" fill="#7A7493" style="fill:#7A7493;fill:color(display-p3 0.4800 0.4552 0.5750);fill-opacity:1;"/>
</g>
</svg>
