<svg width="1216" height="274" viewBox="0 0 1216 274" fill="none" xmlns="http://www.w3.org/2000/svg">
<path d="M221.574 102.747C221.574 121.517 211.675 139.695 193.335 153.73C174.979 167.777 148.879 176.956 119.35 176.956C89.8208 176.956 63.7199 167.777 45.364 153.73C27.0243 139.695 17.125 121.517 17.125 102.747C17.125 83.9775 27.0243 65.7994 45.364 51.7647C63.7199 37.7177 89.8208 28.5391 119.35 28.5391C148.879 28.5391 174.979 37.7177 193.335 51.7647C211.675 65.7994 221.574 83.9775 221.574 102.747Z" stroke="#7839EE" style="stroke:#7839EE;stroke:color(display-p3 0.4722 0.2243 0.9325);stroke-opacity:1;" stroke-width="34.25"/>
<path d="M281.244 171.247C281.244 190.017 271.345 208.195 253.005 222.23C234.649 236.277 208.548 245.456 179.02 245.456C149.491 245.456 123.39 236.277 105.034 222.23C86.6942 208.195 76.7949 190.017 76.7949 171.247C76.7949 152.478 86.6942 134.299 105.034 120.265C123.39 106.218 149.491 97.0391 179.02 97.0391C208.548 97.0391 234.649 106.218 253.005 120.265C271.345 134.299 281.244 152.478 281.244 171.247Z" stroke="#7839EE" style="stroke:#7839EE;stroke:color(display-p3 0.4722 0.2243 0.9325);stroke-opacity:1;" stroke-width="34.25"/>
<path d="M387.52 193.568H421.311V73.6931H387.52V193.568Z" fill="white" style="fill:white;fill-opacity:1;"/>
<path d="M436.136 193.568H467.466V146.303C467.466 135.172 477.088 127.123 490.739 127.123C503.718 127.123 512.446 134.658 512.446 145.104V193.568H543.775V139.796C543.775 119.931 527.215 105.888 501.704 105.888C486.263 105.888 473.732 110.854 467.466 119.246V107.258H436.136V193.568Z" fill="white" style="fill:white;fill-opacity:1;"/>
<path d="M566.462 81.7419V107.258H544.756V127.123H566.462V162.229C566.462 182.266 583.246 193.568 609.204 193.568H627.778V173.532H613.456C603.386 173.532 597.568 169.593 597.568 161.202V127.123H627.778V107.258H597.568V81.7419H566.462Z" fill="white" style="fill:white;fill-opacity:1;"/>
<path d="M706.834 164.284C704.372 171.648 696.093 175.416 683.561 175.416C667.896 175.416 657.826 167.881 655.588 155.722H736.597C736.821 153.838 737.044 151.269 737.044 148.016C737.044 128.322 721.156 105.888 681.323 105.888C643.057 105.888 625.602 128.322 625.602 150.242C625.602 171.991 645.294 194.938 683.561 194.938C711.31 194.938 732.793 182.951 737.268 164.284H706.834ZM681.323 123.356C696.316 123.356 705.044 131.062 705.939 140.652H656.036C658.721 128.664 667.225 123.356 681.323 123.356Z" fill="white" style="fill:white;fill-opacity:1;"/>
<path d="M815.329 127.123V107.258H802.574C788.923 107.258 780.419 110.854 774.377 121.643V107.258H743.048V193.568H774.377V151.612C774.377 136.884 781.315 127.123 796.755 127.123H815.329Z" fill="white" style="fill:white;fill-opacity:1;"/>
<path d="M820.408 193.568H851.513V69.7544H820.408V193.568Z" fill="white" style="fill:white;fill-opacity:1;"/>
<path d="M918.611 194.938C953.297 194.938 978.137 176.101 978.137 150.413C978.137 124.726 953.297 105.888 918.611 105.888C883.925 105.888 859.085 124.726 859.085 150.413C859.085 176.101 883.925 194.938 918.611 194.938ZM918.611 174.388C901.827 174.388 890.415 164.627 890.415 150.413C890.415 136.028 901.827 126.267 918.611 126.267C935.395 126.267 946.807 136.028 946.807 150.413C946.807 164.627 935.395 174.388 918.611 174.388Z" fill="white" style="fill:white;fill-opacity:1;"/>
<path d="M1036.33 194.938C1065.64 194.938 1088.92 180.553 1092.27 161.373H1060.49C1058.26 169.079 1049.08 174.388 1037.67 174.388C1020.66 174.388 1010.59 164.456 1010.59 150.413C1010.59 136.371 1020.44 126.267 1037.22 126.267C1048.63 126.267 1058.26 131.918 1060.05 139.624H1091.38C1089.36 119.588 1065.87 105.888 1036.33 105.888C1001.42 105.888 978.144 125.239 978.144 150.413C978.144 175.587 1001.42 194.938 1036.33 194.938Z" fill="white" style="fill:white;fill-opacity:1;"/>
<path d="M1174.55 193.568H1212.15L1163.59 141.166L1208.57 107.258H1169.18L1130.02 136.713V69.7544H1098.69V193.568H1130.02V166.511L1142.55 157.092L1174.55 193.568Z" fill="white" style="fill:white;fill-opacity:1;"/>
</svg>
