<svg width="142" height="32" viewBox="0 0 142 32" fill="none" xmlns="http://www.w3.org/2000/svg">
<path d="M25.8773 12C25.8773 14.1921 24.7212 16.3151 22.5793 17.9542C20.4356 19.5947 17.3873 20.6666 13.9387 20.6666C10.49 20.6666 7.44174 19.5947 5.29799 17.9542C3.15612 16.3151 2 14.1921 2 12C2 9.80788 3.15612 7.68488 5.29799 6.0458C7.44174 4.40527 10.49 3.33331 13.9387 3.33331C17.3873 3.33331 20.4356 4.40527 22.5793 6.0458C24.7212 7.68488 25.8773 9.80788 25.8773 12Z" stroke="#7839EE" style="stroke:#7839EE;stroke:color(display-p3 0.4722 0.2243 0.9325);stroke-opacity:1;" stroke-width="4"/>
<path d="M32.8465 20C32.8465 22.1921 31.6904 24.3151 29.5485 25.9542C27.4048 27.5947 24.3565 28.6666 20.9079 28.6666C17.4593 28.6666 14.411 27.5947 12.2672 25.9542C10.1254 24.3151 8.96924 22.1921 8.96924 20C8.96924 17.8079 10.1254 15.6849 12.2672 14.0458C14.411 12.4053 17.4593 11.3333 20.9079 11.3333C24.3565 11.3333 27.4048 12.4053 29.5485 14.0458C31.6904 15.6849 32.8465 17.8079 32.8465 20Z" stroke="#7839EE" style="stroke:#7839EE;stroke:color(display-p3 0.4722 0.2243 0.9325);stroke-opacity:1;" stroke-width="4"/>
<path d="M45.2571 22.6061H49.2035V8.60612H45.2571V22.6061Z" fill="#101828" style="fill:#101828;fill:color(display-p3 0.0626 0.0926 0.1570);fill-opacity:1;"/>
<path d="M50.9349 22.6061H54.5938V17.0861C54.5938 15.7861 55.7176 14.8461 57.3118 14.8461C58.8277 14.8461 59.8469 15.7261 59.8469 16.9461V22.6061H63.5058V16.3261C63.5058 14.0061 61.5718 12.3661 58.5924 12.3661C56.7891 12.3661 55.3256 12.9461 54.5938 13.9261V12.5261H50.9349V22.6061Z" fill="#101828" style="fill:#101828;fill:color(display-p3 0.0626 0.0926 0.1570);fill-opacity:1;"/>
<path d="M66.1555 9.54612V12.5261H63.6204V14.8461H66.1555V18.9461C66.1555 21.2861 68.1156 22.6061 71.1472 22.6061H73.3164V20.2661H71.6438C70.4677 20.2661 69.7882 19.8061 69.7882 18.8261V14.8461H73.3164V12.5261H69.7882V9.54612H66.1555Z" fill="#101828" style="fill:#101828;fill:color(display-p3 0.0626 0.0926 0.1570);fill-opacity:1;"/>
<path d="M82.5492 19.1861C82.2617 20.0461 81.2948 20.4861 79.8312 20.4861C78.0017 20.4861 76.8257 19.6061 76.5643 18.1861H86.0252C86.0513 17.9661 86.0774 17.6661 86.0774 17.2861C86.0774 14.9861 84.2219 12.3661 79.5698 12.3661C75.1008 12.3661 73.0622 14.9861 73.0622 17.5461C73.0622 20.0861 75.3621 22.7661 79.8312 22.7661C83.0719 22.7661 85.5809 21.3661 86.1036 19.1861H82.5492ZM79.5698 14.4061C81.3209 14.4061 82.3401 15.3061 82.4447 16.4261H76.6166C76.9302 15.0261 77.9233 14.4061 79.5698 14.4061Z" fill="#101828" style="fill:#101828;fill:color(display-p3 0.0626 0.0926 0.1570);fill-opacity:1;"/>
<path d="M95.2202 14.8461V12.5261H93.7305C92.1363 12.5261 91.1431 12.9461 90.4375 14.2061V12.5261H86.7786V22.6061H90.4375V17.7061C90.4375 15.9861 91.2477 14.8461 93.051 14.8461H95.2202Z" fill="#101828" style="fill:#101828;fill:color(display-p3 0.0626 0.0926 0.1570);fill-opacity:1;"/>
<path d="M95.8133 22.6061H99.4461V8.14612H95.8133V22.6061Z" fill="#101828" style="fill:#101828;fill:color(display-p3 0.0626 0.0926 0.1570);fill-opacity:1;"/>
<path d="M107.282 22.7661C111.333 22.7661 114.234 20.5661 114.234 17.5661C114.234 14.5661 111.333 12.3661 107.282 12.3661C103.231 12.3661 100.33 14.5661 100.33 17.5661C100.33 20.5661 103.231 22.7661 107.282 22.7661ZM107.282 20.3661C105.322 20.3661 103.989 19.2261 103.989 17.5661C103.989 15.8861 105.322 14.7461 107.282 14.7461C109.242 14.7461 110.575 15.8861 110.575 17.5661C110.575 19.2261 109.242 20.3661 107.282 20.3661Z" fill="#101828" style="fill:#101828;fill:color(display-p3 0.0626 0.0926 0.1570);fill-opacity:1;"/>
<path d="M121.03 22.7661C124.454 22.7661 127.172 21.0861 127.564 18.8461H123.853C123.591 19.7461 122.52 20.3661 121.187 20.3661C119.201 20.3661 118.025 19.2061 118.025 17.5661C118.025 15.9261 119.175 14.7461 121.135 14.7461C122.468 14.7461 123.591 15.4061 123.8 16.3061H127.459C127.224 13.9661 124.48 12.3661 121.03 12.3661C116.953 12.3661 114.235 14.6261 114.235 17.5661C114.235 20.5061 116.953 22.7661 121.03 22.7661Z" fill="#101828" style="fill:#101828;fill:color(display-p3 0.0626 0.0926 0.1570);fill-opacity:1;"/>
<path d="M137.173 22.6061H141.564L135.893 16.4861L141.146 12.5261H136.546L131.972 15.9661V8.14612H128.314V22.6061H131.972V19.4461L133.436 18.3461L137.173 22.6061Z" fill="#101828" style="fill:#101828;fill:color(display-p3 0.0626 0.0926 0.1570);fill-opacity:1;"/>
</svg>
