<svg width="420" height="108" viewBox="0 0 420 108" fill="none" xmlns="http://www.w3.org/2000/svg">
<g filter="url(#filter0_d_12_15279)">
<rect x="20" y="4" width="380" height="68" rx="8" fill="white" style="fill:white;fill-opacity:1;"/>
<rect x="20.5" y="4.5" width="379" height="67" rx="7.5" stroke="#D0D5DD" style="stroke:#D0D5DD;stroke:color(display-p3 0.8144 0.8349 0.8656);stroke-opacity:1;"/>
<rect x="30" y="14" width="48" height="48" rx="24" fill="#F2F4F7" style="fill:#F2F4F7;fill:color(display-p3 0.9498 0.9558 0.9679);fill-opacity:1;"/>
<g opacity="0.08">
<rect x="30.375" y="14.375" width="47.25" height="47.25" rx="23.625" stroke="black" style="stroke:black;stroke-opacity:1;" stroke-width="0.75"/>
</g>
<path d="M60.0667 34.5001C60.0667 37.9858 56.5133 41.5001 51.2 41.5001C45.8867 41.5001 42.3333 37.9858 42.3333 34.5001C42.3333 31.0144 45.8867 27.5001 51.2 27.5001C56.5133 27.5001 60.0667 31.0144 60.0667 34.5001Z" stroke="#7839EE" style="stroke:#7839EE;stroke:color(display-p3 0.4722 0.2243 0.9325);stroke-opacity:1;" stroke-width="4.66667"/>
<path d="M65.6668 41.5001C65.6668 44.9858 62.1134 48.5001 56.8001 48.5001C51.4868 48.5001 47.9334 44.9858 47.9334 41.5001C47.9334 38.0144 51.4868 34.5001 56.8001 34.5001C62.1134 34.5001 65.6668 38.0144 65.6668 41.5001Z" stroke="#7839EE" style="stroke:#7839EE;stroke:color(display-p3 0.4722 0.2243 0.9325);stroke-opacity:1;" stroke-width="4.66667"/>
<path d="M92.6548 18.8182V29H91.1186V18.8182H92.6548ZM96.2592 24.4659V29H94.7727V21.3636H96.1996V22.6065H96.294C96.4697 22.2022 96.7448 21.8774 97.1193 21.6321C97.4972 21.3868 97.9728 21.2642 98.5462 21.2642C99.0665 21.2642 99.5223 21.3736 99.9134 21.5923C100.304 21.8078 100.608 22.1293 100.823 22.5568C101.039 22.9844 101.146 23.513 101.146 24.1428V29H99.6598V24.3217C99.6598 23.7682 99.5156 23.3357 99.2273 23.0241C98.9389 22.7093 98.5429 22.5518 98.0391 22.5518C97.6944 22.5518 97.3878 22.6264 97.1193 22.7756C96.8542 22.9247 96.6437 23.1435 96.4879 23.4318C96.3355 23.7169 96.2592 24.0616 96.2592 24.4659ZM106.705 21.3636V22.5568H102.533V21.3636H106.705ZM103.652 19.5341H105.138V26.7578C105.138 27.0462 105.182 27.2633 105.268 27.4091C105.354 27.5516 105.465 27.6494 105.601 27.7024C105.74 27.7521 105.891 27.777 106.053 27.777C106.173 27.777 106.277 27.7687 106.366 27.7521C106.456 27.7356 106.526 27.7223 106.575 27.7124L106.844 28.9403C106.758 28.9735 106.635 29.0066 106.476 29.0398C106.317 29.0762 106.118 29.0961 105.879 29.0994C105.488 29.1061 105.124 29.0365 104.786 28.8906C104.447 28.7448 104.174 28.5194 103.965 28.2145C103.756 27.9096 103.652 27.5268 103.652 27.0661V19.5341ZM111.558 29.1541C110.806 29.1541 110.158 28.9934 109.614 28.6719C109.074 28.3471 108.656 27.8913 108.361 27.3047C108.07 26.7147 107.924 26.0237 107.924 25.2315C107.924 24.4493 108.07 23.7599 108.361 23.1634C108.656 22.5668 109.067 22.1011 109.594 21.7663C110.125 21.4316 110.744 21.2642 111.454 21.2642C111.885 21.2642 112.302 21.3355 112.706 21.478C113.111 21.6205 113.474 21.8442 113.795 22.1491C114.117 22.4541 114.37 22.8501 114.556 23.3374C114.742 23.8213 114.834 24.4096 114.834 25.1023V25.6293H108.764V24.5156H113.378C113.378 24.1245 113.298 23.7782 113.139 23.4766C112.98 23.1716 112.756 22.9313 112.468 22.7557C112.183 22.58 111.848 22.4922 111.464 22.4922C111.046 22.4922 110.681 22.5949 110.37 22.8004C110.062 23.0026 109.823 23.2678 109.654 23.5959C109.488 23.9207 109.405 24.2737 109.405 24.6548V25.5249C109.405 26.0353 109.495 26.4695 109.674 26.8274C109.856 27.1854 110.11 27.4588 110.434 27.6477C110.759 27.8333 111.139 27.9261 111.573 27.9261C111.855 27.9261 112.112 27.8864 112.344 27.8068C112.576 27.724 112.776 27.6013 112.945 27.4389C113.114 27.2765 113.243 27.076 113.333 26.8374L114.74 27.0909C114.627 27.5052 114.425 27.8681 114.133 28.1797C113.845 28.4879 113.482 28.7282 113.045 28.9006C112.61 29.0696 112.115 29.1541 111.558 29.1541ZM116.484 29V21.3636H117.92V22.5767H118C118.139 22.1657 118.384 21.8426 118.736 21.6072C119.09 21.3686 119.491 21.2493 119.939 21.2493C120.032 21.2493 120.141 21.2526 120.267 21.2592C120.396 21.2659 120.497 21.2741 120.57 21.2841V22.706C120.511 22.6894 120.405 22.6712 120.252 22.6513C120.1 22.6281 119.947 22.6165 119.795 22.6165C119.443 22.6165 119.13 22.6911 118.855 22.8402C118.583 22.986 118.368 23.1899 118.209 23.4517C118.05 23.7102 117.97 24.0052 117.97 24.3366V29H116.484ZM123.343 18.8182V29H121.857V18.8182H123.343ZM128.56 29.1541C127.844 29.1541 127.219 28.9901 126.685 28.6619C126.152 28.3338 125.737 27.8748 125.442 27.2848C125.147 26.6948 125 26.0054 125 25.2166C125 24.4245 125.147 23.7318 125.442 23.1385C125.737 22.5452 126.152 22.0845 126.685 21.7564C127.219 21.4283 127.844 21.2642 128.56 21.2642C129.276 21.2642 129.9 21.4283 130.434 21.7564C130.968 22.0845 131.382 22.5452 131.677 23.1385C131.972 23.7318 132.119 24.4245 132.119 25.2166C132.119 26.0054 131.972 26.6948 131.677 27.2848C131.382 27.8748 130.968 28.3338 130.434 28.6619C129.9 28.9901 129.276 29.1541 128.56 29.1541ZM128.565 27.9062C129.029 27.9062 129.413 27.7836 129.718 27.5384C130.023 27.2931 130.248 26.9666 130.394 26.5589C130.543 26.1513 130.618 25.7022 130.618 25.2116C130.618 24.7244 130.543 24.277 130.394 23.8693C130.248 23.4583 130.023 23.1286 129.718 22.88C129.413 22.6314 129.029 22.5071 128.565 22.5071C128.097 22.5071 127.71 22.6314 127.401 22.88C127.096 23.1286 126.869 23.4583 126.72 23.8693C126.574 24.277 126.501 24.7244 126.501 25.2116C126.501 25.7022 126.574 26.1513 126.72 26.5589C126.869 26.9666 127.096 27.2931 127.401 27.5384C127.71 27.7836 128.097 27.9062 128.565 27.9062ZM136.995 29.1541C136.256 29.1541 135.62 28.9867 135.086 28.652C134.556 28.3139 134.148 27.8482 133.863 27.255C133.578 26.6617 133.436 25.9822 133.436 25.2166C133.436 24.4411 133.581 23.7566 133.873 23.1634C134.165 22.5668 134.576 22.1011 135.106 21.7663C135.636 21.4316 136.261 21.2642 136.98 21.2642C137.56 21.2642 138.077 21.3719 138.531 21.5874C138.985 21.7995 139.352 22.0978 139.63 22.4822C139.912 22.8667 140.079 23.3158 140.132 23.8295H138.686C138.606 23.4716 138.424 23.1634 138.139 22.9048C137.857 22.6463 137.479 22.517 137.005 22.517C136.591 22.517 136.228 22.6264 135.916 22.8452C135.608 23.0606 135.368 23.3688 135.195 23.7699C135.023 24.1676 134.937 24.6383 134.937 25.1818C134.937 25.7386 135.021 26.2192 135.191 26.6236C135.36 27.0279 135.598 27.3411 135.906 27.5632C136.218 27.7853 136.584 27.8963 137.005 27.8963C137.287 27.8963 137.542 27.8449 137.771 27.7422C138.003 27.6361 138.197 27.4853 138.352 27.2898C138.512 27.0942 138.623 26.8589 138.686 26.5838H140.132C140.079 27.0777 139.919 27.5185 139.65 27.9062C139.382 28.294 139.022 28.599 138.571 28.821C138.124 29.0431 137.598 29.1541 136.995 29.1541ZM143.089 26.4098L143.079 24.5952H143.338L146.38 21.3636H148.16L144.69 25.0426H144.456L143.089 26.4098ZM141.722 29V18.8182H143.208V29H141.722ZM146.544 29L143.81 25.3707L144.834 24.3317L148.369 29H146.544Z" fill="#344054" style="fill:#344054;fill:color(display-p3 0.2053 0.2525 0.3280);fill-opacity:1;"/>
<path d="M160.682 19.1534C161.04 19.1562 161.398 19.2244 161.756 19.358C162.114 19.4915 162.44 19.7131 162.736 20.0227C163.031 20.3295 163.268 20.7486 163.447 21.2798C163.626 21.8111 163.716 22.4773 163.716 23.2784C163.716 24.054 163.642 24.7429 163.494 25.3452C163.349 25.9446 163.139 26.4503 162.864 26.8622C162.591 27.2741 162.259 27.5866 161.866 27.7997C161.477 28.0128 161.037 28.1193 160.545 28.1193C160.057 28.1193 159.621 28.0227 159.237 27.8295C158.857 27.6335 158.544 27.3622 158.3 27.0156C158.058 26.6662 157.903 26.2614 157.835 25.8011H158.875C158.969 26.2017 159.155 26.5327 159.433 26.794C159.714 27.0526 160.085 27.1818 160.545 27.1818C161.219 27.1818 161.75 26.8878 162.139 26.2997C162.531 25.7116 162.727 24.8807 162.727 23.8068H162.659C162.5 24.0455 162.311 24.2514 162.092 24.4247C161.874 24.598 161.631 24.7315 161.364 24.8253C161.097 24.919 160.813 24.9659 160.511 24.9659C160.011 24.9659 159.553 24.8423 159.135 24.5952C158.72 24.3452 158.388 24.0028 158.138 23.5682C157.891 23.1307 157.767 22.6307 157.767 22.0682C157.767 21.5341 157.886 21.0455 158.125 20.6023C158.366 20.1562 158.705 19.8011 159.139 19.5369C159.577 19.2727 160.091 19.1449 160.682 19.1534ZM160.682 20.0909C160.324 20.0909 160.001 20.1804 159.714 20.3594C159.43 20.5355 159.205 20.7741 159.037 21.0753C158.872 21.3736 158.79 21.7045 158.79 22.0682C158.79 22.4318 158.869 22.7628 159.028 23.0611C159.19 23.3565 159.411 23.5923 159.689 23.7685C159.97 23.9418 160.29 24.0284 160.648 24.0284C160.918 24.0284 161.169 23.9759 161.402 23.8707C161.635 23.7628 161.838 23.6165 162.011 23.4318C162.188 23.2443 162.325 23.0327 162.425 22.7969C162.524 22.5582 162.574 22.3097 162.574 22.0511C162.574 21.7102 162.491 21.3906 162.327 21.0923C162.165 20.794 161.94 20.5526 161.653 20.3679C161.369 20.1832 161.045 20.0909 160.682 20.0909ZM168.784 28V21.4545H169.755V22.4773H169.841C169.977 22.1278 170.197 21.8565 170.501 21.6634C170.805 21.4673 171.17 21.3693 171.596 21.3693C172.028 21.3693 172.387 21.4673 172.674 21.6634C172.964 21.8565 173.19 22.1278 173.352 22.4773H173.42C173.588 22.1392 173.839 21.8707 174.174 21.6719C174.51 21.4702 174.912 21.3693 175.38 21.3693C175.966 21.3693 176.444 21.5526 176.816 21.919C177.189 22.2827 177.375 22.8494 177.375 23.6193V28H176.369V23.6193C176.369 23.1364 176.237 22.7912 175.973 22.5838C175.708 22.3764 175.397 22.2727 175.039 22.2727C174.579 22.2727 174.223 22.4119 173.97 22.6903C173.717 22.9659 173.591 23.3153 173.591 23.7386V28H172.568V23.517C172.568 23.1449 172.447 22.8452 172.206 22.6179C171.964 22.3878 171.653 22.2727 171.272 22.2727C171.011 22.2727 170.767 22.3423 170.539 22.4815C170.315 22.6207 170.133 22.8139 169.994 23.0611C169.858 23.3054 169.789 23.5881 169.789 23.9091V28H168.784ZM179.213 28V21.4545H180.219V28H179.213ZM179.725 20.3636C179.529 20.3636 179.36 20.2969 179.218 20.1634C179.078 20.0298 179.009 19.8693 179.009 19.6818C179.009 19.4943 179.078 19.3338 179.218 19.2003C179.36 19.0668 179.529 19 179.725 19C179.921 19 180.088 19.0668 180.228 19.2003C180.37 19.3338 180.441 19.4943 180.441 19.6818C180.441 19.8693 180.37 20.0298 180.228 20.1634C180.088 20.2969 179.921 20.3636 179.725 20.3636ZM183.067 24.0625V28H182.061V21.4545H183.033V22.4773H183.118C183.271 22.1449 183.504 21.8778 183.817 21.6761C184.129 21.4716 184.533 21.3693 185.027 21.3693C185.47 21.3693 185.858 21.4602 186.19 21.642C186.523 21.821 186.781 22.0938 186.966 22.4602C187.151 22.8239 187.243 23.2841 187.243 23.8409V28H186.237V23.9091C186.237 23.3949 186.104 22.9943 185.837 22.7074C185.57 22.4176 185.203 22.2727 184.737 22.2727C184.416 22.2727 184.129 22.3423 183.876 22.4815C183.626 22.6207 183.429 22.8239 183.284 23.0909C183.139 23.358 183.067 23.6818 183.067 24.0625ZM193.717 22.9205L192.814 23.1761C192.757 23.0256 192.673 22.8793 192.562 22.7372C192.454 22.5923 192.306 22.473 192.119 22.3793C191.931 22.2855 191.691 22.2386 191.399 22.2386C190.998 22.2386 190.664 22.331 190.397 22.5156C190.133 22.6974 190.001 22.929 190.001 23.2102C190.001 23.4602 190.092 23.6577 190.274 23.8026C190.456 23.9474 190.74 24.0682 191.126 24.1648L192.098 24.4034C192.683 24.5455 193.119 24.7628 193.406 25.0554C193.693 25.3452 193.836 25.7187 193.836 26.1761C193.836 26.5511 193.728 26.8864 193.512 27.1818C193.299 27.4773 193.001 27.7102 192.618 27.8807C192.234 28.0511 191.788 28.1364 191.279 28.1364C190.612 28.1364 190.059 27.9915 189.622 27.7017C189.184 27.4119 188.907 26.9886 188.791 26.4318L189.745 26.1932C189.836 26.5455 190.008 26.8097 190.261 26.9858C190.517 27.1619 190.85 27.25 191.262 27.25C191.731 27.25 192.103 27.1506 192.379 26.9517C192.657 26.75 192.797 26.5085 192.797 26.2273C192.797 26 192.717 25.8097 192.558 25.6562C192.399 25.5 192.154 25.3835 191.825 25.3068L190.734 25.0511C190.135 24.9091 189.694 24.6889 189.413 24.3906C189.135 24.0895 188.995 23.7131 188.995 23.2614C188.995 22.892 189.099 22.5653 189.306 22.2812C189.517 21.9972 189.802 21.7741 190.163 21.6122C190.527 21.4503 190.939 21.3693 191.399 21.3693C192.047 21.3693 192.555 21.5114 192.924 21.7955C193.297 22.0795 193.561 22.4545 193.717 22.9205ZM200.651 28.1534C200.237 28.1534 199.86 28.0753 199.522 27.919C199.184 27.7599 198.915 27.5312 198.717 27.233C198.518 26.9318 198.418 26.5682 198.418 26.142C198.418 25.767 198.492 25.4631 198.64 25.2301C198.788 24.9943 198.985 24.8097 199.232 24.6761C199.479 24.5426 199.752 24.4432 200.05 24.3778C200.352 24.3097 200.654 24.2557 200.958 24.2159C201.356 24.1648 201.678 24.1264 201.925 24.1009C202.175 24.0724 202.357 24.0256 202.471 23.9602C202.587 23.8949 202.646 23.7812 202.646 23.6193V23.5852C202.646 23.1648 202.531 22.8381 202.3 22.6051C202.073 22.3722 201.728 22.2557 201.265 22.2557C200.785 22.2557 200.408 22.3608 200.136 22.571C199.863 22.7812 199.671 23.0057 199.56 23.2443L198.606 22.9034C198.776 22.5057 199.004 22.196 199.288 21.9744C199.575 21.75 199.887 21.5937 200.225 21.5057C200.566 21.4148 200.901 21.3693 201.231 21.3693C201.441 21.3693 201.683 21.3949 201.955 21.446C202.231 21.4943 202.496 21.5952 202.752 21.7486C203.011 21.902 203.225 22.1335 203.396 22.4432C203.566 22.7528 203.651 23.1676 203.651 23.6875V28H202.646V27.1136H202.594C202.526 27.2557 202.413 27.4077 202.254 27.5696C202.094 27.7315 201.883 27.8693 201.619 27.983C201.354 28.0966 201.032 28.1534 200.651 28.1534ZM200.805 27.25C201.202 27.25 201.538 27.1719 201.81 27.0156C202.086 26.8594 202.293 26.6577 202.433 26.4105C202.575 26.1634 202.646 25.9034 202.646 25.6307V24.7102C202.603 24.7614 202.509 24.8082 202.364 24.8509C202.222 24.8906 202.058 24.9261 201.87 24.9574C201.685 24.9858 201.505 25.0114 201.329 25.0341C201.156 25.054 201.015 25.071 200.907 25.0852C200.646 25.1193 200.401 25.1747 200.174 25.2514C199.95 25.3253 199.768 25.4375 199.629 25.5881C199.492 25.7358 199.424 25.9375 199.424 26.1932C199.424 26.5426 199.553 26.8068 199.812 26.9858C200.073 27.1619 200.404 27.25 200.805 27.25ZM208.129 30.5909C207.643 30.5909 207.225 30.5284 206.876 30.4034C206.527 30.2812 206.235 30.1193 206.002 29.9176C205.772 29.7188 205.589 29.5057 205.453 29.2784L206.254 28.7159C206.345 28.8352 206.46 28.9716 206.599 29.125C206.738 29.2812 206.929 29.4162 207.17 29.5298C207.414 29.6463 207.734 29.7045 208.129 29.7045C208.657 29.7045 209.093 29.5767 209.437 29.321C209.781 29.0653 209.953 28.6648 209.953 28.1193V26.7898H209.868C209.794 26.9091 209.689 27.0568 209.552 27.233C209.419 27.4062 209.225 27.5611 208.973 27.6974C208.723 27.831 208.385 27.8977 207.958 27.8977C207.43 27.8977 206.956 27.7727 206.535 27.5227C206.118 27.2727 205.787 26.9091 205.542 26.4318C205.301 25.9545 205.18 25.375 205.18 24.6932C205.18 24.0227 205.298 23.4389 205.534 22.9418C205.77 22.4418 206.098 22.0554 206.518 21.7827C206.939 21.5071 207.424 21.3693 207.975 21.3693C208.402 21.3693 208.74 21.4403 208.99 21.5824C209.243 21.7216 209.436 21.8807 209.569 22.0597C209.706 22.2358 209.811 22.3807 209.885 22.4943H209.987V21.4545H210.958V28.1875C210.958 28.75 210.831 29.2074 210.575 29.5597C210.322 29.9148 209.981 30.1747 209.552 30.3395C209.126 30.5071 208.652 30.5909 208.129 30.5909ZM208.095 26.9943C208.498 26.9943 208.839 26.902 209.118 26.7173C209.396 26.5327 209.608 26.267 209.752 25.9205C209.897 25.5739 209.97 25.1591 209.97 24.6761C209.97 24.2045 209.899 23.7884 209.757 23.4276C209.615 23.0668 209.404 22.7841 209.126 22.5795C208.848 22.375 208.504 22.2727 208.095 22.2727C207.669 22.2727 207.314 22.3807 207.029 22.5966C206.748 22.8125 206.537 23.1023 206.395 23.4659C206.255 23.8295 206.186 24.233 206.186 24.6761C206.186 25.1307 206.257 25.5327 206.399 25.8821C206.544 26.2287 206.757 26.5014 207.038 26.7003C207.322 26.8963 207.674 26.9943 208.095 26.9943ZM215.458 28.1364C214.868 28.1364 214.349 27.9957 213.903 27.7145C213.46 27.4332 213.113 27.0398 212.863 26.5341C212.616 26.0284 212.493 25.4375 212.493 24.7614C212.493 24.0795 212.616 23.4844 212.863 22.9759C213.113 22.4673 213.46 22.0724 213.903 21.7912C214.349 21.5099 214.868 21.3693 215.458 21.3693C216.049 21.3693 216.566 21.5099 217.01 21.7912C217.456 22.0724 217.802 22.4673 218.049 22.9759C218.299 23.4844 218.424 24.0795 218.424 24.7614C218.424 25.4375 218.299 26.0284 218.049 26.5341C217.802 27.0398 217.456 27.4332 217.01 27.7145C216.566 27.9957 216.049 28.1364 215.458 28.1364ZM215.458 27.233C215.907 27.233 216.277 27.1179 216.566 26.8878C216.856 26.6577 217.071 26.3551 217.21 25.9801C217.349 25.6051 217.419 25.1989 217.419 24.7614C217.419 24.3239 217.349 23.9162 217.21 23.5384C217.071 23.1605 216.856 22.8551 216.566 22.6222C216.277 22.3892 215.907 22.2727 215.458 22.2727C215.01 22.2727 214.64 22.3892 214.35 22.6222C214.061 22.8551 213.846 23.1605 213.707 23.5384C213.568 23.9162 213.498 24.3239 213.498 24.7614C213.498 25.1989 213.568 25.6051 213.707 25.9801C213.846 26.3551 214.061 26.6577 214.35 26.8878C214.64 27.1179 215.01 27.233 215.458 27.233Z" fill="#475467" style="fill:#475467;fill:color(display-p3 0.2798 0.3309 0.4026);fill-opacity:1;"/>
<path d="M91.054 49V48.1051L94.4148 44.4261C94.8092 43.9953 95.134 43.6207 95.3892 43.3026C95.6444 42.9811 95.8333 42.6795 95.956 42.3977C96.0819 42.1127 96.1449 41.8144 96.1449 41.5028C96.1449 41.1449 96.0587 40.835 95.8864 40.5732C95.7173 40.3113 95.4853 40.1091 95.1903 39.9666C94.8954 39.8241 94.5639 39.7528 94.196 39.7528C93.8049 39.7528 93.4635 39.834 93.1719 39.9964C92.8835 40.1555 92.6598 40.3793 92.5007 40.6676C92.3449 40.956 92.267 41.294 92.267 41.6818H91.0938C91.0938 41.0852 91.2313 40.5616 91.5064 40.1108C91.7815 39.66 92.156 39.3087 92.63 39.0568C93.1072 38.8049 93.6425 38.679 94.2358 38.679C94.8324 38.679 95.361 38.8049 95.8217 39.0568C96.2824 39.3087 96.6437 39.6484 96.9055 40.076C97.1674 40.5036 97.2983 40.9792 97.2983 41.5028C97.2983 41.8774 97.2304 42.2436 97.0945 42.6016C96.9619 42.9562 96.7299 43.3523 96.3984 43.7898C96.0703 44.224 95.6146 44.7543 95.0312 45.3807L92.7443 47.8267V47.9062H97.4773V49H91.054ZM99.7095 49V38.8182H105.815V39.9119H100.942V43.3523H105.357V44.446H100.942V49H99.7095ZM107.072 49H105.78L109.518 38.8182H110.791L114.53 49H113.237L110.195 40.429H110.115L107.072 49ZM107.55 45.0227H112.76V46.1165H107.55V45.0227ZM119.894 49V41.3636H121.067V49H119.894ZM120.491 40.0909C120.262 40.0909 120.065 40.013 119.899 39.8572C119.737 39.7015 119.656 39.5142 119.656 39.2955C119.656 39.0767 119.737 38.8894 119.899 38.7337C120.065 38.5779 120.262 38.5 120.491 38.5C120.719 38.5 120.915 38.5779 121.077 38.7337C121.243 38.8894 121.326 39.0767 121.326 39.2955C121.326 39.5142 121.243 39.7015 121.077 39.8572C120.915 40.013 120.719 40.0909 120.491 40.0909ZM128.626 43.0739L127.572 43.3722C127.505 43.1965 127.407 43.0258 127.278 42.8601C127.152 42.6911 126.98 42.5518 126.761 42.4425C126.542 42.3331 126.262 42.2784 125.921 42.2784C125.454 42.2784 125.064 42.3861 124.753 42.6016C124.444 42.8137 124.29 43.0838 124.29 43.4119C124.29 43.7036 124.396 43.9339 124.608 44.103C124.821 44.272 125.152 44.4129 125.603 44.5256L126.736 44.804C127.419 44.9697 127.928 45.2232 128.263 45.5646C128.597 45.9027 128.765 46.3385 128.765 46.8722C128.765 47.3097 128.639 47.7008 128.387 48.0455C128.138 48.3902 127.79 48.6619 127.343 48.8608C126.895 49.0597 126.375 49.1591 125.782 49.1591C125.003 49.1591 124.358 48.9901 123.848 48.652C123.337 48.3139 123.014 47.8201 122.878 47.1705L123.992 46.892C124.098 47.303 124.299 47.6113 124.594 47.8168C124.892 48.0223 125.281 48.125 125.762 48.125C126.309 48.125 126.743 48.009 127.064 47.777C127.389 47.5417 127.552 47.2599 127.552 46.9318C127.552 46.6667 127.459 46.4446 127.273 46.2656C127.088 46.0833 126.803 45.9474 126.418 45.858L125.145 45.5597C124.446 45.3939 123.932 45.1371 123.604 44.7891C123.279 44.4377 123.117 43.9986 123.117 43.4716C123.117 43.0407 123.238 42.6596 123.48 42.3281C123.725 41.9967 124.058 41.7365 124.479 41.5476C124.903 41.3587 125.384 41.2642 125.921 41.2642C126.677 41.2642 127.27 41.4299 127.701 41.7614C128.135 42.0928 128.443 42.5303 128.626 43.0739ZM136.716 49.179C136.232 49.179 135.792 49.0878 135.398 48.9055C135.004 48.7199 134.69 48.4531 134.458 48.1051C134.226 47.7538 134.11 47.3295 134.11 46.8324C134.11 46.3949 134.197 46.0402 134.369 45.7685C134.541 45.4934 134.772 45.2779 135.06 45.1222C135.348 44.9664 135.667 44.8504 136.015 44.7741C136.366 44.6946 136.719 44.6316 137.074 44.5852C137.538 44.5256 137.914 44.4808 138.202 44.451C138.494 44.4179 138.706 44.3632 138.838 44.2869C138.974 44.2107 139.042 44.0781 139.042 43.8892V43.8494C139.042 43.3589 138.908 42.9777 138.64 42.706C138.374 42.4342 137.972 42.2983 137.431 42.2983C136.871 42.2983 136.432 42.4209 136.114 42.6662C135.796 42.9115 135.572 43.1733 135.443 43.4517L134.329 43.054C134.528 42.59 134.793 42.2287 135.125 41.9702C135.459 41.7083 135.824 41.526 136.218 41.4233C136.616 41.3172 137.007 41.2642 137.392 41.2642C137.637 41.2642 137.919 41.294 138.237 41.3537C138.558 41.41 138.868 41.5277 139.167 41.7067C139.468 41.8857 139.718 42.1558 139.917 42.517C140.116 42.8783 140.216 43.3622 140.216 43.9688V49H139.042V47.9659H138.983C138.903 48.1316 138.77 48.3089 138.585 48.4979C138.399 48.6868 138.152 48.8475 137.844 48.9801C137.536 49.1127 137.16 49.179 136.716 49.179ZM136.895 48.125C137.359 48.125 137.75 48.0339 138.068 47.8516C138.389 47.6693 138.631 47.4339 138.794 47.1456C138.959 46.8572 139.042 46.554 139.042 46.2358V45.1619C138.993 45.2216 138.883 45.2763 138.714 45.326C138.548 45.3724 138.356 45.4138 138.137 45.4503C137.922 45.4834 137.712 45.5133 137.506 45.5398C137.304 45.563 137.14 45.5829 137.014 45.5994C136.709 45.6392 136.424 45.7038 136.159 45.7933C135.897 45.8795 135.685 46.0104 135.522 46.1861C135.363 46.3584 135.284 46.5937 135.284 46.892C135.284 47.2997 135.435 47.608 135.736 47.8168C136.041 48.0223 136.427 48.125 136.895 48.125ZM145.459 49.1591C144.743 49.1591 144.127 48.9901 143.61 48.652C143.093 48.3139 142.695 47.8482 142.417 47.255C142.138 46.6617 141.999 45.9839 141.999 45.2216C141.999 44.446 142.142 43.7616 142.427 43.1683C142.715 42.5717 143.116 42.1061 143.63 41.7713C144.147 41.4332 144.75 41.2642 145.439 41.2642C145.976 41.2642 146.46 41.3636 146.891 41.5625C147.322 41.7614 147.675 42.0398 147.95 42.3977C148.225 42.7557 148.396 43.1733 148.462 43.6506H147.289C147.199 43.3026 147.001 42.9943 146.692 42.7259C146.387 42.4541 145.976 42.3182 145.459 42.3182C145.002 42.3182 144.601 42.4375 144.256 42.6761C143.915 42.9115 143.648 43.2446 143.456 43.6754C143.267 44.103 143.172 44.6051 143.172 45.1818C143.172 45.7718 143.265 46.2855 143.451 46.723C143.64 47.1605 143.905 47.5002 144.246 47.7422C144.591 47.9841 144.995 48.1051 145.459 48.1051C145.764 48.1051 146.041 48.0521 146.29 47.946C146.538 47.84 146.749 47.6875 146.921 47.4886C147.093 47.2898 147.216 47.0511 147.289 46.7727H148.462C148.396 47.2235 148.232 47.6295 147.97 47.9908C147.711 48.3487 147.368 48.6338 146.941 48.8459C146.517 49.0547 146.023 49.1591 145.459 49.1591ZM153.498 41.3636V42.358H149.541V41.3636H153.498ZM150.694 39.5341H151.868V46.8125C151.868 47.1439 151.916 47.3925 152.012 47.5582C152.111 47.7206 152.237 47.83 152.39 47.8864C152.546 47.9394 152.71 47.9659 152.882 47.9659C153.011 47.9659 153.117 47.9593 153.2 47.946C153.283 47.9295 153.349 47.9162 153.399 47.9062L153.638 48.9602C153.558 48.9901 153.447 49.0199 153.305 49.0497C153.162 49.0829 152.981 49.0994 152.763 49.0994C152.431 49.0994 152.106 49.0282 151.788 48.8857C151.473 48.7431 151.211 48.526 151.003 48.2344C150.797 47.9427 150.694 47.5748 150.694 47.1307V39.5341ZM155.263 49V41.3636H156.437V49H155.263ZM155.86 40.0909C155.631 40.0909 155.434 40.013 155.268 39.8572C155.106 39.7015 155.025 39.5142 155.025 39.2955C155.025 39.0767 155.106 38.8894 155.268 38.7337C155.434 38.5779 155.631 38.5 155.86 38.5C156.089 38.5 156.284 38.5779 156.447 38.7337C156.612 38.8894 156.695 39.0767 156.695 39.2955C156.695 39.5142 156.612 39.7015 156.447 39.8572C156.284 40.013 156.089 40.0909 155.86 40.0909ZM164.83 41.3636L162.006 49H160.813L157.989 41.3636H159.262L161.37 47.4489H161.449L163.557 41.3636H164.83ZM169.307 49.1591C168.571 49.1591 167.936 48.9967 167.403 48.6719C166.872 48.3438 166.463 47.8864 166.175 47.2997C165.89 46.7098 165.747 46.0237 165.747 45.2415C165.747 44.4593 165.89 43.7699 166.175 43.1733C166.463 42.5734 166.864 42.1061 167.378 41.7713C167.895 41.4332 168.498 41.2642 169.188 41.2642C169.585 41.2642 169.978 41.3305 170.366 41.4631C170.754 41.5956 171.107 41.8111 171.425 42.1094C171.743 42.4044 171.996 42.7955 172.185 43.2827C172.374 43.7699 172.469 44.3698 172.469 45.0824V45.5795H166.582V44.5653H171.276C171.276 44.1345 171.189 43.75 171.017 43.4119C170.848 43.0739 170.606 42.8071 170.291 42.6115C169.98 42.416 169.612 42.3182 169.188 42.3182C168.72 42.3182 168.316 42.4342 167.974 42.6662C167.636 42.8949 167.376 43.1932 167.194 43.5611C167.012 43.929 166.92 44.3234 166.92 44.7443V45.4205C166.92 45.9972 167.02 46.486 167.219 46.8871C167.421 47.2848 167.701 47.5881 168.059 47.7969C168.417 48.0024 168.833 48.1051 169.307 48.1051C169.615 48.1051 169.893 48.062 170.142 47.9759C170.394 47.8864 170.611 47.7538 170.793 47.5781C170.976 47.3991 171.116 47.1771 171.216 46.9119L172.349 47.2301C172.23 47.6146 172.03 47.9527 171.748 48.2443C171.466 48.5327 171.118 48.758 170.704 48.9205C170.29 49.0795 169.824 49.1591 169.307 49.1591Z" fill="#475467" style="fill:#475467;fill:color(display-p3 0.2798 0.3309 0.4026);fill-opacity:1;"/>
</g>
<defs>
<filter id="filter0_d_12_15279" x="0" y="0" width="420" height="108" filterUnits="userSpaceOnUse" color-interpolation-filters="sRGB">
<feFlood flood-opacity="0" result="BackgroundImageFix"/>
<feColorMatrix in="SourceAlpha" type="matrix" values="0 0 0 0 0 0 0 0 0 0 0 0 0 0 0 0 0 0 127 0" result="hardAlpha"/>
<feMorphology radius="12" operator="erode" in="SourceAlpha" result="effect1_dropShadow_12_15279"/>
<feOffset dy="16"/>
<feGaussianBlur stdDeviation="16"/>
<feColorMatrix type="matrix" values="0 0 0 0 0.345098 0 0 0 0 0.360784 0 0 0 0 0.372549 0 0 0 0.1 0"/>
<feBlend mode="normal" in2="BackgroundImageFix" result="effect1_dropShadow_12_15279"/>
<feBlend mode="normal" in="SourceGraphic" in2="effect1_dropShadow_12_15279" result="shape"/>
</filter>
</defs>
</svg>
