<svg width="410" height="152" viewBox="0 0 410 152" fill="none" xmlns="http://www.w3.org/2000/svg">
<g filter="url(#filter0_d_12_15312)">
<rect x="20" y="4" width="360" height="112" rx="8" fill="#F6F6F8" style="fill:#F6F6F8;fill:color(display-p3 0.9647 0.9647 0.9725);fill-opacity:1;"/>
<rect x="20.5" y="4.5" width="359" height="111" rx="7.5" stroke="#D0D5DD" style="stroke:#D0D5DD;stroke:color(display-p3 0.8144 0.8349 0.8656);stroke-opacity:1;"/>
<rect x="30" y="14" width="48" height="48" rx="24" fill="#F2F4F7" style="fill:#F2F4F7;fill:color(display-p3 0.9498 0.9558 0.9679);fill-opacity:1;"/>
<g opacity="0.08">
<rect x="30.375" y="14.375" width="47.25" height="47.25" rx="23.625" stroke="black" style="stroke:black;stroke-opacity:1;" stroke-width="0.75"/>
</g>
<path d="M60.0667 34.5001C60.0667 37.9858 56.5133 41.5001 51.2 41.5001C45.8867 41.5001 42.3333 37.9858 42.3333 34.5001C42.3333 31.0144 45.8867 27.5001 51.2 27.5001C56.5133 27.5001 60.0667 31.0144 60.0667 34.5001Z" stroke="#7839EE" style="stroke:#7839EE;stroke:color(display-p3 0.4722 0.2243 0.9325);stroke-opacity:1;" stroke-width="4.66667"/>
<path d="M65.6668 41.5001C65.6668 44.9858 62.1134 48.5001 56.8001 48.5001C51.4868 48.5001 47.9334 44.9858 47.9334 41.5001C47.9334 38.0144 51.4868 34.5001 56.8001 34.5001C62.1134 34.5001 65.6668 38.0144 65.6668 41.5001Z" stroke="#7839EE" style="stroke:#7839EE;stroke:color(display-p3 0.4722 0.2243 0.9325);stroke-opacity:1;" stroke-width="4.66667"/>
<path d="M92.6548 18.8182V29H91.1186V18.8182H92.6548ZM96.2592 24.4659V29H94.7727V21.3636H96.1996V22.6065H96.294C96.4697 22.2022 96.7448 21.8774 97.1193 21.6321C97.4972 21.3868 97.9728 21.2642 98.5462 21.2642C99.0665 21.2642 99.5223 21.3736 99.9134 21.5923C100.304 21.8078 100.608 22.1293 100.823 22.5568C101.039 22.9844 101.146 23.513 101.146 24.1428V29H99.6598V24.3217C99.6598 23.7682 99.5156 23.3357 99.2273 23.0241C98.9389 22.7093 98.5429 22.5518 98.0391 22.5518C97.6944 22.5518 97.3878 22.6264 97.1193 22.7756C96.8542 22.9247 96.6437 23.1435 96.4879 23.4318C96.3355 23.7169 96.2592 24.0616 96.2592 24.4659ZM106.705 21.3636V22.5568H102.533V21.3636H106.705ZM103.652 19.5341H105.138V26.7578C105.138 27.0462 105.182 27.2633 105.268 27.4091C105.354 27.5516 105.465 27.6494 105.601 27.7024C105.74 27.7521 105.891 27.777 106.053 27.777C106.173 27.777 106.277 27.7687 106.366 27.7521C106.456 27.7356 106.526 27.7223 106.575 27.7124L106.844 28.9403C106.758 28.9735 106.635 29.0066 106.476 29.0398C106.317 29.0762 106.118 29.0961 105.879 29.0994C105.488 29.1061 105.124 29.0365 104.786 28.8906C104.447 28.7448 104.174 28.5194 103.965 28.2145C103.756 27.9096 103.652 27.5268 103.652 27.0661V19.5341ZM111.558 29.1541C110.806 29.1541 110.158 28.9934 109.614 28.6719C109.074 28.3471 108.656 27.8913 108.361 27.3047C108.07 26.7147 107.924 26.0237 107.924 25.2315C107.924 24.4493 108.07 23.7599 108.361 23.1634C108.656 22.5668 109.067 22.1011 109.594 21.7663C110.125 21.4316 110.744 21.2642 111.454 21.2642C111.885 21.2642 112.302 21.3355 112.706 21.478C113.111 21.6205 113.474 21.8442 113.795 22.1491C114.117 22.4541 114.37 22.8501 114.556 23.3374C114.742 23.8213 114.834 24.4096 114.834 25.1023V25.6293H108.764V24.5156H113.378C113.378 24.1245 113.298 23.7782 113.139 23.4766C112.98 23.1716 112.756 22.9313 112.468 22.7557C112.183 22.58 111.848 22.4922 111.464 22.4922C111.046 22.4922 110.681 22.5949 110.37 22.8004C110.062 23.0026 109.823 23.2678 109.654 23.5959C109.488 23.9207 109.405 24.2737 109.405 24.6548V25.5249C109.405 26.0353 109.495 26.4695 109.674 26.8274C109.856 27.1854 110.11 27.4588 110.434 27.6477C110.759 27.8333 111.139 27.9261 111.573 27.9261C111.855 27.9261 112.112 27.8864 112.344 27.8068C112.576 27.724 112.776 27.6013 112.945 27.4389C113.114 27.2765 113.243 27.076 113.333 26.8374L114.74 27.0909C114.627 27.5052 114.425 27.8681 114.133 28.1797C113.845 28.4879 113.482 28.7282 113.045 28.9006C112.61 29.0696 112.115 29.1541 111.558 29.1541ZM116.484 29V21.3636H117.92V22.5767H118C118.139 22.1657 118.384 21.8426 118.736 21.6072C119.09 21.3686 119.491 21.2493 119.939 21.2493C120.032 21.2493 120.141 21.2526 120.267 21.2592C120.396 21.2659 120.497 21.2741 120.57 21.2841V22.706C120.511 22.6894 120.405 22.6712 120.252 22.6513C120.1 22.6281 119.947 22.6165 119.795 22.6165C119.443 22.6165 119.13 22.6911 118.855 22.8402C118.583 22.986 118.368 23.1899 118.209 23.4517C118.05 23.7102 117.97 24.0052 117.97 24.3366V29H116.484ZM123.343 18.8182V29H121.857V18.8182H123.343ZM128.56 29.1541C127.844 29.1541 127.219 28.9901 126.685 28.6619C126.152 28.3338 125.737 27.8748 125.442 27.2848C125.147 26.6948 125 26.0054 125 25.2166C125 24.4245 125.147 23.7318 125.442 23.1385C125.737 22.5452 126.152 22.0845 126.685 21.7564C127.219 21.4283 127.844 21.2642 128.56 21.2642C129.276 21.2642 129.9 21.4283 130.434 21.7564C130.968 22.0845 131.382 22.5452 131.677 23.1385C131.972 23.7318 132.119 24.4245 132.119 25.2166C132.119 26.0054 131.972 26.6948 131.677 27.2848C131.382 27.8748 130.968 28.3338 130.434 28.6619C129.9 28.9901 129.276 29.1541 128.56 29.1541ZM128.565 27.9062C129.029 27.9062 129.413 27.7836 129.718 27.5384C130.023 27.2931 130.248 26.9666 130.394 26.5589C130.543 26.1513 130.618 25.7022 130.618 25.2116C130.618 24.7244 130.543 24.277 130.394 23.8693C130.248 23.4583 130.023 23.1286 129.718 22.88C129.413 22.6314 129.029 22.5071 128.565 22.5071C128.097 22.5071 127.71 22.6314 127.401 22.88C127.096 23.1286 126.869 23.4583 126.72 23.8693C126.574 24.277 126.501 24.7244 126.501 25.2116C126.501 25.7022 126.574 26.1513 126.72 26.5589C126.869 26.9666 127.096 27.2931 127.401 27.5384C127.71 27.7836 128.097 27.9062 128.565 27.9062ZM136.995 29.1541C136.256 29.1541 135.62 28.9867 135.086 28.652C134.556 28.3139 134.148 27.8482 133.863 27.255C133.578 26.6617 133.436 25.9822 133.436 25.2166C133.436 24.4411 133.581 23.7566 133.873 23.1634C134.165 22.5668 134.576 22.1011 135.106 21.7663C135.636 21.4316 136.261 21.2642 136.98 21.2642C137.56 21.2642 138.077 21.3719 138.531 21.5874C138.985 21.7995 139.352 22.0978 139.63 22.4822C139.912 22.8667 140.079 23.3158 140.132 23.8295H138.686C138.606 23.4716 138.424 23.1634 138.139 22.9048C137.857 22.6463 137.479 22.517 137.005 22.517C136.591 22.517 136.228 22.6264 135.916 22.8452C135.608 23.0606 135.368 23.3688 135.195 23.7699C135.023 24.1676 134.937 24.6383 134.937 25.1818C134.937 25.7386 135.021 26.2192 135.191 26.6236C135.36 27.0279 135.598 27.3411 135.906 27.5632C136.218 27.7853 136.584 27.8963 137.005 27.8963C137.287 27.8963 137.542 27.8449 137.771 27.7422C138.003 27.6361 138.197 27.4853 138.352 27.2898C138.512 27.0942 138.623 26.8589 138.686 26.5838H140.132C140.079 27.0777 139.919 27.5185 139.65 27.9062C139.382 28.294 139.022 28.599 138.571 28.821C138.124 29.0431 137.598 29.1541 136.995 29.1541ZM143.089 26.4098L143.079 24.5952H143.338L146.38 21.3636H148.16L144.69 25.0426H144.456L143.089 26.4098ZM141.722 29V18.8182H143.208V29H141.722ZM146.544 29L143.81 25.3707L144.834 24.3317L148.369 29H146.544Z" fill="#344054" style="fill:#344054;fill:color(display-p3 0.2053 0.2525 0.3280);fill-opacity:1;"/>
<path d="M160.972 19.2727V28H159.915V20.3807H159.864L157.733 21.7955V20.7216L159.915 19.2727H160.972ZM163.482 28V27.233L166.362 24.0795C166.7 23.7102 166.979 23.3892 167.197 23.1165C167.416 22.8409 167.578 22.5824 167.683 22.3409C167.791 22.0966 167.845 21.8409 167.845 21.5739C167.845 21.267 167.771 21.0014 167.624 20.777C167.479 20.5526 167.28 20.3793 167.027 20.2571C166.774 20.1349 166.49 20.0739 166.175 20.0739C165.839 20.0739 165.547 20.1435 165.297 20.2827C165.05 20.419 164.858 20.6108 164.722 20.858C164.588 21.1051 164.521 21.3949 164.521 21.7273H163.516C163.516 21.2159 163.634 20.767 163.869 20.3807C164.105 19.9943 164.426 19.6932 164.832 19.4773C165.241 19.2614 165.7 19.1534 166.209 19.1534C166.72 19.1534 167.173 19.2614 167.568 19.4773C167.963 19.6932 168.273 19.9844 168.497 20.3509C168.722 20.7173 168.834 21.125 168.834 21.5739C168.834 21.8949 168.776 22.2088 168.659 22.5156C168.545 22.8196 168.347 23.1591 168.062 23.5341C167.781 23.9062 167.391 24.3608 166.891 24.8977L164.93 26.9943V27.0625H168.987V28H163.482ZM174.139 28V21.4545H175.111V22.4773H175.196C175.332 22.1278 175.553 21.8565 175.857 21.6634C176.161 21.4673 176.526 21.3693 176.952 21.3693C177.384 21.3693 177.743 21.4673 178.03 21.6634C178.32 21.8565 178.545 22.1278 178.707 22.4773H178.776C178.943 22.1392 179.195 21.8707 179.53 21.6719C179.865 21.4702 180.267 21.3693 180.736 21.3693C181.321 21.3693 181.8 21.5526 182.172 21.919C182.544 22.2827 182.73 22.8494 182.73 23.6193V28H181.724V23.6193C181.724 23.1364 181.592 22.7912 181.328 22.5838C181.064 22.3764 180.753 22.2727 180.395 22.2727C179.935 22.2727 179.578 22.4119 179.325 22.6903C179.072 22.9659 178.946 23.3153 178.946 23.7386V28H177.923V23.517C177.923 23.1449 177.803 22.8452 177.561 22.6179C177.32 22.3878 177.009 22.2727 176.628 22.2727C176.366 22.2727 176.122 22.3423 175.895 22.4815C175.67 22.6207 175.489 22.8139 175.349 23.0611C175.213 23.3054 175.145 23.5881 175.145 23.9091V28H174.139ZM184.569 28V21.4545H185.575V28H184.569ZM185.08 20.3636C184.884 20.3636 184.715 20.2969 184.573 20.1634C184.434 20.0298 184.364 19.8693 184.364 19.6818C184.364 19.4943 184.434 19.3338 184.573 19.2003C184.715 19.0668 184.884 19 185.08 19C185.276 19 185.444 19.0668 185.583 19.2003C185.725 19.3338 185.796 19.4943 185.796 19.6818C185.796 19.8693 185.725 20.0298 185.583 20.1634C185.444 20.2969 185.276 20.3636 185.08 20.3636ZM188.422 24.0625V28H187.417V21.4545H188.388V22.4773H188.473C188.627 22.1449 188.86 21.8778 189.172 21.6761C189.485 21.4716 189.888 21.3693 190.382 21.3693C190.826 21.3693 191.213 21.4602 191.546 21.642C191.878 21.821 192.137 22.0938 192.321 22.4602C192.506 22.8239 192.598 23.2841 192.598 23.8409V28H191.593V23.9091C191.593 23.3949 191.459 22.9943 191.192 22.7074C190.925 22.4176 190.559 22.2727 190.093 22.2727C189.772 22.2727 189.485 22.3423 189.232 22.4815C188.982 22.6207 188.784 22.8239 188.64 23.0909C188.495 23.358 188.422 23.6818 188.422 24.0625ZM199.072 22.9205L198.169 23.1761C198.112 23.0256 198.028 22.8793 197.918 22.7372C197.81 22.5923 197.662 22.473 197.474 22.3793C197.287 22.2855 197.047 22.2386 196.754 22.2386C196.354 22.2386 196.02 22.331 195.753 22.5156C195.489 22.6974 195.357 22.929 195.357 23.2102C195.357 23.4602 195.447 23.6577 195.629 23.8026C195.811 23.9474 196.095 24.0682 196.482 24.1648L197.453 24.4034C198.038 24.5455 198.474 24.7628 198.761 25.0554C199.048 25.3452 199.192 25.7187 199.192 26.1761C199.192 26.5511 199.084 26.8864 198.868 27.1818C198.655 27.4773 198.357 27.7102 197.973 27.8807C197.589 28.0511 197.143 28.1364 196.635 28.1364C195.967 28.1364 195.415 27.9915 194.977 27.7017C194.54 27.4119 194.263 26.9886 194.146 26.4318L195.101 26.1932C195.192 26.5455 195.364 26.8097 195.616 26.9858C195.872 27.1619 196.206 27.25 196.618 27.25C197.087 27.25 197.459 27.1506 197.734 26.9517C198.013 26.75 198.152 26.5085 198.152 26.2273C198.152 26 198.072 25.8097 197.913 25.6562C197.754 25.5 197.51 25.3835 197.18 25.3068L196.089 25.0511C195.49 24.9091 195.05 24.6889 194.768 24.3906C194.49 24.0895 194.351 23.7131 194.351 23.2614C194.351 22.892 194.455 22.5653 194.662 22.2812C194.872 21.9972 195.158 21.7741 195.518 21.6122C195.882 21.4503 196.294 21.3693 196.754 21.3693C197.402 21.3693 197.911 21.5114 198.28 21.7955C198.652 22.0795 198.916 22.4545 199.072 22.9205ZM206.007 28.1534C205.592 28.1534 205.216 28.0753 204.877 27.919C204.539 27.7599 204.271 27.5312 204.072 27.233C203.873 26.9318 203.774 26.5682 203.774 26.142C203.774 25.767 203.848 25.4631 203.995 25.2301C204.143 24.9943 204.341 24.8097 204.588 24.6761C204.835 24.5426 205.108 24.4432 205.406 24.3778C205.707 24.3097 206.01 24.2557 206.314 24.2159C206.711 24.1648 207.034 24.1264 207.281 24.1009C207.531 24.0724 207.713 24.0256 207.826 23.9602C207.943 23.8949 208.001 23.7812 208.001 23.6193V23.5852C208.001 23.1648 207.886 22.8381 207.656 22.6051C207.429 22.3722 207.083 22.2557 206.62 22.2557C206.14 22.2557 205.764 22.3608 205.491 22.571C205.218 22.7812 205.027 23.0057 204.916 23.2443L203.961 22.9034C204.132 22.5057 204.359 22.196 204.643 21.9744C204.93 21.75 205.243 21.5937 205.581 21.5057C205.922 21.4148 206.257 21.3693 206.586 21.3693C206.797 21.3693 207.038 21.3949 207.311 21.446C207.586 21.4943 207.852 21.5952 208.108 21.7486C208.366 21.902 208.581 22.1335 208.751 22.4432C208.922 22.7528 209.007 23.1676 209.007 23.6875V28H208.001V27.1136H207.95C207.882 27.2557 207.768 27.4077 207.609 27.5696C207.45 27.7315 207.238 27.8693 206.974 27.983C206.71 28.0966 206.387 28.1534 206.007 28.1534ZM206.16 27.25C206.558 27.25 206.893 27.1719 207.166 27.0156C207.441 26.8594 207.649 26.6577 207.788 26.4105C207.93 26.1634 208.001 25.9034 208.001 25.6307V24.7102C207.958 24.7614 207.865 24.8082 207.72 24.8509C207.578 24.8906 207.413 24.9261 207.225 24.9574C207.041 24.9858 206.86 25.0114 206.684 25.0341C206.511 25.054 206.37 25.071 206.262 25.0852C206.001 25.1193 205.757 25.1747 205.529 25.2514C205.305 25.3253 205.123 25.4375 204.984 25.5881C204.848 25.7358 204.779 25.9375 204.779 26.1932C204.779 26.5426 204.909 26.8068 205.167 26.9858C205.429 27.1619 205.76 27.25 206.16 27.25ZM213.484 30.5909C212.999 30.5909 212.581 30.5284 212.232 30.4034C211.882 30.2812 211.591 30.1193 211.358 29.9176C211.128 29.7188 210.945 29.5057 210.808 29.2784L211.609 28.7159C211.7 28.8352 211.815 28.9716 211.955 29.125C212.094 29.2812 212.284 29.4162 212.526 29.5298C212.77 29.6463 213.089 29.7045 213.484 29.7045C214.013 29.7045 214.449 29.5767 214.793 29.321C215.136 29.0653 215.308 28.6648 215.308 28.1193V26.7898H215.223C215.149 26.9091 215.044 27.0568 214.908 27.233C214.774 27.4062 214.581 27.5611 214.328 27.6974C214.078 27.831 213.74 27.8977 213.314 27.8977C212.786 27.8977 212.311 27.7727 211.891 27.5227C211.473 27.2727 211.142 26.9091 210.898 26.4318C210.656 25.9545 210.536 25.375 210.536 24.6932C210.536 24.0227 210.653 23.4389 210.889 22.9418C211.125 22.4418 211.453 22.0554 211.874 21.7827C212.294 21.5071 212.78 21.3693 213.331 21.3693C213.757 21.3693 214.095 21.4403 214.345 21.5824C214.598 21.7216 214.791 21.8807 214.925 22.0597C215.061 22.2358 215.166 22.3807 215.24 22.4943H215.342V21.4545H216.314V28.1875C216.314 28.75 216.186 29.2074 215.93 29.5597C215.678 29.9148 215.337 30.1747 214.908 30.3395C214.482 30.5071 214.007 30.5909 213.484 30.5909ZM213.45 26.9943C213.854 26.9943 214.195 26.902 214.473 26.7173C214.751 26.5327 214.963 26.267 215.108 25.9205C215.253 25.5739 215.325 25.1591 215.325 24.6761C215.325 24.2045 215.254 23.7884 215.112 23.4276C214.97 23.0668 214.76 22.7841 214.482 22.5795C214.203 22.375 213.859 22.2727 213.45 22.2727C213.024 22.2727 212.669 22.3807 212.385 22.5966C212.104 22.8125 211.892 23.1023 211.75 23.4659C211.611 23.8295 211.541 24.233 211.541 24.6761C211.541 25.1307 211.612 25.5327 211.754 25.8821C211.899 26.2287 212.112 26.5014 212.393 26.7003C212.678 26.8963 213.03 26.9943 213.45 26.9943ZM220.814 28.1364C220.223 28.1364 219.705 27.9957 219.259 27.7145C218.815 27.4332 218.469 27.0398 218.219 26.5341C217.972 26.0284 217.848 25.4375 217.848 24.7614C217.848 24.0795 217.972 23.4844 218.219 22.9759C218.469 22.4673 218.815 22.0724 219.259 21.7912C219.705 21.5099 220.223 21.3693 220.814 21.3693C221.405 21.3693 221.922 21.5099 222.365 21.7912C222.811 22.0724 223.158 22.4673 223.405 22.9759C223.655 23.4844 223.78 24.0795 223.78 24.7614C223.78 25.4375 223.655 26.0284 223.405 26.5341C223.158 27.0398 222.811 27.4332 222.365 27.7145C221.922 27.9957 221.405 28.1364 220.814 28.1364ZM220.814 27.233C221.263 27.233 221.632 27.1179 221.922 26.8878C222.212 26.6577 222.426 26.3551 222.565 25.9801C222.705 25.6051 222.774 25.1989 222.774 24.7614C222.774 24.3239 222.705 23.9162 222.565 23.5384C222.426 23.1605 222.212 22.8551 221.922 22.6222C221.632 22.3892 221.263 22.2727 220.814 22.2727C220.365 22.2727 219.996 22.3892 219.706 22.6222C219.416 22.8551 219.202 23.1605 219.062 23.5384C218.923 23.9162 218.854 24.3239 218.854 24.7614C218.854 25.1989 218.923 25.6051 219.062 25.9801C219.202 26.3551 219.416 26.6577 219.706 26.8878C219.996 27.1179 220.365 27.233 220.814 27.233Z" fill="#475467" style="fill:#475467;fill:color(display-p3 0.2798 0.3309 0.4026);fill-opacity:1;"/>
<path d="M94.2756 49.1591C93.5398 49.1591 92.9051 48.9967 92.3714 48.6719C91.8411 48.3438 91.4318 47.8864 91.1435 47.2997C90.8584 46.7098 90.7159 46.0237 90.7159 45.2415C90.7159 44.4593 90.8584 43.7699 91.1435 43.1733C91.4318 42.5734 91.8329 42.1061 92.3466 41.7713C92.8636 41.4332 93.4669 41.2642 94.1562 41.2642C94.554 41.2642 94.9467 41.3305 95.3345 41.4631C95.7223 41.5956 96.0753 41.8111 96.3935 42.1094C96.7116 42.4044 96.9652 42.7955 97.1541 43.2827C97.343 43.7699 97.4375 44.3698 97.4375 45.0824V45.5795H91.5511V44.5653H96.2443C96.2443 44.1345 96.1581 43.75 95.9858 43.4119C95.8168 43.0739 95.5748 42.8071 95.2599 42.6115C94.9484 42.416 94.5805 42.3182 94.1562 42.3182C93.6889 42.3182 93.2846 42.4342 92.9432 42.6662C92.6051 42.8949 92.3449 43.1932 92.1626 43.5611C91.9804 43.929 91.8892 44.3234 91.8892 44.7443V45.4205C91.8892 45.9972 91.9886 46.486 92.1875 46.8871C92.3897 47.2848 92.6697 47.5881 93.0277 47.7969C93.3857 48.0024 93.8016 48.1051 94.2756 48.1051C94.5838 48.1051 94.8622 48.062 95.1108 47.9759C95.3627 47.8864 95.5798 47.7538 95.7621 47.5781C95.9444 47.3991 96.0852 47.1771 96.1847 46.9119L97.3182 47.2301C97.1989 47.6146 96.9983 47.9527 96.7166 48.2443C96.4349 48.5327 96.0869 48.758 95.6726 48.9205C95.2583 49.0795 94.7926 49.1591 94.2756 49.1591ZM100.396 44.4062V49H99.2223V41.3636H100.356V42.5568H100.455C100.634 42.169 100.906 41.8575 101.271 41.6222C101.635 41.3835 102.106 41.2642 102.683 41.2642C103.2 41.2642 103.652 41.3703 104.04 41.5824C104.428 41.7912 104.729 42.1094 104.945 42.5369C105.16 42.9612 105.268 43.4981 105.268 44.1477V49H104.094V44.2273C104.094 43.6274 103.939 43.16 103.627 42.8253C103.316 42.4872 102.888 42.3182 102.344 42.3182C101.97 42.3182 101.635 42.3994 101.34 42.5618C101.049 42.7242 100.818 42.9612 100.649 43.2727C100.48 43.5843 100.396 43.9621 100.396 44.4062ZM110.295 49.1591C109.659 49.1591 109.097 48.9983 108.61 48.6768C108.123 48.352 107.742 47.8946 107.466 47.3047C107.191 46.7114 107.054 46.0104 107.054 45.2017C107.054 44.3996 107.191 43.7036 107.466 43.1136C107.742 42.5237 108.124 42.0679 108.615 41.7464C109.105 41.425 109.672 41.2642 110.315 41.2642C110.812 41.2642 111.205 41.3471 111.493 41.5128C111.785 41.6752 112.007 41.8608 112.16 42.0696C112.315 42.2751 112.436 42.4441 112.523 42.5767H112.622V38.8182H113.795V49H112.662V47.8267H112.523C112.436 47.9659 112.314 48.1416 112.155 48.3537C111.996 48.5625 111.769 48.7498 111.474 48.9155C111.179 49.0779 110.786 49.1591 110.295 49.1591ZM110.454 48.1051C110.925 48.1051 111.323 47.9825 111.648 47.7372C111.972 47.4886 112.219 47.1456 112.388 46.7081C112.557 46.2673 112.642 45.7585 112.642 45.1818C112.642 44.6117 112.559 44.1129 112.393 43.6854C112.228 43.2545 111.982 42.9197 111.657 42.6811C111.333 42.4392 110.932 42.3182 110.454 42.3182C109.957 42.3182 109.543 42.4458 109.211 42.701C108.883 42.9529 108.636 43.2959 108.471 43.7301C108.308 44.161 108.227 44.6449 108.227 45.1818C108.227 45.7254 108.31 46.2192 108.476 46.6634C108.645 47.1042 108.893 47.4555 109.221 47.7173C109.553 47.9759 109.964 48.1051 110.454 48.1051ZM123.366 41.3636V42.358H119.408V41.3636H123.366ZM120.562 39.5341H121.735V46.8125C121.735 47.1439 121.783 47.3925 121.879 47.5582C121.979 47.7206 122.104 47.83 122.257 47.8864C122.413 47.9394 122.577 47.9659 122.749 47.9659C122.878 47.9659 122.984 47.9593 123.067 47.946C123.15 47.9295 123.216 47.9162 123.266 47.9062L123.505 48.9602C123.425 48.9901 123.314 49.0199 123.172 49.0497C123.029 49.0829 122.849 49.0994 122.63 49.0994C122.298 49.0994 121.974 49.0282 121.655 48.8857C121.34 48.7431 121.079 48.526 120.87 48.2344C120.664 47.9427 120.562 47.5748 120.562 47.1307V39.5341ZM128.151 49.1591C127.461 49.1591 126.856 48.995 126.336 48.6669C125.819 48.3388 125.415 47.8797 125.123 47.2898C124.835 46.6998 124.691 46.0104 124.691 45.2216C124.691 44.4261 124.835 43.7318 125.123 43.1385C125.415 42.5452 125.819 42.0845 126.336 41.7564C126.856 41.4283 127.461 41.2642 128.151 41.2642C128.84 41.2642 129.443 41.4283 129.96 41.7564C130.481 42.0845 130.885 42.5452 131.173 43.1385C131.465 43.7318 131.611 44.4261 131.611 45.2216C131.611 46.0104 131.465 46.6998 131.173 47.2898C130.885 47.8797 130.481 48.3388 129.96 48.6669C129.443 48.995 128.84 49.1591 128.151 49.1591ZM128.151 48.1051C128.674 48.1051 129.105 47.9709 129.443 47.7024C129.781 47.4339 130.032 47.081 130.194 46.6435C130.356 46.206 130.438 45.732 130.438 45.2216C130.438 44.7112 130.356 44.2356 130.194 43.7947C130.032 43.3539 129.781 42.9976 129.443 42.7259C129.105 42.4541 128.674 42.3182 128.151 42.3182C127.627 42.3182 127.196 42.4541 126.858 42.7259C126.52 42.9976 126.27 43.3539 126.107 43.7947C125.945 44.2356 125.864 44.7112 125.864 45.2216C125.864 45.732 125.945 46.206 126.107 46.6435C126.27 47.081 126.52 47.4339 126.858 47.7024C127.196 47.9709 127.627 48.1051 128.151 48.1051ZM137.499 49V38.8182H143.643V39.9119H138.732V43.3523H143.325V44.446H138.732V47.9062H143.723V49H137.499ZM146.88 44.4062V49H145.707V41.3636H146.84V42.5568H146.94C147.119 42.169 147.39 41.8575 147.755 41.6222C148.12 41.3835 148.59 41.2642 149.167 41.2642C149.684 41.2642 150.136 41.3703 150.524 41.5824C150.912 41.7912 151.214 42.1094 151.429 42.5369C151.644 42.9612 151.752 43.4981 151.752 44.1477V49H150.579V44.2273C150.579 43.6274 150.423 43.16 150.112 42.8253C149.8 42.4872 149.372 42.3182 148.829 42.3182C148.454 42.3182 148.12 42.3994 147.825 42.5618C147.533 42.7242 147.303 42.9612 147.134 43.2727C146.964 43.5843 146.88 43.9621 146.88 44.4062ZM156.78 49.1591C156.143 49.1591 155.581 48.9983 155.094 48.6768C154.607 48.352 154.226 47.8946 153.951 47.3047C153.676 46.7114 153.538 46.0104 153.538 45.2017C153.538 44.3996 153.676 43.7036 153.951 43.1136C154.226 42.5237 154.609 42.0679 155.099 41.7464C155.59 41.425 156.157 41.2642 156.8 41.2642C157.297 41.2642 157.689 41.3471 157.978 41.5128C158.269 41.6752 158.492 41.8608 158.644 42.0696C158.8 42.2751 158.921 42.4441 159.007 42.5767H159.106V38.8182H160.28V49H159.146V47.8267H159.007C158.921 47.9659 158.798 48.1416 158.639 48.3537C158.48 48.5625 158.253 48.7498 157.958 48.9155C157.663 49.0779 157.27 49.1591 156.78 49.1591ZM156.939 48.1051C157.409 48.1051 157.807 47.9825 158.132 47.7372C158.457 47.4886 158.704 47.1456 158.873 46.7081C159.042 46.2673 159.126 45.7585 159.126 45.1818C159.126 44.6117 159.043 44.1129 158.878 43.6854C158.712 43.2545 158.467 42.9197 158.142 42.6811C157.817 42.4392 157.416 42.3182 156.939 42.3182C156.442 42.3182 156.027 42.4458 155.696 42.701C155.368 42.9529 155.121 43.2959 154.955 43.7301C154.793 44.161 154.711 44.6449 154.711 45.1818C154.711 45.7254 154.794 46.2192 154.96 46.6634C155.129 47.1042 155.378 47.4555 155.706 47.7173C156.037 47.9759 156.448 48.1051 156.939 48.1051ZM169.731 49.1591C168.995 49.1591 168.36 48.9967 167.827 48.6719C167.296 48.3438 166.887 47.8864 166.599 47.2997C166.314 46.7098 166.171 46.0237 166.171 45.2415C166.171 44.4593 166.314 43.7699 166.599 43.1733C166.887 42.5734 167.288 42.1061 167.802 41.7713C168.319 41.4332 168.922 41.2642 169.611 41.2642C170.009 41.2642 170.402 41.3305 170.79 41.4631C171.177 41.5956 171.53 41.8111 171.849 42.1094C172.167 42.4044 172.42 42.7955 172.609 43.2827C172.798 43.7699 172.893 44.3698 172.893 45.0824V45.5795H167.006V44.5653H171.699C171.699 44.1345 171.613 43.75 171.441 43.4119C171.272 43.0739 171.03 42.8071 170.715 42.6115C170.403 42.416 170.036 42.3182 169.611 42.3182C169.144 42.3182 168.74 42.4342 168.398 42.6662C168.06 42.8949 167.8 43.1932 167.618 43.5611C167.435 43.929 167.344 44.3234 167.344 44.7443V45.4205C167.344 45.9972 167.444 46.486 167.643 46.8871C167.845 47.2848 168.125 47.5881 168.483 47.7969C168.841 48.0024 169.257 48.1051 169.731 48.1051C170.039 48.1051 170.317 48.062 170.566 47.9759C170.818 47.8864 171.035 47.7538 171.217 47.5781C171.399 47.3991 171.54 47.1771 171.64 46.9119L172.773 47.2301C172.654 47.6146 172.453 47.9527 172.172 48.2443C171.89 48.5327 171.542 48.758 171.128 48.9205C170.713 49.0795 170.248 49.1591 169.731 49.1591ZM175.851 44.4062V49H174.677V41.3636H175.811V42.5568H175.91C176.089 42.169 176.361 41.8575 176.726 41.6222C177.09 41.3835 177.561 41.2642 178.138 41.2642C178.655 41.2642 179.107 41.3703 179.495 41.5824C179.883 41.7912 180.184 42.1094 180.4 42.5369C180.615 42.9612 180.723 43.4981 180.723 44.1477V49H179.55V44.2273C179.55 43.6274 179.394 43.16 179.082 42.8253C178.771 42.4872 178.343 42.3182 177.8 42.3182C177.425 42.3182 177.09 42.3994 176.795 42.5618C176.504 42.7242 176.273 42.9612 176.104 43.2727C175.935 43.5843 175.851 43.9621 175.851 44.4062ZM185.969 49.1591C185.253 49.1591 184.637 48.9901 184.12 48.652C183.603 48.3139 183.205 47.8482 182.926 47.255C182.648 46.6617 182.509 45.9839 182.509 45.2216C182.509 44.446 182.651 43.7616 182.936 43.1683C183.225 42.5717 183.626 42.1061 184.14 41.7713C184.657 41.4332 185.26 41.2642 185.949 41.2642C186.486 41.2642 186.97 41.3636 187.401 41.5625C187.832 41.7614 188.185 42.0398 188.46 42.3977C188.735 42.7557 188.906 43.1733 188.972 43.6506H187.799C187.709 43.3026 187.51 42.9943 187.202 42.7259C186.897 42.4541 186.486 42.3182 185.969 42.3182C185.512 42.3182 185.111 42.4375 184.766 42.6761C184.425 42.9115 184.158 43.2446 183.966 43.6754C183.777 44.103 183.682 44.6051 183.682 45.1818C183.682 45.7718 183.775 46.2855 183.961 46.723C184.15 47.1605 184.415 47.5002 184.756 47.7422C185.101 47.9841 185.505 48.1051 185.969 48.1051C186.274 48.1051 186.551 48.0521 186.799 47.946C187.048 47.84 187.258 47.6875 187.431 47.4886C187.603 47.2898 187.726 47.0511 187.799 46.7727H188.972C188.906 47.2235 188.742 47.6295 188.48 47.9908C188.221 48.3487 187.878 48.6338 187.451 48.8459C187.026 49.0547 186.533 49.1591 185.969 49.1591ZM190.687 49V41.3636H191.821V42.517H191.9C192.039 42.1392 192.291 41.8326 192.656 41.5973C193.02 41.362 193.431 41.2443 193.889 41.2443C193.975 41.2443 194.083 41.246 194.212 41.2493C194.341 41.2526 194.439 41.2576 194.505 41.2642V42.4574C194.466 42.4474 194.374 42.4325 194.232 42.4126C194.093 42.3894 193.945 42.3778 193.789 42.3778C193.418 42.3778 193.087 42.4557 192.795 42.6115C192.507 42.764 192.278 42.9761 192.109 43.2479C191.943 43.5163 191.86 43.8229 191.86 44.1676V49H190.687ZM196.884 51.8636C196.685 51.8636 196.508 51.8471 196.352 51.8139C196.196 51.7841 196.089 51.7543 196.029 51.7244L196.327 50.6903C196.612 50.7633 196.864 50.7898 197.083 50.7699C197.302 50.75 197.496 50.6522 197.665 50.4766C197.837 50.3042 197.995 50.0241 198.137 49.6364L198.356 49.0398L195.532 41.3636H196.805L198.913 47.4489H198.992L201.1 41.3636H202.373L199.131 50.1136C198.986 50.508 198.805 50.8345 198.589 51.093C198.374 51.3549 198.124 51.5488 197.839 51.6747C197.557 51.8007 197.239 51.8636 196.884 51.8636ZM203.922 51.8636V41.3636H205.055V42.5767H205.194C205.28 42.4441 205.4 42.2751 205.552 42.0696C205.708 41.8608 205.93 41.6752 206.218 41.5128C206.51 41.3471 206.904 41.2642 207.402 41.2642C208.045 41.2642 208.611 41.425 209.102 41.7464C209.592 42.0679 209.975 42.5237 210.25 43.1136C210.525 43.7036 210.663 44.3996 210.663 45.2017C210.663 46.0104 210.525 46.7114 210.25 47.3047C209.975 47.8946 209.594 48.352 209.107 48.6768C208.62 48.9983 208.058 49.1591 207.422 49.1591C206.931 49.1591 206.538 49.0779 206.243 48.9155C205.948 48.7498 205.721 48.5625 205.562 48.3537C205.403 48.1416 205.28 47.9659 205.194 47.8267H205.095V51.8636H203.922ZM205.075 45.1818C205.075 45.7585 205.159 46.2673 205.328 46.7081C205.498 47.1456 205.744 47.4886 206.069 47.7372C206.394 47.9825 206.792 48.1051 207.262 48.1051C207.753 48.1051 208.162 47.9759 208.49 47.7173C208.822 47.4555 209.07 47.1042 209.236 46.6634C209.405 46.2192 209.49 45.7254 209.49 45.1818C209.49 44.6449 209.407 44.161 209.241 43.7301C209.079 43.2959 208.832 42.9529 208.5 42.701C208.172 42.4458 207.76 42.3182 207.262 42.3182C206.785 42.3182 206.384 42.4392 206.059 42.6811C205.734 42.9197 205.489 43.2545 205.324 43.6854C205.158 44.1129 205.075 44.6117 205.075 45.1818ZM215.774 41.3636V42.358H211.816V41.3636H215.774ZM212.97 39.5341H214.143V46.8125C214.143 47.1439 214.191 47.3925 214.287 47.5582C214.387 47.7206 214.513 47.83 214.665 47.8864C214.821 47.9394 214.985 47.9659 215.157 47.9659C215.287 47.9659 215.393 47.9593 215.475 47.946C215.558 47.9295 215.625 47.9162 215.674 47.9062L215.913 48.9602C215.833 48.9901 215.722 49.0199 215.58 49.0497C215.437 49.0829 215.257 49.0994 215.038 49.0994C214.707 49.0994 214.382 49.0282 214.064 48.8857C213.749 48.7431 213.487 48.526 213.278 48.2344C213.073 47.9427 212.97 47.5748 212.97 47.1307V39.5341ZM217.539 49V41.3636H218.712V49H217.539ZM218.135 40.0909C217.907 40.0909 217.709 40.013 217.544 39.8572C217.381 39.7015 217.3 39.5142 217.3 39.2955C217.3 39.0767 217.381 38.8894 217.544 38.7337C217.709 38.5779 217.907 38.5 218.135 38.5C218.364 38.5 218.56 38.5779 218.722 38.7337C218.888 38.8894 218.971 39.0767 218.971 39.2955C218.971 39.5142 218.888 39.7015 218.722 39.8572C218.56 40.013 218.364 40.0909 218.135 40.0909ZM223.963 49.1591C223.274 49.1591 222.669 48.995 222.149 48.6669C221.632 48.3388 221.227 47.8797 220.936 47.2898C220.647 46.6998 220.503 46.0104 220.503 45.2216C220.503 44.4261 220.647 43.7318 220.936 43.1385C221.227 42.5452 221.632 42.0845 222.149 41.7564C222.669 41.4283 223.274 41.2642 223.963 41.2642C224.653 41.2642 225.256 41.4283 225.773 41.7564C226.293 42.0845 226.698 42.5452 226.986 43.1385C227.278 43.7318 227.423 44.4261 227.423 45.2216C227.423 46.0104 227.278 46.6998 226.986 47.2898C226.698 47.8797 226.293 48.3388 225.773 48.6669C225.256 48.995 224.653 49.1591 223.963 49.1591ZM223.963 48.1051C224.487 48.1051 224.918 47.9709 225.256 47.7024C225.594 47.4339 225.844 47.081 226.007 46.6435C226.169 46.206 226.25 45.732 226.25 45.2216C226.25 44.7112 226.169 44.2356 226.007 43.7947C225.844 43.3539 225.594 42.9976 225.256 42.7259C224.918 42.4541 224.487 42.3182 223.963 42.3182C223.44 42.3182 223.009 42.4541 222.671 42.7259C222.333 42.9976 222.082 43.3539 221.92 43.7947C221.758 44.2356 221.676 44.7112 221.676 45.2216C221.676 45.732 221.758 46.206 221.92 46.6435C222.082 47.081 222.333 47.4339 222.671 47.7024C223.009 47.9709 223.44 48.1051 223.963 48.1051ZM230.388 44.4062V49H229.214V41.3636H230.348V42.5568H230.447C230.626 42.169 230.898 41.8575 231.263 41.6222C231.627 41.3835 232.098 41.2642 232.675 41.2642C233.192 41.2642 233.644 41.3703 234.032 41.5824C234.42 41.7912 234.721 42.1094 234.937 42.5369C235.152 42.9612 235.26 43.4981 235.26 44.1477V49H234.087V44.2273C234.087 43.6274 233.931 43.16 233.619 42.8253C233.308 42.4872 232.88 42.3182 232.337 42.3182C231.962 42.3182 231.627 42.3994 231.332 42.5618C231.041 42.7242 230.81 42.9612 230.641 43.2727C230.472 43.5843 230.388 43.9621 230.388 44.4062ZM242.813 43.0739L241.759 43.3722C241.693 43.1965 241.595 43.0258 241.466 42.8601C241.34 42.6911 241.167 42.5518 240.949 42.4425C240.73 42.3331 240.45 42.2784 240.108 42.2784C239.641 42.2784 239.252 42.3861 238.94 42.6016C238.632 42.8137 238.478 43.0838 238.478 43.4119C238.478 43.7036 238.584 43.9339 238.796 44.103C239.008 44.272 239.34 44.4129 239.79 44.5256L240.924 44.804C241.607 44.9697 242.115 45.2232 242.45 45.5646C242.785 45.9027 242.952 46.3385 242.952 46.8722C242.952 47.3097 242.826 47.7008 242.574 48.0455C242.326 48.3902 241.978 48.6619 241.53 48.8608C241.083 49.0597 240.563 49.1591 239.969 49.1591C239.19 49.1591 238.546 48.9901 238.035 48.652C237.525 48.3139 237.202 47.8201 237.066 47.1705L238.18 46.892C238.286 47.303 238.486 47.6113 238.781 47.8168C239.079 48.0223 239.469 48.125 239.949 48.125C240.496 48.125 240.93 48.009 241.252 47.777C241.577 47.5417 241.739 47.2599 241.739 46.9318C241.739 46.6667 241.646 46.4446 241.461 46.2656C241.275 46.0833 240.99 45.9474 240.606 45.858L239.333 45.5597C238.634 45.3939 238.12 45.1371 237.792 44.7891C237.467 44.4377 237.305 43.9986 237.305 43.4716C237.305 43.0407 237.425 42.6596 237.667 42.3281C237.913 41.9967 238.246 41.7365 238.667 41.5476C239.091 41.3587 239.572 41.2642 240.108 41.2642C240.864 41.2642 241.457 41.4299 241.888 41.7614C242.323 42.0928 242.631 42.5303 242.813 43.0739Z" fill="#475467" style="fill:#475467;fill:color(display-p3 0.2798 0.3309 0.4026);fill-opacity:1;"/>
<path d="M94 70C94 67.7909 95.7909 66 98 66H114L126 78V102C126 104.209 124.209 106 122 106H98C95.7909 106 94 104.209 94 102V70Z" fill="url(#paint0_linear_12_15312)" style=""/>
<path d="M114 66L126 78H118C115.791 78 114 76.2091 114 74V66Z" fill="#D0D5DD" style="fill:#D0D5DD;fill:color(display-p3 0.8144 0.8349 0.8656);fill-opacity:1;"/>
<path d="M110.667 86.6667L109.923 85.1793C109.709 84.7512 109.602 84.5372 109.442 84.3808C109.301 84.2425 109.131 84.1373 108.944 84.0729C108.733 84 108.493 84 108.015 84H105.467C104.72 84 104.346 84 104.061 84.1453C103.81 84.2732 103.606 84.4771 103.479 84.728C103.333 85.0132 103.333 85.3866 103.333 86.1333V86.6667M103.333 86.6667H113.467C114.587 86.6667 115.147 86.6667 115.575 86.8847C115.951 87.0764 116.257 87.3824 116.449 87.7587C116.667 88.1865 116.667 88.7466 116.667 89.8667V92.8C116.667 93.9201 116.667 94.4802 116.449 94.908C116.257 95.2843 115.951 95.5903 115.575 95.782C115.147 96 114.587 96 113.467 96H106.533C105.413 96 104.853 96 104.425 95.782C104.049 95.5903 103.743 95.2843 103.551 94.908C103.333 94.4802 103.333 93.9201 103.333 92.8V86.6667Z" stroke="#344054" style="stroke:#344054;stroke:color(display-p3 0.2053 0.2525 0.3280);stroke-opacity:1;" stroke-width="1.5" stroke-linecap="round" stroke-linejoin="round"/>
<path d="M143.119 81V70.8182H149.433V72.1406H144.655V75.2429H148.98V76.5604H144.655V81H143.119ZM151.202 81V73.3636H152.689V81H151.202ZM151.953 72.1854C151.695 72.1854 151.473 72.0992 151.287 71.9268C151.105 71.7512 151.013 71.5424 151.013 71.3004C151.013 71.0552 151.105 70.8464 151.287 70.674C151.473 70.4983 151.695 70.4105 151.953 70.4105C152.212 70.4105 152.432 70.4983 152.614 70.674C152.8 70.8464 152.893 71.0552 152.893 71.3004C152.893 71.5424 152.8 71.7512 152.614 71.9268C152.432 72.0992 152.212 72.1854 151.953 72.1854ZM156.175 70.8182V81H154.689V70.8182H156.175ZM161.466 81.1541C160.714 81.1541 160.066 80.9934 159.522 80.6719C158.982 80.3471 158.565 79.8913 158.27 79.3047C157.978 78.7147 157.832 78.0237 157.832 77.2315C157.832 76.4493 157.978 75.7599 158.27 75.1634C158.565 74.5668 158.975 74.1011 159.502 73.7663C160.033 73.4316 160.653 73.2642 161.362 73.2642C161.793 73.2642 162.21 73.3355 162.615 73.478C163.019 73.6205 163.382 73.8442 163.703 74.1491C164.025 74.4541 164.279 74.8501 164.464 75.3374C164.65 75.8213 164.743 76.4096 164.743 77.1023V77.6293H158.672V76.5156H163.286C163.286 76.1245 163.206 75.7782 163.047 75.4766C162.888 75.1716 162.664 74.9313 162.376 74.7557C162.091 74.58 161.756 74.4922 161.372 74.4922C160.954 74.4922 160.59 74.5949 160.278 74.8004C159.97 75.0026 159.731 75.2678 159.562 75.5959C159.396 75.9207 159.314 76.2737 159.314 76.6548V77.5249C159.314 78.0353 159.403 78.4695 159.582 78.8274C159.764 79.1854 160.018 79.4588 160.343 79.6477C160.667 79.8333 161.047 79.9261 161.481 79.9261C161.763 79.9261 162.02 79.8864 162.252 79.8068C162.484 79.724 162.684 79.6013 162.853 79.4389C163.022 79.2765 163.152 79.076 163.241 78.8374L164.648 79.0909C164.535 79.5052 164.333 79.8681 164.042 80.1797C163.753 80.4879 163.39 80.7282 162.953 80.9006C162.519 81.0696 162.023 81.1541 161.466 81.1541ZM173.388 81.1541C172.636 81.1541 171.988 80.9934 171.444 80.6719C170.904 80.3471 170.486 79.8913 170.191 79.3047C169.9 78.7147 169.754 78.0237 169.754 77.2315C169.754 76.4493 169.9 75.7599 170.191 75.1634C170.486 74.5668 170.897 74.1011 171.424 73.7663C171.955 73.4316 172.574 73.2642 173.284 73.2642C173.715 73.2642 174.132 73.3355 174.537 73.478C174.941 73.6205 175.304 73.8442 175.625 74.1491C175.947 74.4541 176.2 74.8501 176.386 75.3374C176.572 75.8213 176.664 76.4096 176.664 77.1023V77.6293H170.594V76.5156H175.208C175.208 76.1245 175.128 75.7782 174.969 75.4766C174.81 75.1716 174.586 74.9313 174.298 74.7557C174.013 74.58 173.678 74.4922 173.294 74.4922C172.876 74.4922 172.511 74.5949 172.2 74.8004C171.892 75.0026 171.653 75.2678 171.484 75.5959C171.318 75.9207 171.235 76.2737 171.235 76.6548V77.5249C171.235 78.0353 171.325 78.4695 171.504 78.8274C171.686 79.1854 171.94 79.4588 172.265 79.6477C172.589 79.8333 172.969 79.9261 173.403 79.9261C173.685 79.9261 173.942 79.8864 174.174 79.8068C174.406 79.724 174.606 79.6013 174.775 79.4389C174.944 79.2765 175.074 79.076 175.163 78.8374L176.57 79.0909C176.457 79.5052 176.255 79.8681 175.963 80.1797C175.675 80.4879 175.312 80.7282 174.875 80.9006C174.44 81.0696 173.945 81.1541 173.388 81.1541ZM179.8 76.4659V81H178.314V73.3636H179.741V74.6065H179.835C180.011 74.2022 180.286 73.8774 180.66 73.6321C181.038 73.3868 181.514 73.2642 182.087 73.2642C182.608 73.2642 183.063 73.3736 183.454 73.5923C183.845 73.8078 184.149 74.1293 184.364 74.5568C184.58 74.9844 184.687 75.513 184.687 76.1428V81H183.201V76.3217C183.201 75.7682 183.057 75.3357 182.768 75.0241C182.48 74.7093 182.084 74.5518 181.58 74.5518C181.235 74.5518 180.929 74.6264 180.66 74.7756C180.395 74.9247 180.185 75.1435 180.029 75.4318C179.876 75.7169 179.8 76.0616 179.8 76.4659ZM189.898 81.1541C189.158 81.1541 188.522 80.9867 187.988 80.652C187.458 80.3139 187.05 79.8482 186.765 79.255C186.48 78.6617 186.338 77.9822 186.338 77.2166C186.338 76.4411 186.484 75.7566 186.775 75.1634C187.067 74.5668 187.478 74.1011 188.008 73.7663C188.539 73.4316 189.163 73.2642 189.883 73.2642C190.463 73.2642 190.98 73.3719 191.434 73.5874C191.888 73.7995 192.254 74.0978 192.532 74.4822C192.814 74.8667 192.982 75.3158 193.035 75.8295H191.588C191.508 75.4716 191.326 75.1634 191.041 74.9048C190.759 74.6463 190.381 74.517 189.907 74.517C189.493 74.517 189.13 74.6264 188.819 74.8452C188.51 75.0606 188.27 75.3688 188.098 75.7699C187.925 76.1676 187.839 76.6383 187.839 77.1818C187.839 77.7386 187.924 78.2192 188.093 78.6236C188.262 79.0279 188.501 79.3411 188.809 79.5632C189.12 79.7853 189.487 79.8963 189.907 79.8963C190.189 79.8963 190.444 79.8449 190.673 79.7422C190.905 79.6361 191.099 79.4853 191.255 79.2898C191.414 79.0942 191.525 78.8589 191.588 78.5838H193.035C192.982 79.0777 192.821 79.5185 192.552 79.9062C192.284 80.294 191.924 80.599 191.474 80.821C191.026 81.0431 190.501 81.1541 189.898 81.1541ZM194.624 81V73.3636H196.061V74.5767H196.141C196.28 74.1657 196.525 73.8426 196.876 73.6072C197.231 73.3686 197.632 73.2493 198.08 73.2493C198.172 73.2493 198.282 73.2526 198.408 73.2592C198.537 73.2659 198.638 73.2741 198.711 73.2841V74.706C198.651 74.6894 198.545 74.6712 198.393 74.6513C198.24 74.6281 198.088 74.6165 197.935 74.6165C197.584 74.6165 197.271 74.6911 196.996 74.8402C196.724 74.986 196.509 75.1899 196.349 75.4517C196.19 75.7102 196.111 76.0052 196.111 76.3366V81H194.624ZM201.169 83.8636C200.947 83.8636 200.745 83.8454 200.563 83.8089C200.381 83.7758 200.245 83.7393 200.155 83.6996L200.513 82.4815C200.785 82.5545 201.027 82.5859 201.239 82.576C201.451 82.5661 201.638 82.4865 201.801 82.3374C201.967 82.1882 202.112 81.9446 202.238 81.6065L202.422 81.0994L199.628 73.3636H201.219L203.153 79.2898H203.233L205.167 73.3636H206.762L203.615 82.0192C203.47 82.4169 203.284 82.7533 203.059 83.0284C202.833 83.3068 202.565 83.5156 202.253 83.6548C201.942 83.794 201.58 83.8636 201.169 83.8636ZM208.159 83.8636V73.3636H209.611V74.6016H209.735C209.822 74.4425 209.946 74.2585 210.108 74.0497C210.271 73.8409 210.496 73.6586 210.784 73.5028C211.073 73.3438 211.454 73.2642 211.928 73.2642C212.544 73.2642 213.095 73.42 213.578 73.7315C214.062 74.0431 214.442 74.4922 214.717 75.0788C214.995 75.6655 215.135 76.3714 215.135 77.1967C215.135 78.022 214.997 78.7296 214.722 79.3196C214.447 79.9062 214.069 80.3587 213.588 80.6768C213.108 80.9917 212.559 81.1491 211.943 81.1491C211.479 81.1491 211.099 81.0713 210.804 80.9155C210.513 80.7597 210.284 80.5774 210.118 80.3686C209.953 80.1598 209.825 79.9742 209.735 79.8118H209.646V83.8636H208.159ZM209.616 77.1818C209.616 77.7187 209.694 78.1894 209.85 78.5938C210.006 78.9981 210.231 79.3146 210.526 79.5433C210.821 79.7687 211.182 79.8814 211.61 79.8814C212.054 79.8814 212.425 79.7637 212.723 79.5284C213.022 79.2898 213.247 78.9666 213.4 78.5589C213.555 78.1513 213.633 77.6922 213.633 77.1818C213.633 76.678 213.557 76.2256 213.404 75.8246C213.255 75.4235 213.03 75.107 212.728 74.875C212.43 74.643 212.057 74.527 211.61 74.527C211.179 74.527 210.814 74.638 210.516 74.8601C210.221 75.0821 209.997 75.392 209.845 75.7898C209.692 76.1875 209.616 76.6515 209.616 77.1818ZM220.365 73.3636V74.5568H216.194V73.3636H220.365ZM217.312 71.5341H218.799V78.7578C218.799 79.0462 218.842 79.2633 218.928 79.4091C219.014 79.5516 219.125 79.6494 219.261 79.7024C219.4 79.7521 219.551 79.777 219.713 79.777C219.833 79.777 219.937 79.7687 220.027 79.7521C220.116 79.7356 220.186 79.7223 220.235 79.7124L220.504 80.9403C220.418 80.9735 220.295 81.0066 220.136 81.0398C219.977 81.0762 219.778 81.0961 219.539 81.0994C219.148 81.1061 218.784 81.0365 218.446 80.8906C218.108 80.7448 217.834 80.5194 217.625 80.2145C217.417 79.9096 217.312 79.5268 217.312 79.0661V71.5341ZM225.218 81.1541C224.466 81.1541 223.818 80.9934 223.274 80.6719C222.734 80.3471 222.316 79.8913 222.021 79.3047C221.73 78.7147 221.584 78.0237 221.584 77.2315C221.584 76.4493 221.73 75.7599 222.021 75.1634C222.316 74.5668 222.727 74.1011 223.254 73.7663C223.785 73.4316 224.405 73.2642 225.114 73.2642C225.545 73.2642 225.962 73.3355 226.367 73.478C226.771 73.6205 227.134 73.8442 227.455 74.1491C227.777 74.4541 228.03 74.8501 228.216 75.3374C228.402 75.8213 228.494 76.4096 228.494 77.1023V77.6293H222.424V76.5156H227.038C227.038 76.1245 226.958 75.7782 226.799 75.4766C226.64 75.1716 226.416 74.9313 226.128 74.7557C225.843 74.58 225.508 74.4922 225.124 74.4922C224.706 74.4922 224.342 74.5949 224.03 74.8004C223.722 75.0026 223.483 75.2678 223.314 75.5959C223.148 75.9207 223.066 76.2737 223.066 76.6548V77.5249C223.066 78.0353 223.155 78.4695 223.334 78.8274C223.516 79.1854 223.77 79.4588 224.095 79.6477C224.419 79.8333 224.799 79.9261 225.233 79.9261C225.515 79.9261 225.772 79.8864 226.004 79.8068C226.236 79.724 226.436 79.6013 226.605 79.4389C226.774 79.2765 226.904 79.076 226.993 78.8374L228.4 79.0909C228.287 79.5052 228.085 79.8681 227.794 80.1797C227.505 80.4879 227.142 80.7282 226.705 80.9006C226.271 81.0696 225.775 81.1541 225.218 81.1541ZM233.002 81.1491C232.386 81.1491 231.836 80.9917 231.352 80.6768C230.871 80.3587 230.493 79.9062 230.218 79.3196C229.947 78.7296 229.811 78.022 229.811 77.1967C229.811 76.3714 229.948 75.6655 230.223 75.0788C230.502 74.4922 230.883 74.0431 231.367 73.7315C231.851 73.42 232.399 73.2642 233.012 73.2642C233.486 73.2642 233.868 73.3438 234.156 73.5028C234.448 73.6586 234.673 73.8409 234.832 74.0497C234.994 74.2585 235.12 74.4425 235.21 74.6016H235.299V70.8182H236.786V81H235.334V79.8118H235.21C235.12 79.9742 234.991 80.1598 234.822 80.3686C234.656 80.5774 234.428 80.7597 234.136 80.9155C233.844 81.0713 233.467 81.1491 233.002 81.1491ZM233.331 79.8814C233.758 79.8814 234.119 79.7687 234.414 79.5433C234.713 79.3146 234.938 78.9981 235.091 78.5938C235.246 78.1894 235.324 77.7187 235.324 77.1818C235.324 76.6515 235.248 76.1875 235.096 75.7898C234.943 75.392 234.719 75.0821 234.424 74.8601C234.129 74.638 233.765 74.527 233.331 74.527C232.883 74.527 232.51 74.643 232.212 74.875C231.914 75.107 231.688 75.4235 231.536 75.8246C231.387 76.2256 231.312 76.678 231.312 77.1818C231.312 77.6922 231.388 78.1513 231.541 78.5589C231.693 78.9666 231.919 79.2898 232.217 79.5284C232.519 79.7637 232.89 79.8814 233.331 79.8814Z" fill="#344054" style="fill:#344054;fill:color(display-p3 0.2053 0.2525 0.3280);fill-opacity:1;"/>
<path d="M143.372 101L147.926 91.9915V91.9119H142.676V90.8182H149.199V91.9716L144.665 101H143.372ZM151.052 101V100.105L154.413 96.4261C154.807 95.9953 155.132 95.6207 155.387 95.3026C155.642 94.9811 155.831 94.6795 155.954 94.3977C156.08 94.1127 156.143 93.8144 156.143 93.5028C156.143 93.1449 156.057 92.835 155.884 92.5732C155.715 92.3113 155.483 92.1091 155.188 91.9666C154.893 91.8241 154.562 91.7528 154.194 91.7528C153.803 91.7528 153.462 91.834 153.17 91.9964C152.882 92.1555 152.658 92.3793 152.499 92.6676C152.343 92.956 152.265 93.294 152.265 93.6818H151.092C151.092 93.0852 151.229 92.5616 151.504 92.1108C151.78 91.66 152.154 91.3087 152.628 91.0568C153.105 90.8049 153.641 90.679 154.234 90.679C154.83 90.679 155.359 90.8049 155.82 91.0568C156.28 91.3087 156.642 91.6484 156.904 92.076C157.165 92.5036 157.296 92.9792 157.296 93.5028C157.296 93.8774 157.228 94.2436 157.093 94.6016C156.96 94.9562 156.728 95.3523 156.396 95.7898C156.068 96.224 155.613 96.7543 155.029 97.3807L152.742 99.8267V99.9062H157.475V101H151.052ZM162.85 101.139C162.101 101.139 161.463 100.935 160.936 100.528C160.409 100.117 160.006 99.5218 159.727 98.7429C159.449 97.9607 159.31 97.0161 159.31 95.9091C159.31 94.8087 159.449 93.8691 159.727 93.0902C160.009 92.308 160.414 91.7114 160.941 91.3004C161.471 90.8861 162.107 90.679 162.85 90.679C163.592 90.679 164.227 90.8861 164.754 91.3004C165.284 91.7114 165.688 92.308 165.967 93.0902C166.249 93.8691 166.389 94.8087 166.389 95.9091C166.389 97.0161 166.25 97.9607 165.972 98.7429C165.693 99.5218 165.291 100.117 164.764 100.528C164.237 100.935 163.599 101.139 162.85 101.139ZM162.85 100.045C163.592 100.045 164.169 99.6875 164.58 98.9716C164.991 98.2557 165.196 97.2348 165.196 95.9091C165.196 95.0275 165.102 94.2768 164.913 93.657C164.727 93.0372 164.459 92.5649 164.107 92.2401C163.759 91.9152 163.34 91.7528 162.85 91.7528C162.114 91.7528 161.539 92.1158 161.124 92.8416C160.71 93.5642 160.503 94.5866 160.503 95.9091C160.503 96.7907 160.596 97.5398 160.781 98.1562C160.967 98.7727 161.234 99.2417 161.582 99.5632C161.933 99.8847 162.356 100.045 162.85 100.045ZM172.395 101V90.8182H173.628V95.8693H173.747L178.321 90.8182H179.932L175.656 95.4119L179.932 101H178.441L174.901 96.267L173.628 97.6989V101H172.395ZM181.528 101V90.8182H185.088C185.797 90.8182 186.382 90.9408 186.843 91.1861C187.303 91.428 187.646 91.7545 187.872 92.1655C188.097 92.5732 188.21 93.0256 188.21 93.5227C188.21 93.9602 188.132 94.3215 187.976 94.6065C187.824 94.8916 187.621 95.117 187.369 95.2827C187.121 95.4484 186.851 95.571 186.559 95.6506V95.75C186.871 95.7699 187.184 95.8793 187.499 96.0781C187.814 96.277 188.077 96.562 188.289 96.9332C188.501 97.3045 188.607 97.7585 188.607 98.2955C188.607 98.8059 188.491 99.2649 188.259 99.6726C188.027 100.08 187.661 100.403 187.161 100.642C186.66 100.881 186.009 101 185.207 101H181.528ZM182.761 99.9062H185.207C186.012 99.9062 186.584 99.7505 186.922 99.4389C187.263 99.1241 187.434 98.7429 187.434 98.2955C187.434 97.9508 187.346 97.6326 187.171 97.3409C186.995 97.0459 186.745 96.8106 186.42 96.6349C186.095 96.456 185.711 96.3665 185.267 96.3665H182.761V99.9062ZM182.761 95.2926H185.048C185.419 95.2926 185.754 95.2197 186.052 95.0739C186.354 94.928 186.592 94.7225 186.768 94.4574C186.947 94.1922 187.036 93.8807 187.036 93.5227C187.036 93.0753 186.881 92.6958 186.569 92.3842C186.258 92.0694 185.764 91.9119 185.088 91.9119H182.761V95.2926Z" fill="#475467" style="fill:#475467;fill:color(display-p3 0.2798 0.3309 0.4026);fill-opacity:1;"/>
</g>
<defs>
<filter id="filter0_d_12_15312" x="0" y="0" width="410" height="152" filterUnits="userSpaceOnUse" color-interpolation-filters="sRGB">
<feFlood flood-opacity="0" result="BackgroundImageFix"/>
<feColorMatrix in="SourceAlpha" type="matrix" values="0 0 0 0 0 0 0 0 0 0 0 0 0 0 0 0 0 0 127 0" result="hardAlpha"/>
<feMorphology radius="12" operator="erode" in="SourceAlpha" result="effect1_dropShadow_12_15312"/>
<feOffset dy="16"/>
<feGaussianBlur stdDeviation="16"/>
<feColorMatrix type="matrix" values="0 0 0 0 0.345098 0 0 0 0 0.360784 0 0 0 0 0.372549 0 0 0 0.1 0"/>
<feBlend mode="normal" in2="BackgroundImageFix" result="effect1_dropShadow_12_15312"/>
<feBlend mode="normal" in="SourceGraphic" in2="effect1_dropShadow_12_15312" result="shape"/>
</filter>
<linearGradient id="paint0_linear_12_15312" x1="110" y1="66" x2="110" y2="106" gradientUnits="userSpaceOnUse">
<stop stop-color="#F3F5F7" style="stop-color:#F3F5F7;stop-color:color(display-p3 0.9520 0.9600 0.9680);stop-opacity:1;"/>
<stop offset="1" stop-color="#E0E6EB" style="stop-color:#E0E6EB;stop-color:color(display-p3 0.8800 0.9000 0.9200);stop-opacity:1;"/>
</linearGradient>
</defs>
</svg>
