<svg width="532" height="320" viewBox="0 0 532 320" fill="none" xmlns="http://www.w3.org/2000/svg">
<g filter="url(#filter0_d_12_15289)">
<circle cx="236.626" cy="159.624" r="125.212" transform="rotate(104.034 236.626 159.624)" stroke="url(#paint0_linear_12_15289)" stroke-opacity="0.2" style="" stroke-width="26.2037"/>
<circle cx="236.545" cy="159.768" r="96.0769" transform="rotate(104.034 236.545 159.768)" stroke="url(#paint1_linear_12_15289)" stroke-opacity="0.3" style="" stroke-width="30.8368"/>
<circle cx="236.441" cy="159.956" r="80.1769" transform="rotate(104.034 236.441 159.956)" stroke="url(#paint2_linear_12_15289)" stroke-opacity="0.5" style="" stroke-width="1.05357"/>
<circle cx="236.824" cy="159.992" r="43.9223" transform="rotate(104.034 236.824 159.992)" stroke="url(#paint3_linear_12_15289)" stroke-opacity="0.5" style="" stroke-width="1.05357"/>
</g>
<circle cx="238.659" cy="160.996" r="27.8589" transform="rotate(-15.9665 238.659 160.996)" fill="#EEECEC" style="fill:#EEECEC;fill:color(display-p3 0.9342 0.9241 0.9241);fill-opacity:1;"/>
<path d="M247.877 156.667C247.877 158.859 246.721 160.982 244.579 162.621C242.435 164.262 239.387 165.334 235.938 165.334C232.49 165.334 229.441 164.262 227.298 162.621C225.156 160.982 224 158.859 224 156.667C224 154.475 225.156 152.352 227.298 150.713C229.441 149.072 232.49 148 235.938 148C239.387 148 242.435 149.072 244.579 150.713C246.721 152.352 247.877 154.475 247.877 156.667Z" stroke="#C3B5FD" style="stroke:#C3B5FD;stroke:color(display-p3 0.7651 0.7079 0.9940);stroke-opacity:1;" stroke-width="4"/>
<path d="M254.846 164.667C254.846 166.859 253.69 168.982 251.548 170.621C249.405 172.262 246.356 173.334 242.908 173.334C239.459 173.334 236.411 172.262 234.267 170.621C232.125 168.982 230.969 166.859 230.969 164.667C230.969 162.475 232.125 160.352 234.267 158.713C236.411 157.072 239.459 156 242.908 156C246.356 156 249.405 157.072 251.548 158.713C253.69 160.352 254.846 162.475 254.846 164.667Z" stroke="#C3B5FD" style="stroke:#C3B5FD;stroke:color(display-p3 0.7651 0.7079 0.9940);stroke-opacity:1;" stroke-width="4"/>
<g filter="url(#filter1_d_12_15289)">
<rect x="303.726" y="137.178" width="23.342" height="23.342" rx="11.671" transform="rotate(2.95421 303.726 137.178)" fill="url(#paint4_linear_12_15289)" style=""/>
<path d="M321.465 145.118C321.769 143.65 321.593 142.651 320.845 141.699C320.028 140.63 318.46 140.13 316.417 140.025L310.551 139.722C310.135 139.7 309.779 139.986 309.682 140.4L306.419 155.835C306.365 156.137 306.579 156.414 306.881 156.43L310.514 156.617L310.167 158.198C310.115 158.462 310.293 158.699 310.596 158.715L313.661 158.873C314.039 158.892 314.355 158.642 314.411 158.303L315.262 154.313C315.317 153.973 315.672 153.725 316.012 153.742L316.466 153.766C319.418 153.918 321.826 152.825 322.688 149.368C323.027 147.939 322.978 146.681 322.265 145.807C322.051 145.529 321.796 145.326 321.465 145.118Z" fill="#009CDE" style="fill:#009CDE;fill:color(display-p3 0.0000 0.6118 0.8706);fill-opacity:1;"/>
<path d="M321.465 145.118C321.769 143.65 321.593 142.651 320.845 141.699C320.028 140.63 318.46 140.13 316.417 140.025L310.551 139.722C310.135 139.7 309.779 139.986 309.682 140.4L306.419 155.835C306.365 156.137 306.579 156.414 306.881 156.43L310.514 156.617L311.674 151.045C311.772 150.631 312.128 150.345 312.544 150.367L314.285 150.456C317.69 150.632 320.41 149.402 321.374 145.418C321.416 145.344 321.422 145.23 321.465 145.118Z" fill="#012169" style="fill:#012169;fill:color(display-p3 0.0039 0.1294 0.4118);fill-opacity:1;"/>
<path d="M313.025 144.721C313.077 144.457 313.435 144.133 313.775 144.151L318.392 144.389C318.922 144.416 319.449 144.482 319.9 144.581C320.312 144.678 321.059 144.907 321.426 145.154C321.729 143.686 321.553 142.687 320.805 141.735C320.028 140.63 318.46 140.13 316.417 140.025L310.551 139.722C310.135 139.7 309.779 139.986 309.682 140.4L306.419 155.835C306.365 156.137 306.579 156.414 306.881 156.43L310.514 156.617L313.025 144.721Z" fill="#003087" style="fill:#003087;fill:color(display-p3 0.0000 0.1882 0.5294);fill-opacity:1;"/>
</g>
<g filter="url(#filter2_d_12_15289)">
<rect x="187" y="214.22" width="35.1325" height="35.1325" rx="17.5662" transform="rotate(-0.358448 187 214.22)" fill="url(#paint5_linear_12_15289)" style=""/>
<path d="M197.192 222.121C197.122 222.132 197.046 222.143 196.976 222.153C196.272 222.243 195.64 222.508 195.069 222.924C194.949 223.011 194.839 223.102 194.714 223.198C194.704 223.173 194.694 223.148 194.693 223.128C194.672 222.992 194.651 222.852 194.625 222.716C194.589 222.485 194.473 222.385 194.241 222.386L193.663 222.39C193.316 222.392 193.251 222.458 193.253 222.805L193.319 233.332C193.319 233.382 193.319 233.432 193.325 233.483C193.336 233.633 193.427 233.728 193.573 233.733C193.925 233.735 194.282 233.733 194.634 233.726C194.78 233.725 194.87 233.624 194.884 233.473C194.889 233.423 194.888 233.372 194.888 233.322L194.865 229.681C194.921 229.725 194.951 229.75 194.976 229.775C195.881 230.519 196.919 230.759 198.049 230.531C199.074 230.323 199.784 229.69 200.241 228.762C200.589 228.06 200.73 227.315 200.745 226.54C200.765 225.68 200.674 224.836 200.322 224.038C199.889 223.055 199.175 222.411 198.103 222.196C197.942 222.162 197.776 222.148 197.609 222.124C197.469 222.12 197.333 222.121 197.192 222.121ZM194.821 224.244C194.821 224.168 194.841 224.123 194.906 224.077C195.592 223.595 196.35 223.339 197.195 223.399C197.945 223.45 198.561 223.813 198.888 224.691C199.087 225.228 199.141 225.786 199.145 226.349C199.148 226.872 199.111 227.386 198.953 227.89C198.618 228.963 197.836 229.375 196.82 229.336C196.115 229.311 195.5 229.043 194.934 228.649C194.874 228.604 194.848 228.564 194.848 228.484C194.848 227.774 194.839 227.07 194.834 226.361C194.83 225.657 194.831 224.953 194.821 224.244ZM205.154 222.072C205.103 222.077 205.053 222.087 205.008 222.093C204.515 222.121 204.033 222.184 203.556 222.308C203.249 222.39 202.953 222.503 202.657 222.605C202.477 222.667 202.387 222.798 202.393 222.994C202.399 223.16 202.39 223.326 202.396 223.492C202.403 223.734 202.504 223.798 202.74 223.737C203.131 223.633 203.523 223.52 203.92 223.442C204.538 223.323 205.161 223.269 205.79 223.36C206.118 223.409 206.425 223.502 206.638 223.778C206.826 224.018 206.898 224.304 206.91 224.601C206.927 225.018 206.925 225.436 206.933 225.853C206.933 225.873 206.928 225.898 206.923 225.923C206.898 225.919 206.878 225.924 206.858 225.919C206.329 225.796 205.795 225.709 205.247 225.682C204.678 225.656 204.115 225.695 203.573 225.889C202.926 226.119 202.405 226.515 202.102 227.151C201.869 227.645 201.837 228.168 201.916 228.696C202.021 229.399 202.376 229.94 203.002 230.284C203.603 230.612 204.252 230.648 204.91 230.543C205.669 230.423 206.341 230.097 206.931 229.605C206.951 229.585 206.976 229.57 207.011 229.549C207.042 229.74 207.069 229.921 207.105 230.102C207.136 230.258 207.232 230.358 207.378 230.362C207.65 230.365 207.927 230.363 208.198 230.357C208.334 230.351 208.424 230.26 208.438 230.119C208.443 230.073 208.443 230.023 208.442 229.978L208.409 224.647C208.408 224.43 208.396 224.214 208.36 223.998C208.26 223.35 207.98 222.818 207.394 222.475C207.056 222.276 206.683 222.178 206.296 222.125C206.114 222.101 205.933 222.087 205.752 222.063C205.556 222.069 205.355 222.07 205.154 222.072ZM206.954 228.483C206.955 228.549 206.935 228.594 206.88 228.635C206.319 229.046 205.702 229.321 205.003 229.396C204.717 229.428 204.43 229.42 204.158 229.311C203.84 229.187 203.633 228.967 203.53 228.646C203.427 228.324 203.425 227.992 203.519 227.67C203.642 227.252 203.937 227.013 204.339 226.88C204.745 226.747 205.168 226.724 205.585 226.762C206.008 226.794 206.421 226.872 206.844 226.925C206.924 226.934 206.95 226.974 206.95 227.055C206.947 227.296 206.953 227.533 206.955 227.774C206.951 228.011 206.948 228.247 206.954 228.483ZM213.384 228.755C212.724 226.963 212.064 225.167 211.404 223.375C211.301 223.089 211.189 222.808 211.081 222.527C211.025 222.382 210.919 222.287 210.758 222.288C210.376 222.285 209.994 222.283 209.606 222.29C209.481 222.291 209.421 222.392 209.447 222.518C209.473 222.623 209.503 222.723 209.544 222.824C210.545 225.257 211.551 227.695 212.562 230.123C212.649 230.329 212.67 230.505 212.576 230.717C212.413 231.085 212.284 231.473 212.116 231.841C211.967 232.169 211.717 232.417 211.355 232.515C211.099 232.587 210.843 232.598 210.581 232.575C210.455 232.566 210.329 232.536 210.203 232.527C210.032 232.518 209.947 232.594 209.943 232.77C209.939 232.936 209.941 233.102 209.947 233.268C209.953 233.545 210.05 233.67 210.322 233.713C210.604 233.762 210.89 233.805 211.172 233.809C212.032 233.823 212.714 233.472 213.152 232.72C213.326 232.422 213.485 232.109 213.609 231.791C214.782 228.776 215.94 225.756 217.103 222.736C217.138 222.646 217.168 222.555 217.182 222.459C217.201 222.318 217.135 222.238 216.995 222.239C216.663 222.236 216.326 222.243 215.994 222.245C215.808 222.246 215.677 222.328 215.608 222.509C215.583 222.58 215.554 222.645 215.529 222.716C214.956 224.394 214.383 226.073 213.81 227.756C213.687 228.119 213.558 228.487 213.43 228.875C213.409 228.82 213.399 228.79 213.384 228.755Z" fill="#353E47" style="fill:#353E47;fill:color(display-p3 0.2078 0.2431 0.2784);fill-opacity:1;"/>
<path d="M189.814 235.129C189.587 235.009 189.442 235.045 189.327 235.257L189.328 235.358C189.399 235.453 189.46 235.563 189.551 235.643C191.726 237.561 194.174 239.004 196.901 239.973C198.222 240.443 199.572 240.781 200.952 240.999C201.792 241.13 202.638 241.22 203.488 241.25L203.503 241.25C203.674 241.254 203.85 241.258 204.026 241.266C204.067 241.266 204.112 241.276 204.152 241.281L205.213 241.274C205.254 241.269 205.299 241.258 205.339 241.258C206.234 241.233 207.129 241.136 208.013 241C209.295 240.801 210.55 240.496 211.785 240.091C213.562 239.502 215.242 238.722 216.779 237.651C216.944 237.534 217.12 237.417 217.26 237.276C217.505 237.028 217.387 236.666 217.049 236.578C216.888 236.539 216.737 236.58 216.592 236.641C213.963 237.764 211.227 238.49 208.392 238.845C207.523 238.951 206.648 239.027 205.773 239.053C204.174 239.103 202.579 239.022 200.993 238.821C199.921 238.687 198.864 238.492 197.811 238.247C195.585 237.723 193.442 236.972 191.389 235.959C190.854 235.695 190.339 235.407 189.814 235.129Z" fill="#F29000" style="fill:#F29000;fill:color(display-p3 0.9490 0.5647 0.0000);fill-opacity:1;"/>
<path d="M219.606 234.495C219.823 234.564 220.015 234.658 220.067 234.909L220.072 235.779C220.038 235.961 220.009 236.147 219.97 236.328C219.755 237.35 219.384 238.303 218.745 239.132C218.555 239.375 218.33 239.593 218.111 239.81C218.051 239.871 217.955 239.917 217.87 239.937C217.724 239.974 217.638 239.879 217.662 239.733C217.672 239.682 217.692 239.632 217.712 239.581L217.737 239.515C218.016 238.791 218.297 238.061 218.492 237.308C218.595 236.925 218.684 236.537 218.661 236.135C218.649 235.874 218.532 235.683 218.275 235.614C218.039 235.551 217.792 235.497 217.55 235.483C216.977 235.442 216.398 235.48 215.825 235.539C215.433 235.582 215.046 235.63 214.654 235.672C214.619 235.678 214.579 235.678 214.544 235.678C214.468 235.684 214.383 235.664 214.362 235.589C214.342 235.528 214.351 235.443 214.386 235.387C214.431 235.317 214.501 235.261 214.571 235.21C215.177 234.789 215.86 234.553 216.578 234.413C217.231 234.288 217.89 234.254 218.549 234.305C218.906 234.333 219.264 234.381 219.606 234.495Z" fill="#F29000" style="fill:#F29000;fill:color(display-p3 0.9490 0.5647 0.0000);fill-opacity:1;"/>
</g>
<g filter="url(#filter3_d_12_15289)">
<rect x="273" y="228" width="54.2129" height="54.2129" rx="27.1064" fill="url(#paint6_linear_12_15289)" style=""/>
<path d="M323.824 255.106C323.824 268.198 313.21 278.824 300.106 278.824C287.002 278.824 276.388 268.198 276.388 255.106C276.388 242.002 287.002 231.388 300.106 231.388C313.21 231.388 323.824 242.002 323.824 255.106Z" fill="#283544" style="fill:#283544;fill:color(display-p3 0.1569 0.2078 0.2667);fill-opacity:1;"/>
<path d="M311.223 249.105C311.094 249.18 308.013 250.773 308.013 254.306C308.158 258.335 311.901 259.748 311.965 259.748C311.901 259.824 311.4 261.673 309.916 263.612C308.739 265.282 307.432 266.965 305.447 266.965C303.559 266.965 302.882 265.852 300.704 265.852C298.364 265.852 297.702 266.965 295.912 266.965C293.927 266.965 292.523 265.192 291.282 263.537C289.668 261.372 288.297 257.975 288.249 254.712C288.216 252.984 288.572 251.284 289.475 249.841C290.749 247.826 293.024 246.458 295.508 246.413C297.412 246.353 299.106 247.631 300.268 247.631C301.381 247.631 303.463 246.413 305.818 246.413C306.834 246.414 309.545 246.699 311.223 249.105ZM300.107 246.068C299.768 244.489 300.704 242.91 301.575 241.903C302.688 240.685 304.446 239.859 305.963 239.859C306.06 241.438 305.446 242.986 304.35 244.114C303.366 245.331 301.672 246.248 300.107 246.068Z" fill="white" style="fill:white;fill-opacity:1;"/>
</g>
<g filter="url(#filter4_d_12_15289)">
<g clip-path="url(#clip0_12_15289)">
<rect x="112.722" y="164.956" width="48.2773" height="48.2773" rx="24.1387" fill="url(#paint7_linear_12_15289)" style=""/>
<path d="M117.055 174.565C115.74 177.147 115.74 180.526 115.74 187.286V190.907C115.74 197.666 115.74 201.046 117.055 203.628C118.212 205.899 120.059 207.745 122.33 208.902C124.911 210.218 128.291 210.218 135.051 210.218H138.671C145.431 210.218 148.811 210.218 151.392 208.902C153.663 207.745 155.51 205.899 156.667 203.628C157.982 201.046 157.982 197.666 157.982 190.907V187.286C157.982 180.526 157.982 177.147 156.667 174.565C155.51 172.294 153.663 170.447 151.392 169.29C148.811 167.975 145.431 167.975 138.671 167.975H135.051C128.291 167.975 124.911 167.975 122.33 169.29C120.059 170.447 118.212 172.294 117.055 174.565Z" fill="url(#paint8_linear_12_15289)" style=""/>
<path d="M106.089 168.851C105.547 171.931 105.547 176.018 105.547 182.175V187.079C105.547 196.234 105.547 200.811 107.329 204.308C108.896 207.384 111.397 209.884 114.473 211.452C117.969 213.233 122.547 213.233 131.702 213.233H136.606C145.761 213.233 150.338 213.233 153.835 211.452C156.911 209.884 159.412 207.384 160.979 204.308C162.761 200.811 162.761 196.234 162.761 187.079V182.175C162.761 173.02 162.761 168.442 160.979 164.945C159.466 161.977 157.084 159.543 154.154 157.969L106.089 168.851Z" fill="url(#paint9_linear_12_15289)" style=""/>
<path d="M157.545 200.944C157.351 201.964 157.071 202.833 156.666 203.627C155.509 205.898 153.663 207.744 151.392 208.901C148.887 210.177 145.632 210.215 139.269 210.216H136.949V205.444L157.545 200.944Z" fill="url(#paint10_linear_12_15289)" style=""/>
<path d="M138.672 167.975H135.051C133.736 167.975 132.549 167.975 131.471 167.985V173.965L151.624 169.411C151.548 169.37 151.471 169.33 151.393 169.29C149.96 168.56 148.28 168.235 145.914 168.091C144.017 167.975 141.679 167.975 138.672 167.975Z" fill="url(#paint11_linear_12_15289)" style=""/>
<path d="M157.982 191.169C157.982 195.703 157.974 198.692 157.545 200.946L150.382 202.511V191.836L157.982 190.069V191.169Z" fill="url(#paint12_linear_12_15289)" style=""/>
<path fill-rule="evenodd" clip-rule="evenodd" d="M135.265 185.14C135.265 184.17 136.057 183.797 137.37 183.797C139.253 183.797 141.631 184.369 143.514 185.388V179.546C141.458 178.726 139.427 178.402 137.37 178.402C132.342 178.402 128.997 181.038 128.997 185.438C128.997 192.3 138.411 191.206 138.411 194.164C138.411 195.308 137.42 195.681 136.033 195.681C133.977 195.681 131.351 194.836 129.27 193.692V199.609C131.574 200.603 133.902 201.026 136.033 201.026C141.185 201.026 144.728 198.465 144.728 194.015C144.703 186.607 135.265 187.924 135.265 185.14Z" fill="white" style="fill:white;fill-opacity:1;"/>
</g>
<rect x="113.361" y="165.595" width="46.9983" height="46.9983" rx="23.4991" stroke="#868C98" style="stroke:#868C98;stroke:color(display-p3 0.5255 0.5490 0.5961);stroke-opacity:1;" stroke-width="1.27906"/>
</g>
<g filter="url(#filter5_d_12_15289)">
<rect x="268" y="25.1584" width="56.1171" height="56.1171" rx="28.0586" transform="rotate(-4.24932 268 25.1584)" fill="#F2AE40" style="fill:#F2AE40;fill:color(display-p3 0.9490 0.6824 0.2510);fill-opacity:1;"/>
<path d="M322.251 55.2223C319.956 68.5832 307.263 77.5536 293.9 75.2572C280.543 72.9613 271.573 60.2673 273.87 46.9074C276.164 33.5451 288.857 24.5741 302.215 26.8699C315.577 29.1656 324.547 41.861 322.251 55.2225L322.251 55.2223L322.251 55.2223Z" fill="#F7931A" style="fill:#F7931A;fill:color(display-p3 0.9686 0.5765 0.1020);fill-opacity:1;"/>
<path d="M308.599 46.7726C308.844 43.4778 306.233 41.9105 302.754 40.994L303.526 36.4982L300.789 36.0283L300.037 40.4058C299.318 40.2821 298.58 40.17 297.847 40.059L298.605 35.6526L295.87 35.1825L295.096 39.677C294.502 39.5873 293.918 39.4985 293.351 39.4013L293.353 39.3871L289.579 38.7372L289.077 41.6601C289.077 41.6601 291.104 41.969 291.065 42.0002C292.173 42.191 292.423 42.8966 292.433 43.47L291.553 48.5918C291.629 48.6053 291.728 48.6256 291.839 48.6607C291.748 48.6451 291.65 48.6279 291.55 48.6115L290.316 55.7865C290.207 56.127 289.907 56.6482 289.132 56.5163C289.162 56.5533 287.143 56.1741 287.143 56.1741L286.037 59.3489L289.599 59.9608C290.261 60.0756 290.912 60.1989 291.551 60.3128L290.771 64.8601L293.505 65.3302L294.278 60.8311C295.026 60.9756 295.751 61.1064 296.46 61.2277L295.69 65.7057L298.426 66.1756L299.207 61.6367C303.853 62.1634 307.273 61.5578 308.415 57.3057C309.335 53.8822 307.966 52.0488 305.462 50.9729C307.188 50.4375 308.424 49.1845 308.6 46.7729L308.599 46.7724L308.599 46.7726ZM303.099 55.8374C302.517 59.2358 296.765 57.8495 294.91 57.5325L295.946 51.5079C297.801 51.8273 303.708 52.2931 303.099 55.8374L303.099 55.8374ZM303.287 47.1187C302.755 50.21 297.964 49.0155 296.42 48.7501L297.359 43.2862C298.904 43.5516 303.841 43.8943 303.287 47.1187L303.287 47.1187Z" fill="white" style="fill:white;fill-opacity:1;"/>
</g>
<g filter="url(#filter6_d_12_15289)">
<rect x="167.761" y="81.0005" width="37.7768" height="37.7768" rx="18.8884" transform="rotate(2.67144 167.761 81.0005)" fill="url(#paint13_linear_12_15289)" style="" shape-rendering="crispEdges"/>
<circle cx="185.748" cy="100.749" r="16.5274" transform="rotate(2.67144 185.748 100.749)" fill="#F11E15" style="fill:#F11E15;fill:color(display-p3 0.9451 0.1176 0.0824);fill-opacity:1;"/>
<path fill-rule="evenodd" clip-rule="evenodd" d="M188.8 111.776C189.959 111.313 191.238 110.737 192.484 110.043C191.251 111.335 189.981 111.634 188.8 111.776ZM185.911 114.025C185.796 114.02 184.819 113.974 184.835 113.617C184.845 113.421 185.187 112.798 185.465 112.734C186.061 112.522 187.328 112.262 187.405 112.265C187.522 112.271 188.535 112.44 188.649 112.446C188.727 112.449 189.474 112.441 189.911 112.346C190.422 112.248 191.06 112.042 191.662 111.712C192.266 111.382 193.16 110.668 193.58 110.051C193.83 109.705 193.971 109.236 194.262 108.93C194.634 108.474 195.317 108.106 195.887 107.618C196.461 107.086 197.039 106.519 197.574 105.91C196.285 110.854 189.705 114.202 185.911 114.025ZM189.567 86.985C191.539 87.5141 193.766 88.4881 195.625 90.5649C196.223 91.227 196.731 92.1268 196.933 92.8091C197.034 93.0903 197.014 93.5284 197.2 93.8135C197.49 94.3068 198.018 94.7258 198.384 95.2613C198.868 95.8388 199.151 96.4496 199.398 97.0953C199.503 97.2974 199.531 97.5773 199.636 97.8221C199.777 98.1437 199.981 99.6636 199.955 100.221C199.901 101.371 199.446 102.779 198.883 103.865C198.881 103.905 198.924 103.907 198.918 104.025L198.872 105.015C198.156 111.102 190.718 115.162 186.181 114.951C185.635 114.925 184.076 114.773 184.128 113.664C184.134 113.542 184.23 113.191 184.321 112.916C183.452 112.998 181.756 113.236 180.778 113.19C180.04 113.156 176.638 112.958 176.725 111.094C176.807 109.348 179.862 109.373 180.449 109.4C182.089 109.476 183.787 110.031 185.431 110.903C185.151 110.971 184.639 111.106 184.561 111.102C184.443 111.097 184.293 110.968 184.137 110.924C183.063 110.473 181.821 110.179 180.687 110.127C180.025 110.096 179.908 110.05 179.117 110.214C179.04 110.21 177.655 110.503 177.629 111.057C177.61 111.451 178.694 111.741 178.925 111.791C179.39 111.891 180.364 112.016 180.441 112.02C187.402 112.345 198.467 106.982 198.794 99.9659C198.855 98.6597 198.355 96.7702 197.235 95.5227C197.133 96.0363 196.992 96.5847 196.768 97.1333C196.637 97.4849 196.294 98.1032 196.291 98.1823C196.291 98.1823 198.142 100.452 198.12 100.931C198.107 101.208 197.622 102.414 197.62 102.454C197.28 101.367 196.779 100.27 195.735 99.1504C195.572 99.3013 195.406 99.5293 195.239 99.7228C195.03 99.9915 194.781 100.258 194.535 100.523C193.998 101.096 192.778 102.07 192.773 102.187C192.773 102.187 194.111 103.683 194.506 105.368C194.573 105.611 194.667 106.089 194.663 106.17C194.652 106.408 193.847 106.889 193.845 106.927C193.867 105.578 193.387 104.125 192.002 102.71C190.264 103.9 188.457 104.85 186.737 105.601C187.712 106.523 188.24 107.818 188.198 108.729C188.177 109.165 187.898 110.107 187.696 110.214C187.453 110.363 187.18 110.43 186.9 110.498C187.231 110.113 187.548 109.215 187.566 108.821C187.599 108.107 187.183 106.974 186.427 106.341C186.239 106.214 185.977 105.924 185.9 105.92C185.783 105.915 184.785 106.305 184.23 106.478C183.591 106.688 182.919 106.854 182.245 107.02C180.223 107.523 178.328 107.793 176.414 107.703C175.671 107.669 172.427 107.438 172.51 105.653C172.634 102.998 178.671 103.04 179.487 103.078C181.287 103.162 183 103.443 184.798 104.358C184.439 104.459 183.761 104.706 183.683 104.703C183.567 104.697 181.561 104.01 179.724 103.924C178.902 103.886 177.884 103.92 177.095 104.037C176.462 104.13 175.83 104.261 175.271 104.471C175.073 104.502 173.597 105.07 173.572 105.623C173.568 105.702 173.794 105.874 173.947 105.96C174.712 106.392 175.418 106.386 176.199 106.423C183.587 106.768 195.198 101.388 196.151 95.275L196.198 94.2851C196.031 90.2646 190.054 87.4021 187.082 87.2634C187.004 87.2598 186.497 87.2788 186.176 87.339C186.371 87.4294 186.604 87.4403 186.799 87.5287C186.952 87.5785 187.141 87.6667 187.336 87.751C187.643 87.8873 188.176 88.1906 188.513 88.5214C188.774 88.7735 188.913 89.1377 189.18 89.3473C189.367 89.5573 189.759 89.535 190.067 89.6713C191.067 90.033 192.298 90.5661 193.331 91.0921C193.748 91.3473 194.283 91.6121 194.742 91.9121C194.894 92.0411 194.998 92.2818 195.107 92.4841C195.287 92.8116 195.496 93.3397 195.553 93.7794C193.596 92.135 191.598 91.247 189.596 90.4807L189.482 90.4754C189.51 91.55 189.028 92.5988 188.234 93.6351C190.437 94.3355 192.739 95.3129 194.972 97.0495C194.841 97.3198 194.67 97.629 194.463 97.8958C193.519 97.1362 192.489 96.5332 191.534 96.0129C191.304 95.8863 188.078 94.5019 187.569 94.4781C187.45 94.4726 186.632 95.2292 186.188 95.5663C185.092 96.3872 184.005 97.0134 182.918 97.5969C185.751 98.1295 188.579 98.8957 191.341 100.929C191.138 101.117 190.687 101.497 190.573 101.491C190.495 101.488 189.776 100.899 189.356 100.678C187.408 99.5933 183.66 98.4691 181.355 98.3615C181.159 98.3524 178.849 99.2366 178.289 99.367C176.665 99.7689 174.879 100.279 173.24 100.203C172.688 100.177 171.597 100.089 171.64 99.1787C171.723 97.3938 177.959 97.2477 178.387 97.2676L179.755 97.3315C178.759 97.6814 177.569 98.0629 176.621 98.2585C175.71 98.4559 174.766 98.5663 173.89 98.8039C173.73 98.8371 173.569 98.9475 173.41 99.0214C173.41 99.0214 173.371 99.0603 173.486 99.0656C173.564 99.0692 174.864 98.9286 175.573 98.8052C179.172 98.0991 183.068 96.8518 186.743 93.7261C187.641 92.9305 188.313 91.9312 188.554 91.0298L188.591 90.2367C188.513 89.359 187.306 88.3899 186.536 88.1141C186.034 87.9301 185.065 87.6877 184.951 87.6824C184.752 87.6731 184.473 87.778 184.264 88.0874C185.5 88.4235 186.96 88.2131 187.982 89.8504C187.982 89.8504 188.019 89.8908 187.976 89.9681C187.667 89.8358 183.879 88.7422 183.255 88.7131C183.022 88.7022 181.124 89.9269 180.679 90.1826C179.474 90.8419 178.23 91.4607 177.028 91.9982L181.053 92.2267C182.805 92.4263 184.792 92.759 186.571 93.1997C186.492 93.2346 185.753 93.9564 185.597 93.9491C185.52 93.9455 184.277 93.6476 183.655 93.5393C182.529 93.3262 181.359 93.235 180.189 93.0991L175.104 92.9798C174.83 92.9304 174.286 92.8664 174.308 92.3877C174.325 92.0307 174.763 91.8153 175.086 91.7084C175.323 91.6402 175.602 91.4987 175.839 91.4285C178.392 90.4764 181.038 89.1687 183.658 87.6607C183.583 87.6185 183.421 87.611 183.343 87.6074C183.229 87.602 182.914 87.6259 182.677 87.6941C182.712 87.7385 182.753 87.7404 182.79 87.7421C182.431 87.9225 181.825 88.2887 181.707 88.2831C181.435 88.2704 181.061 87.8952 181.072 87.6619C181.105 86.9479 182.71 86.9802 182.825 86.9855C184.428 87.0217 184.545 87.1085 184.66 87.1138C184.737 87.1174 185.421 86.7916 185.856 86.7326C186.487 86.6015 186.8 86.616 187.387 86.6434C188.052 86.6745 188.83 86.79 189.567 86.985Z" fill="white" style="fill:white;fill-opacity:1;"/>
</g>
<defs>
<filter id="filter0_d_12_15289" x="10.2793" y="-26.7222" width="452.693" height="452.693" filterUnits="userSpaceOnUse" color-interpolation-filters="sRGB">
<feFlood flood-opacity="0" result="BackgroundImageFix"/>
<feColorMatrix in="SourceAlpha" type="matrix" values="0 0 0 0 0 0 0 0 0 0 0 0 0 0 0 0 0 0 127 0" result="hardAlpha"/>
<feMorphology radius="8" operator="erode" in="SourceAlpha" result="effect1_dropShadow_12_15289"/>
<feOffset dy="40"/>
<feGaussianBlur stdDeviation="48"/>
<feComposite in2="hardAlpha" operator="out"/>
<feColorMatrix type="matrix" values="0 0 0 0 0.345098 0 0 0 0 0.360784 0 0 0 0 0.372549 0 0 0 0.2 0"/>
<feBlend mode="normal" in2="BackgroundImageFix" result="effect1_dropShadow_12_15289"/>
<feBlend mode="normal" in="SourceGraphic" in2="effect1_dropShadow_12_15289" result="shape"/>
</filter>
<filter id="filter1_d_12_15289" x="238.332" y="102.165" width="152.895" height="152.895" filterUnits="userSpaceOnUse" color-interpolation-filters="sRGB">
<feFlood flood-opacity="0" result="BackgroundImageFix"/>
<feColorMatrix in="SourceAlpha" type="matrix" values="0 0 0 0 0 0 0 0 0 0 0 0 0 0 0 0 0 0 127 0" result="hardAlpha"/>
<feMorphology radius="5.8355" operator="erode" in="SourceAlpha" result="effect1_dropShadow_12_15289"/>
<feOffset dy="29.1775"/>
<feGaussianBlur stdDeviation="35.013"/>
<feComposite in2="hardAlpha" operator="out"/>
<feColorMatrix type="matrix" values="0 0 0 0 0.345098 0 0 0 0 0.360784 0 0 0 0 0.372549 0 0 0 0.2 0"/>
<feBlend mode="normal" in2="BackgroundImageFix" result="effect1_dropShadow_12_15289"/>
<feBlend mode="normal" in="SourceGraphic" in2="effect1_dropShadow_12_15289" result="shape"/>
</filter>
<filter id="filter2_d_12_15289" x="90.3854" y="161.302" width="228.58" height="228.58" filterUnits="userSpaceOnUse" color-interpolation-filters="sRGB">
<feFlood flood-opacity="0" result="BackgroundImageFix"/>
<feColorMatrix in="SourceAlpha" type="matrix" values="0 0 0 0 0 0 0 0 0 0 0 0 0 0 0 0 0 0 127 0" result="hardAlpha"/>
<feMorphology radius="8.78312" operator="erode" in="SourceAlpha" result="effect1_dropShadow_12_15289"/>
<feOffset dy="43.9156"/>
<feGaussianBlur stdDeviation="52.6987"/>
<feComposite in2="hardAlpha" operator="out"/>
<feColorMatrix type="matrix" values="0 0 0 0 0.345098 0 0 0 0 0.360784 0 0 0 0 0.372549 0 0 0 0.2 0"/>
<feBlend mode="normal" in2="BackgroundImageFix" result="effect1_dropShadow_12_15289"/>
<feBlend mode="normal" in="SourceGraphic" in2="effect1_dropShadow_12_15289" result="shape"/>
</filter>
<filter id="filter3_d_12_15289" x="123.914" y="146.68" width="352.384" height="352.384" filterUnits="userSpaceOnUse" color-interpolation-filters="sRGB">
<feFlood flood-opacity="0" result="BackgroundImageFix"/>
<feColorMatrix in="SourceAlpha" type="matrix" values="0 0 0 0 0 0 0 0 0 0 0 0 0 0 0 0 0 0 127 0" result="hardAlpha"/>
<feMorphology radius="13.5532" operator="erode" in="SourceAlpha" result="effect1_dropShadow_12_15289"/>
<feOffset dy="67.7661"/>
<feGaussianBlur stdDeviation="81.3193"/>
<feComposite in2="hardAlpha" operator="out"/>
<feColorMatrix type="matrix" values="0 0 0 0 0.345098 0 0 0 0 0.360784 0 0 0 0 0.372549 0 0 0 0.2 0"/>
<feBlend mode="normal" in2="BackgroundImageFix" result="effect1_dropShadow_12_15289"/>
<feBlend mode="normal" in="SourceGraphic" in2="effect1_dropShadow_12_15289" result="shape"/>
</filter>
<filter id="filter4_d_12_15289" x="0.164948" y="103.561" width="273.391" height="273.391" filterUnits="userSpaceOnUse" color-interpolation-filters="sRGB">
<feFlood flood-opacity="0" result="BackgroundImageFix"/>
<feColorMatrix in="SourceAlpha" type="matrix" values="0 0 0 0 0 0 0 0 0 0 0 0 0 0 0 0 0 0 127 0" result="hardAlpha"/>
<feMorphology radius="10.2325" operator="erode" in="SourceAlpha" result="effect1_dropShadow_12_15289"/>
<feOffset dy="51.1623"/>
<feGaussianBlur stdDeviation="61.3947"/>
<feComposite in2="hardAlpha" operator="out"/>
<feColorMatrix type="matrix" values="0 0 0 0 0.345098 0 0 0 0 0.360784 0 0 0 0 0.372549 0 0 0 0.2 0"/>
<feBlend mode="normal" in2="BackgroundImageFix" result="effect1_dropShadow_12_15289"/>
<feBlend mode="normal" in="SourceGraphic" in2="effect1_dropShadow_12_15289" result="shape"/>
</filter>
<filter id="filter5_d_12_15289" x="62.2369" y="-91.234" width="471.647" height="471.647" filterUnits="userSpaceOnUse" color-interpolation-filters="sRGB">
<feFlood flood-opacity="0" result="BackgroundImageFix"/>
<feColorMatrix in="SourceAlpha" type="matrix" values="0 0 0 0 0 0 0 0 0 0 0 0 0 0 0 0 0 0 127 0" result="hardAlpha"/>
<feMorphology radius="18.7057" operator="erode" in="SourceAlpha" result="effect1_dropShadow_12_15289"/>
<feOffset dy="93.5286"/>
<feGaussianBlur stdDeviation="112.234"/>
<feComposite in2="hardAlpha" operator="out"/>
<feColorMatrix type="matrix" values="0 0 0 0 0.345098 0 0 0 0 0.360784 0 0 0 0 0.372549 0 0 0 0.2 0"/>
<feBlend mode="normal" in2="BackgroundImageFix" result="effect1_dropShadow_12_15289"/>
<feBlend mode="normal" in="SourceGraphic" in2="effect1_dropShadow_12_15289" result="shape"/>
</filter>
<filter id="filter6_d_12_15289" x="62.1137" y="24.3352" width="247.269" height="247.269" filterUnits="userSpaceOnUse" color-interpolation-filters="sRGB">
<feFlood flood-opacity="0" result="BackgroundImageFix"/>
<feColorMatrix in="SourceAlpha" type="matrix" values="0 0 0 0 0 0 0 0 0 0 0 0 0 0 0 0 0 0 127 0" result="hardAlpha"/>
<feMorphology radius="9.44421" operator="erode" in="SourceAlpha" result="effect1_dropShadow_12_15289"/>
<feOffset dy="47.221"/>
<feGaussianBlur stdDeviation="56.6652"/>
<feComposite in2="hardAlpha" operator="out"/>
<feColorMatrix type="matrix" values="0 0 0 0 0.345098 0 0 0 0 0.360784 0 0 0 0 0.372549 0 0 0 0.2 0"/>
<feBlend mode="normal" in2="BackgroundImageFix" result="effect1_dropShadow_12_15289"/>
<feBlend mode="normal" in="SourceGraphic" in2="effect1_dropShadow_12_15289" result="shape"/>
</filter>
<linearGradient id="paint0_linear_12_15289" x1="98.3078" y1="297.936" x2="374.936" y2="21.3071" gradientUnits="userSpaceOnUse">
<stop stop-color="#7B6AE0" style="stop-color:#7B6AE0;stop-color:color(display-p3 0.4824 0.4157 0.8784);stop-opacity:1;"/>
<stop offset="1" stop-color="#FFBB89" style="stop-color:#FFBB89;stop-color:color(display-p3 1.0000 0.7333 0.5373);stop-opacity:1;"/>
</linearGradient>
<linearGradient id="paint1_linear_12_15289" x1="125.047" y1="271.262" x2="348.038" y2="48.2703" gradientUnits="userSpaceOnUse">
<stop stop-color="#7B6AE0" style="stop-color:#7B6AE0;stop-color:color(display-p3 0.4824 0.4157 0.8784);stop-opacity:1;"/>
<stop offset="1" stop-color="#FFBB89" style="stop-color:#FFBB89;stop-color:color(display-p3 1.0000 0.7333 0.5373);stop-opacity:1;"/>
</linearGradient>
<linearGradient id="paint2_linear_12_15289" x1="155.734" y1="240.659" x2="317.142" y2="79.2507" gradientUnits="userSpaceOnUse">
<stop stop-color="#7B6AE0" style="stop-color:#7B6AE0;stop-color:color(display-p3 0.4824 0.4157 0.8784);stop-opacity:1;"/>
<stop offset="1" stop-color="#FFBB89" style="stop-color:#FFBB89;stop-color:color(display-p3 1.0000 0.7333 0.5373);stop-opacity:1;"/>
</linearGradient>
<linearGradient id="paint3_linear_12_15289" x1="192.373" y1="204.44" x2="281.272" y2="115.542" gradientUnits="userSpaceOnUse">
<stop stop-color="#7B6AE0" style="stop-color:#7B6AE0;stop-color:color(display-p3 0.4824 0.4157 0.8784);stop-opacity:1;"/>
<stop offset="1" stop-color="#FFBB89" style="stop-color:#FFBB89;stop-color:color(display-p3 1.0000 0.7333 0.5373);stop-opacity:1;"/>
</linearGradient>
<linearGradient id="paint4_linear_12_15289" x1="315.397" y1="137.178" x2="315.397" y2="160.52" gradientUnits="userSpaceOnUse">
<stop stop-color="#EBEBEB" style="stop-color:#EBEBEB;stop-color:color(display-p3 0.9200 0.9200 0.9200);stop-opacity:1;"/>
<stop offset="1" stop-color="#D1D1D1" style="stop-color:#D1D1D1;stop-color:color(display-p3 0.8200 0.8200 0.8200);stop-opacity:1;"/>
</linearGradient>
<linearGradient id="paint5_linear_12_15289" x1="204.566" y1="214.22" x2="204.566" y2="249.353" gradientUnits="userSpaceOnUse">
<stop stop-color="#EBEBEB" style="stop-color:#EBEBEB;stop-color:color(display-p3 0.9200 0.9200 0.9200);stop-opacity:1;"/>
<stop offset="1" stop-color="#D1D1D1" style="stop-color:#D1D1D1;stop-color:color(display-p3 0.8200 0.8200 0.8200);stop-opacity:1;"/>
</linearGradient>
<linearGradient id="paint6_linear_12_15289" x1="300.106" y1="228" x2="300.106" y2="282.213" gradientUnits="userSpaceOnUse">
<stop stop-color="#EBEBEB" style="stop-color:#EBEBEB;stop-color:color(display-p3 0.9200 0.9200 0.9200);stop-opacity:1;"/>
<stop offset="1" stop-color="#D1D1D1" style="stop-color:#D1D1D1;stop-color:color(display-p3 0.8200 0.8200 0.8200);stop-opacity:1;"/>
</linearGradient>
<linearGradient id="paint7_linear_12_15289" x1="136.861" y1="164.956" x2="136.861" y2="213.233" gradientUnits="userSpaceOnUse">
<stop stop-color="#EBEBEB" style="stop-color:#EBEBEB;stop-color:color(display-p3 0.9200 0.9200 0.9200);stop-opacity:1;"/>
<stop offset="1" stop-color="#D1D1D1" style="stop-color:#D1D1D1;stop-color:color(display-p3 0.8200 0.8200 0.8200);stop-opacity:1;"/>
</linearGradient>
<linearGradient id="paint8_linear_12_15289" x1="115.74" y1="167.975" x2="129.614" y2="177.784" gradientUnits="userSpaceOnUse">
<stop stop-color="#392993" style="stop-color:#392993;stop-color:color(display-p3 0.2235 0.1608 0.5765);stop-opacity:1;"/>
<stop offset="1" stop-color="#4B47B9" style="stop-color:#4B47B9;stop-color:color(display-p3 0.2941 0.2784 0.7255);stop-opacity:1;"/>
</linearGradient>
<linearGradient id="paint9_linear_12_15289" x1="107.702" y1="169.454" x2="149.186" y2="203.673" gradientUnits="userSpaceOnUse">
<stop stop-color="#594BB9" style="stop-color:#594BB9;stop-color:color(display-p3 0.3490 0.2941 0.7255);stop-opacity:1;"/>
<stop offset="1" stop-color="#60A8F2" style="stop-color:#60A8F2;stop-color:color(display-p3 0.3765 0.6588 0.9490);stop-opacity:1;"/>
</linearGradient>
<linearGradient id="paint10_linear_12_15289" x1="136.949" y1="205.621" x2="157.982" y2="210.217" gradientUnits="userSpaceOnUse">
<stop stop-color="#61A2EF" style="stop-color:#61A2EF;stop-color:color(display-p3 0.3804 0.6353 0.9373);stop-opacity:1;"/>
<stop offset="1" stop-color="#58E6FD" style="stop-color:#58E6FD;stop-color:color(display-p3 0.3451 0.9020 0.9922);stop-opacity:1;"/>
</linearGradient>
<linearGradient id="paint11_linear_12_15289" x1="131.471" y1="170.98" x2="157.983" y2="167.975" gradientUnits="userSpaceOnUse">
<stop stop-color="#534EBE" style="stop-color:#534EBE;stop-color:color(display-p3 0.3255 0.3059 0.7451);stop-opacity:1;"/>
<stop offset="1" stop-color="#6875E2" style="stop-color:#6875E2;stop-color:color(display-p3 0.4078 0.4588 0.8863);stop-opacity:1;"/>
</linearGradient>
<linearGradient id="paint12_linear_12_15289" x1="150.382" y1="191.924" x2="157.982" y2="201.027" gradientUnits="userSpaceOnUse">
<stop stop-color="#71A5F3" style="stop-color:#71A5F3;stop-color:color(display-p3 0.4431 0.6471 0.9529);stop-opacity:1;"/>
<stop offset="1" stop-color="#6CC3FA" style="stop-color:#6CC3FA;stop-color:color(display-p3 0.4235 0.7647 0.9804);stop-opacity:1;"/>
</linearGradient>
<linearGradient id="paint13_linear_12_15289" x1="186.649" y1="81.0005" x2="186.649" y2="118.777" gradientUnits="userSpaceOnUse">
<stop stop-color="#EBEBEB" style="stop-color:#EBEBEB;stop-color:color(display-p3 0.9200 0.9200 0.9200);stop-opacity:1;"/>
<stop offset="1" stop-color="#D1D1D1" style="stop-color:#D1D1D1;stop-color:color(display-p3 0.8200 0.8200 0.8200);stop-opacity:1;"/>
</linearGradient>
<clipPath id="clip0_12_15289">
<rect x="112.722" y="164.956" width="48.2773" height="48.2773" rx="24.1387" fill="white" style="fill:white;fill-opacity:1;"/>
</clipPath>
</defs>
</svg>
