<svg width="66" height="66" viewBox="0 0 66 66" fill="none" xmlns="http://www.w3.org/2000/svg">
<path d="M2.29839 9.50916C1.38454 11.3027 0.940161 13.3516 0.719648 16.0505C0.499999 18.7389 0.499999 22.1159 0.5 26.5764V26.6V39.4V39.4236C0.499999 43.8841 0.499999 47.2611 0.719648 49.9495C0.940161 52.6484 1.38454 54.6973 2.29839 56.4908C3.8803 59.5955 6.40448 62.1197 9.50916 63.7016C11.3027 64.6155 13.3516 65.0598 16.0505 65.2803C18.7389 65.5 22.1159 65.5 26.5764 65.5H26.6H39.4H39.4236C43.8841 65.5 47.2611 65.5 49.9495 65.2803C52.6484 65.0598 54.6973 64.6155 56.4908 63.7016C59.5955 62.1197 62.1197 59.5955 63.7016 56.4908C64.6155 54.6973 65.0598 52.6484 65.2803 49.9495C65.5 47.2611 65.5 43.8841 65.5 39.4236V39.4V26.6V26.5764C65.5 22.1159 65.5 18.7389 65.2803 16.0505C65.0598 13.3516 64.6155 11.3027 63.7016 9.50916C62.1197 6.40448 59.5955 3.8803 56.4908 2.29839C54.6973 1.38454 52.6484 0.940161 49.9495 0.719648C47.2611 0.499999 43.8841 0.499999 39.4236 0.5H39.4H26.6H26.5764C22.1159 0.499999 18.7389 0.499999 16.0505 0.719648C13.3516 0.940161 11.3027 1.38454 9.50916 2.29839C6.40448 3.8803 3.8803 6.40448 2.29839 9.50916Z" fill="#EAECF0" stroke="url(#paint0_linear_12_21849)" style="fill:#EAECF0;fill:color(display-p3 0.9181 0.9260 0.9419);fill-opacity:1;"/>
<g filter="url(#filter0_d_12_21849)">
<path d="M32.7567 53.1445C33.3969 53.1445 34.1663 52.8983 35.0651 52.4058L48.7124 44.5573C49.2664 44.2372 49.7096 43.8986 50.042 43.5416C50.3744 43.1845 50.6083 42.7721 50.7438 42.3043C50.8915 41.8364 50.9654 41.264 50.9654 40.5868V24.8158C50.9654 23.7201 50.7684 22.8891 50.3744 22.3227C49.9928 21.7564 49.4572 21.4732 48.7678 21.4732C48.1276 21.4732 47.3766 21.7195 46.5148 22.2119L32.849 30.0974C32.2827 30.4298 31.8272 30.7746 31.4824 31.1316C31.15 31.4886 30.91 31.9011 30.7622 32.3689C30.6268 32.8367 30.5591 33.4092 30.5591 34.0864V49.8389C30.5591 50.8977 30.7438 51.7102 31.1131 52.2766C31.4948 52.8552 32.0426 53.1445 32.7567 53.1445ZM25.2405 48.8601C25.6222 48.8601 25.9915 48.7432 26.3486 48.5093V29.9682C26.3486 29.685 26.367 29.4634 26.404 29.3033C26.4532 29.1433 26.5394 29.0079 26.6625 28.8971C26.7856 28.774 26.9641 28.6447 27.198 28.5093L43.2645 19.2387C43.2891 18.6108 43.1229 18.1184 42.7659 17.7613C42.4089 17.392 41.9534 17.2073 41.3993 17.2073C40.8946 17.2073 40.359 17.3612 39.7927 17.669L25.259 26.0347C24.6557 26.3794 24.2125 26.6872 23.9293 26.958C23.6462 27.2166 23.4615 27.5367 23.3753 27.9183C23.2891 28.2877 23.2461 28.8232 23.2461 29.525V46.1085C23.2461 46.9334 23.4307 47.5982 23.8001 48.103C24.1817 48.6077 24.6619 48.8601 25.2405 48.8601ZM18.223 44.8158C18.5923 44.8158 18.9617 44.6989 19.331 44.4649V25.9054C19.331 25.6468 19.3495 25.4314 19.3864 25.259C19.4357 25.0867 19.5218 24.9451 19.645 24.8343C19.7681 24.7112 19.9466 24.5819 20.1805 24.4465L36.2654 15.1759C36.2654 14.548 36.0869 14.0556 35.7299 13.6985C35.3852 13.3292 34.942 13.1445 34.4003 13.1445C33.8586 13.1445 33.3169 13.3107 32.7751 13.6431L18.2599 21.9903C17.6566 22.3351 17.2073 22.6367 16.9118 22.8952C16.6286 23.1538 16.444 23.4739 16.3578 23.8555C16.2716 24.2372 16.2285 24.7789 16.2285 25.4806V42.0457C16.2285 42.8706 16.4132 43.5416 16.7825 44.0587C17.1519 44.5634 17.632 44.8158 18.223 44.8158Z" fill="url(#paint1_linear_12_21849)" style=""/>
</g>
<defs>
<filter id="filter0_d_12_21849" x="15.7285" y="12.8945" width="35.7368" height="41" filterUnits="userSpaceOnUse" color-interpolation-filters="sRGB">
<feFlood flood-opacity="0" result="BackgroundImageFix"/>
<feColorMatrix in="SourceAlpha" type="matrix" values="0 0 0 0 0 0 0 0 0 0 0 0 0 0 0 0 0 0 127 0" result="hardAlpha"/>
<feOffset dy="0.25"/>
<feGaussianBlur stdDeviation="0.25"/>
<feComposite in2="hardAlpha" operator="out"/>
<feColorMatrix type="matrix" values="0 0 0 0 0 0 0 0 0 0 0 0 0 0 0 0 0 0 0.2 0"/>
<feBlend mode="normal" in2="BackgroundImageFix" result="effect1_dropShadow_12_21849"/>
<feBlend mode="normal" in="SourceGraphic" in2="effect1_dropShadow_12_21849" result="shape"/>
</filter>
<linearGradient id="paint0_linear_12_21849" x1="0.999003" y1="64.9996" x2="64.9992" y2="0.999221" gradientUnits="userSpaceOnUse">
<stop stop-color="#7B6AE0" style="stop-color:#7B6AE0;stop-color:color(display-p3 0.4824 0.4157 0.8784);stop-opacity:1;"/>
<stop offset="1" stop-color="#FFBB89" style="stop-color:#FFBB89;stop-color:color(display-p3 1.0000 0.7333 0.5373);stop-opacity:1;"/>
</linearGradient>
<linearGradient id="paint1_linear_12_21849" x1="16.2285" y1="13.1445" x2="55.8337" y2="47.5385" gradientUnits="userSpaceOnUse">
<stop stop-color="#FCCB90" style="stop-color:#FCCB90;stop-color:color(display-p3 0.9882 0.7961 0.5647);stop-opacity:1;"/>
<stop offset="1" stop-color="#D57EEB" style="stop-color:#D57EEB;stop-color:color(display-p3 0.8353 0.4941 0.9216);stop-opacity:1;"/>
</linearGradient>
</defs>
</svg>
