<svg width="180" height="40" viewBox="0 0 180 40" fill="none" xmlns="http://www.w3.org/2000/svg">
<g id="Company logo">
<path id="Vector" d="M58.3136 5.89868H40.0702C37.5412 5.89868 35.4915 7.94838 35.4915 10.4774V28.7209C35.4915 31.2499 37.5412 33.2996 40.0702 33.2996H58.3136C60.8427 33.2996 62.8924 31.2499 62.8924 28.7209V10.4774C62.8924 7.94838 60.8427 5.89868 58.3136 5.89868ZM57.9114 26.8723C57.9114 27.6712 57.264 28.3186 56.465 28.3186H41.9188C41.1199 28.3186 40.4724 27.6712 40.4724 26.8723V12.326C40.4724 11.5271 41.1199 10.8797 41.9188 10.8797H56.465C57.264 10.8797 57.9114 11.5271 57.9114 12.326V26.8723ZM46.2854 23.3184C45.8254 23.3184 45.4562 22.9464 45.4562 22.4864V16.6789C45.4562 16.2188 45.8254 15.8441 46.2854 15.8441H52.1012C52.5585 15.8441 52.9304 16.216 52.9304 16.6789V22.4836C52.9304 22.9437 52.5585 23.3156 52.1012 23.3156H46.2854V23.3184ZM70.1573 22.9216H73.1492C73.2979 24.616 74.4467 25.9383 76.7637 25.9383C78.8327 25.9383 80.1055 24.9162 80.1055 23.3707C80.1055 21.9243 79.1082 21.2769 77.3119 20.8527L74.9922 20.354C72.4742 19.8058 70.5788 18.1859 70.5788 15.5411C70.5788 12.6236 73.1712 10.629 76.5378 10.629C80.1027 10.629 82.3976 12.4996 82.596 15.2656H79.7032C79.3589 13.9707 78.2844 13.1994 76.5405 13.1994C74.6947 13.1994 73.4247 14.1967 73.4247 15.4695C73.4247 16.7422 74.5211 17.5136 76.4166 17.9379L78.7114 18.4366C81.2295 18.9848 82.9486 20.5055 82.9486 23.1723C82.9486 26.5637 80.4058 28.5831 76.7664 28.5831C72.6753 28.5804 70.408 26.3626 70.1573 22.9216ZM93.6517 33.2996V28.3379L93.8473 26.1615H93.6517C92.9657 27.7263 91.5248 28.5831 89.5688 28.5831C86.4143 28.5831 84.0671 26.0155 84.0671 22.0786C84.0671 18.1418 86.4143 15.5741 89.5688 15.5741C91.5 15.5741 92.8692 16.4778 93.6517 17.8966H93.8473V15.8166H96.4397V33.2996H93.6517ZM93.7481 22.0759C93.7481 19.5578 92.208 18.0894 90.3236 18.0894C88.4392 18.0894 86.8992 19.5578 86.8992 22.0759C86.8992 24.5939 88.4392 26.0623 90.3236 26.0623C92.208 26.0623 93.7481 24.5967 93.7481 22.0759ZM98.5087 23.3735V15.8166H101.297V23.1283C101.297 25.1091 102.25 26.0623 103.84 26.0623C105.796 26.0623 107.068 24.6683 107.068 22.4919V15.8166H109.856V28.3352H107.264V25.7427H107.068C106.457 27.4067 105.112 28.5804 103.035 28.5804C100.049 28.5804 98.5087 26.6739 98.5087 23.3735ZM111.553 24.8391C111.553 22.4919 113.193 21.1227 116.102 20.9518L119.548 20.7314V19.7534C119.548 18.5798 118.692 17.8718 117.176 17.8718C115.782 17.8718 114.95 18.5798 114.73 19.5826H111.942C112.237 17.0398 114.339 15.5714 117.174 15.5714C120.378 15.5714 122.334 16.9406 122.334 19.5826V28.3352H119.741V26.0127H119.546C118.959 27.5528 117.736 28.5804 115.388 28.5804C113.143 28.5804 111.553 27.0651 111.553 24.8391ZM119.551 23.2991V22.6379L116.738 22.8335C115.223 22.9299 114.537 23.4947 114.537 24.6187C114.537 25.5719 115.32 26.2579 116.419 26.2579C118.402 26.2579 119.551 24.9879 119.551 23.2991ZM124.414 28.3379V15.8166H127.006V18.2134H127.202C127.568 16.5742 128.816 15.8166 130.673 15.8166H131.946V18.3346H130.356C128.546 18.3346 127.202 19.5082 127.202 21.7343V28.3352H124.414V28.3379ZM144.701 22.5911H135.188C135.334 24.8887 136.949 26.1863 138.734 26.1863C140.249 26.1863 141.202 25.5747 141.742 24.5471H144.506C143.748 27.0899 141.522 28.5804 138.709 28.5804C135.018 28.5804 132.425 25.8171 132.425 22.0759C132.425 18.3346 135.089 15.5714 138.734 15.5714C142.401 15.5714 144.798 18.0894 144.798 21.2191C144.8 21.8334 144.751 22.1503 144.701 22.5911ZM142.037 20.6598C141.941 18.9242 140.497 17.7506 138.737 17.7506C137.073 17.7506 135.681 18.803 135.337 20.6598H142.037Z" fill="#7A7493" style="fill:#7A7493;fill:color(display-p3 0.4800 0.4552 0.5750);fill-opacity:1;"/>
</g>
</svg>
