<svg width="180" height="40" viewBox="0 0 180 40" fill="none" xmlns="http://www.w3.org/2000/svg">
<g id="Company logo">
<g id="Vector">
<path fill-rule="evenodd" clip-rule="evenodd" d="M122.819 20.5403C122.819 15.8524 120.548 12.1534 116.209 12.1534C111.85 12.1534 109.213 15.8524 109.213 20.5037C109.213 26.0155 112.326 28.7989 116.795 28.7989C118.974 28.7989 120.622 28.3045 121.867 27.6087V23.9463C120.622 24.5689 119.193 24.9534 117.381 24.9534C115.604 24.9534 114.029 24.3308 113.828 22.17H122.783C122.783 21.932 122.819 20.9798 122.819 20.5403ZM113.773 18.8006C113.773 16.7314 115.037 15.8707 116.19 15.8707C117.307 15.8707 118.498 16.7314 118.498 18.8006H113.773Z" fill="#7A7493" style="fill:#7A7493;fill:color(display-p3 0.4800 0.4552 0.5750);fill-opacity:1;"/>
<path fill-rule="evenodd" clip-rule="evenodd" d="M102.145 12.1534C100.35 12.1534 99.1967 12.9958 98.5558 13.5817L98.3177 12.4464H94.2891V33.7981L98.8671 32.8275L98.8854 27.6453C99.5446 28.1214 100.515 28.7989 102.127 28.7989C105.404 28.7989 108.389 26.162 108.389 20.3571C108.371 15.0467 105.349 12.1534 102.145 12.1534ZM101.046 24.7703C99.9658 24.7703 99.3249 24.3858 98.8854 23.9097L98.8671 17.1159C99.3432 16.5849 100.002 16.2187 101.046 16.2187C102.713 16.2187 103.866 18.0865 103.866 20.4853C103.866 22.9391 102.731 24.7703 101.046 24.7703Z" fill="#7A7493" style="fill:#7A7493;fill:color(display-p3 0.4800 0.4552 0.5750);fill-opacity:1;"/>
<path fill-rule="evenodd" clip-rule="evenodd" d="M87.9897 11.073L92.586 10.0841V6.36682L87.9897 7.33735V11.073Z" fill="#7A7493" style="fill:#7A7493;fill:color(display-p3 0.4800 0.4552 0.5750);fill-opacity:1;"/>
<path d="M92.586 12.4647H87.9897V28.4876H92.586V12.4647Z" fill="#7A7493" style="fill:#7A7493;fill:color(display-p3 0.4800 0.4552 0.5750);fill-opacity:1;"/>
<path fill-rule="evenodd" clip-rule="evenodd" d="M83.0636 13.8198L82.7706 12.4647H78.8153V28.4876H83.3932V17.6286C84.4736 16.2186 86.3048 16.475 86.8725 16.6764V12.4647C86.2865 12.2449 84.144 11.8421 83.0636 13.8198Z" fill="#7A7493" style="fill:#7A7493;fill:color(display-p3 0.4800 0.4552 0.5750);fill-opacity:1;"/>
<path fill-rule="evenodd" clip-rule="evenodd" d="M73.9078 8.49098L69.4397 9.4432L69.4214 24.111C69.4214 26.8212 71.454 28.8172 74.1642 28.8172C75.6658 28.8172 76.7645 28.5425 77.3688 28.2129V24.4956C76.7828 24.7336 73.8895 25.576 73.8895 22.8658V16.3651H77.3688V12.4647H73.8895L73.9078 8.49098Z" fill="#7A7493" style="fill:#7A7493;fill:color(display-p3 0.4800 0.4552 0.5750);fill-opacity:1;"/>
<path fill-rule="evenodd" clip-rule="evenodd" d="M61.5291 17.116C61.5291 16.4018 62.1151 16.1271 63.0857 16.1271C64.4774 16.1271 66.2353 16.5483 67.627 17.2991V12.9958C66.1071 12.3915 64.6055 12.1534 63.0857 12.1534C59.3683 12.1534 56.8962 14.0945 56.8962 17.3357C56.8962 22.3898 63.8548 21.5841 63.8548 23.7632C63.8548 24.6055 63.1223 24.8802 62.0968 24.8802C60.5769 24.8802 58.6359 24.2576 57.0977 23.4152V27.7735C58.8007 28.5059 60.522 28.8173 62.0968 28.8173C65.9057 28.8173 68.5243 26.9311 68.5243 23.6533C68.506 18.1964 61.5291 19.1669 61.5291 17.116Z" fill="#7A7493" style="fill:#7A7493;fill:color(display-p3 0.4800 0.4552 0.5750);fill-opacity:1;"/>
</g>
</g>
</svg>
