<svg width="180" height="40" viewBox="0 0 180 40" fill="none" xmlns="http://www.w3.org/2000/svg">
<g id="Company logo">
<path id="Union" fill-rule="evenodd" clip-rule="evenodd" d="M129.002 19.3859H128.209L128.2 26.4649H124.779V6.39246H128.209V16.352C130.69 16.352 133.188 15.1781 133.188 12.072H136.6C136.6 14.9343 134.811 17.598 132.146 18.6183L137.642 26.4649H133.778L129.002 19.3859ZM68.775 23.9184C66.1288 23.9184 64.377 21.9138 63.8883 21.1373C64.5153 16.2253 66.3502 14.6722 68.775 14.6722C71.1724 14.6722 73.0348 16.5503 73.0348 19.2952C73.0348 22.0402 71.1724 23.9184 68.775 23.9184ZM68.775 11.6564C64.4601 11.6564 62.0444 14.4104 61.3528 17.2456C60.5691 15.8009 59.9883 13.8686 59.5365 12.0717H53.571V19.3404C53.571 21.9771 52.3447 23.9274 49.9474 23.9274C47.5502 23.9274 46.1764 21.9771 46.1764 19.3404L46.204 12.0717H42.7649V19.3404C42.7649 21.4624 43.4656 23.3857 44.7472 24.7581C46.0657 26.1757 47.8637 26.9161 49.9474 26.9161C54.0965 26.9161 56.9917 23.801 56.9917 19.3404V14.4555C57.425 16.0627 58.4577 19.1508 60.4308 21.8597L58.5868 32.1442H62.0813L63.2982 24.8574C63.6947 25.1825 64.1189 25.4714 64.5706 25.7333C65.7416 26.4557 67.0785 26.862 68.4616 26.9071C68.4616 26.9071 68.6736 26.9161 68.7843 26.9161C73.0625 26.9161 76.4647 23.6746 76.4647 19.2952C76.4647 14.916 73.0532 11.6564 68.775 11.6564ZM118.186 13.6255V12.0725H114.812V26.4563H118.232V20.822C118.232 17.3547 118.555 14.8626 123.303 15.1876V11.9009C121.091 11.7384 119.366 12.1898 118.186 13.6255ZM91.9557 22.1316L94.436 12.0728H98.0964L94.0764 26.4658H89.9642L87.1336 16.2444L84.2754 26.4658H80.1631L76.3644 12.0728H79.8312L82.3022 22.1316L84.9576 12.0728H89.3095L91.9557 22.1316ZM105.629 23.9274C103.195 23.9274 101.37 22.0493 101.37 19.2952C101.37 16.5413 103.204 14.6722 105.629 14.6722C108.027 14.6722 109.889 16.5503 109.889 19.2952C109.889 22.0402 108.027 23.9274 105.629 23.9274ZM105.629 11.6564C101.323 11.6564 97.9488 14.925 97.9488 19.2952C97.9488 23.6655 101.323 26.9071 105.629 26.9071C109.907 26.9071 113.31 23.6655 113.31 19.2952C113.31 14.925 109.917 11.6564 105.629 11.6564Z" fill="#7A7493" style="fill:#7A7493;fill:color(display-p3 0.4800 0.4552 0.5750);fill-opacity:1;"/>
</g>
</svg>
